<svg width="39" height="31" viewBox="0 0 39 31" fill="none" xmlns="http://www.w3.org/2000/svg">
<g opacity="0.5">
<path d="M29.646 12.7048C18.975 15.8807 16.6248 24.191 16.7836 27.9491L19.3243 30.0135C26.6924 25.6942 33.4277 18.5802 35.045 14.6103C36.1952 11.7873 36.2051 10.6352 35.9955 10.2863C35.9311 10.1792 35.7872 10.2263 35.6819 10.2935C34.8786 10.806 31.4266 12.0792 29.646 12.7048Z" fill="url(#paint0_linear_83_4041)"/>
<path d="M24.578 20.327C26.0187 18.6461 30.3151 16.4546 32.6146 15.4148C32.8636 15.3021 33.1796 15.1365 33.1417 14.8658C33.1313 14.7913 33.0879 14.7367 33.0283 14.6975C32.8257 14.5643 32.5606 14.6563 32.3362 14.748C28.7328 16.2208 26.6232 17.5905 26.0071 18.1038C26.0071 17.3537 26.5344 16.4003 26.9218 15.8343C27.0466 15.6519 27.2048 15.4357 27.1153 15.2336C27.1011 15.2016 27.0821 15.1751 27.0597 15.1535C26.8526 14.9536 26.5278 15.1892 26.3595 15.4226C25.6596 16.3933 25.3071 17.9873 25.2132 18.739L23.784 19.8506C23.6704 19.3963 23.8023 18.485 23.9071 17.9565C23.9297 17.8429 23.951 17.726 23.9269 17.6127C23.9061 17.515 23.8666 17.4554 23.8179 17.4224C23.6137 17.2842 23.3941 17.5772 23.3118 17.8096C23.0037 18.6805 23.168 19.8149 23.3076 20.327L21.8785 21.9149C21.7714 21.4867 21.9576 20.5022 22.1138 19.8546C22.1648 19.643 22.2247 19.3432 22.0219 19.2642C21.949 19.2358 21.8666 19.2616 21.7885 19.3121C21.6109 19.4267 21.5189 19.6323 21.4642 19.8365C21.2021 20.8146 21.3064 22.0239 21.4021 22.5501C20.1317 23.8205 19.2848 26.1495 19.0201 27.1552C18.9706 27.403 19.0161 27.5622 19.1058 27.661C19.3482 27.9283 19.7121 27.5692 19.834 27.2296C20.298 25.9374 21.1461 24.4657 21.5609 23.8205C24.0011 24.4015 25.9187 23.7867 26.7547 23.3131C26.8941 23.2341 27.0421 23.1221 27.0472 22.962C27.0495 22.8875 27.0155 22.8332 26.9634 22.7944C26.7861 22.6623 26.5427 22.7698 26.3439 22.8665C24.6418 23.6947 22.7871 23.4353 22.0373 23.1853C22.1643 22.6772 23.3605 21.4915 23.9428 20.9622C26.1107 21.4186 28.27 20.7135 29.3393 20.1817C29.554 20.0749 29.8499 19.8687 29.7143 19.6709C29.6997 19.6495 29.6807 19.6311 29.6587 19.6154C29.4806 19.4879 29.2386 19.5802 29.035 19.6609C27.1118 20.423 25.2817 20.4275 24.578 20.327Z" fill="url(#paint1_linear_83_4041)"/>
<path d="M13.8939 26.201C13.3858 23.4062 16.117 19.5316 17.5462 17.9436C15.2365 15.0797 12.6581 13.8819 10.4989 13.2247C8.02621 12.472 5.46914 11.8564 3.08433 10.8596C2.99245 10.8212 2.91467 10.8843 2.89438 10.9817C1.86401 15.9331 9.76374 23.1687 13.8939 26.201Z" fill="url(#paint2_linear_83_4041)"/>
<path d="M14.8166 21.6278L15.293 20.8338L14.0226 19.5635C13.9229 17.6693 13.6211 16.6944 13.3935 16.2857C13.3057 16.1281 13.0102 15.9901 12.8479 16.0691C12.5644 16.207 12.8735 16.5081 12.9828 16.804C13.2165 17.4368 13.3464 18.5129 13.3874 19.0871C13.0063 18.706 12.0641 18.1872 11.6407 17.9755C11.314 16.7777 10.4195 15.7277 9.83732 15.1855C9.6702 15.0299 9.45229 14.8759 9.2339 14.9426C9.22342 14.9458 9.21358 14.9494 9.20435 14.9535C8.97857 15.0525 9.1923 15.3653 9.35905 15.5468C10.0208 16.2674 10.6123 17.1241 10.8467 17.4991C10.3386 17.2451 8.30599 16.3346 7.35322 15.9112C6.87511 15.7063 6.5592 15.6452 6.36104 15.649C6.15627 15.6529 5.92731 15.8345 5.98882 16.0298C6.06703 16.2782 6.5624 16.4677 6.87683 16.5463C9.73515 17.4991 13.1757 19.934 14.499 21.1514C13.1016 21.4055 10.9526 20.8338 10.0527 20.5162C9.64787 20.3543 9.47956 20.4418 9.42444 20.5814C9.36404 20.7344 9.49487 20.884 9.63797 20.965C11.6216 22.0889 13.898 21.8829 14.8166 21.6278Z" fill="url(#paint3_linear_83_4041)"/>
<path d="M27.0434 10.2931C27.1713 10.2623 27.25 10.1337 27.2193 10.0058C27.1885 9.87787 27.0598 9.79914 26.9319 9.82991L27.0434 10.2931ZM22.2347 9.70215L22.1542 9.9263C23.009 10.2335 25.1803 10.7414 27.0434 10.2931L26.9877 10.0615L26.9319 9.82991C25.1984 10.2471 23.1305 9.77097 22.3153 9.47799L22.2347 9.70215Z" fill="black"/>
<path d="M29.8372 0.0146086C19.0147 0.457253 17.7402 10.8343 18.5716 16.3123C22.0651 12.9775 25.1352 12.0248 27.9405 11.2308C33.7842 10.2145 37.5741 4.56144 38.7386 1.86192C37.8445 1.67368 36.5528 1.35781 35.3938 1.04267C33.8237 0.615766 31.4629 -0.0518845 29.8372 0.0146086Z" fill="url(#paint4_linear_83_4041)"/>
<path d="M28.5757 5.83185C29.7931 5.93772 32.8314 5.99065 35.2451 5.35547" stroke="#69B0AC" stroke-width="0.476385" stroke-linecap="round"/>
<path d="M22.4932 9.21094C23.1813 9.58146 25.1292 10.1637 27.4158 9.52853" stroke="#69B0AC" stroke-width="0.476385" stroke-linecap="round"/>
<path d="M28.0991 3.92881C29.4219 3.2073 32.3667 2.99803 33.8896 2.97773C34.0512 2.97558 34.2184 2.9953 34.3507 3.08812C34.5649 3.23838 34.4889 3.38634 34.3471 3.49358C34.2182 3.59106 34.0493 3.61064 33.8877 3.61306C29.3147 3.68132 26.0153 5.64023 24.9232 6.62833C25.4229 7.25291 30.2626 7.41688 32.7389 7.42217C32.8226 7.42235 32.9054 7.42823 32.9854 7.45272C33.3021 7.54966 33.3002 7.7205 33.2054 7.86733C33.1112 8.01336 32.9301 8.06718 32.757 8.08221C29.0497 8.40389 25.6877 7.67714 24.4468 7.26351C23.3796 7.97501 22.0448 10.31 21.3983 11.6078C21.313 11.779 21.1987 11.9413 21.0302 12.0319C20.731 12.1927 20.5819 12.0883 20.5178 11.9334C20.4598 11.7933 20.4976 11.6356 20.5447 11.4914C21.222 9.41499 22.778 7.50313 23.494 6.78713C23.0108 5.33747 23.1097 4.34732 23.3011 3.8167C23.3944 3.5581 23.6567 3.21422 23.8771 3.37847C23.9052 3.39939 23.9258 3.42837 23.9404 3.46066C23.9825 3.55401 23.9527 3.66059 23.925 3.75916C23.6174 4.85102 23.9266 5.90557 24.1292 6.31074C25.5266 5.16742 26.7229 4.564 27.1463 4.4052C27.4917 3.25401 28.7324 2.10282 29.4743 1.54246C29.6126 1.43792 29.7754 1.35411 29.9485 1.36446C30.1008 1.37356 30.1782 1.43441 30.21 1.51489C30.2945 1.72873 30.0475 1.90345 29.858 2.03749L29.8496 2.04347C29.2344 2.47888 28.4578 3.43556 28.0991 3.92881Z" fill="url(#paint5_linear_83_4041)"/>
<path d="M16.6177 13.0689C16.4907 10.2741 17.7293 6.82295 18.3645 5.44673C16.4027 1.41998 12.0004 0.197477 8.94281 0.0229398C7.7215 -0.0467768 6.527 0.343731 5.35621 0.698299C3.71672 1.19481 1.49761 1.69881 0.261841 1.95324C1.06377 5.60645 4.51659 8.22327 7.58474 9.77081C9.81187 10.8942 12.3226 11.3215 14.6442 12.2337C15.4218 12.5392 16.1362 12.8482 16.6177 13.0689Z" fill="url(#paint6_linear_83_4041)"/>
<path d="M3.75562 5.40039C4.21035 5.50625 6.77272 5.87678 10.2662 5.71798" stroke="#69B0AC" stroke-width="0.476385" stroke-linecap="round"/>
<path d="M10.7423 9.52832C11.5363 9.74005 13.3783 10.0682 14.3946 9.68712" stroke="#4E8086" stroke-width="0.476385" stroke-linecap="round"/>
<path d="M16.6691 9.8722L16.9867 8.91943C16.9867 8.79239 15.9281 7.49028 15.3988 6.8551C16.161 4.69549 15.8222 3.73213 15.5575 3.5204C15.3422 3.37687 15.2182 3.4293 15.151 3.54026C15.0448 3.71545 15.1216 3.93628 15.1485 4.13931C15.2489 4.8968 14.9492 5.91455 14.7636 6.37872C14.2872 5.74354 12.7522 4.73783 11.9053 4.31438C11.5425 2.98422 10.0958 1.83631 9.31829 1.3637C9.24377 1.3184 9.16322 1.28229 9.07634 1.27473C8.89038 1.25855 8.79186 1.33083 8.74527 1.43144C8.654 1.6285 8.857 1.81144 9.04406 1.92176C9.75517 2.34115 10.585 3.33272 10.9525 3.83799C9.0507 3.00595 6.2592 2.85047 4.86726 2.87726C4.69269 2.88062 4.49405 2.91857 4.41805 3.07577C4.36061 3.19459 4.39982 3.30761 4.46643 3.39507C4.53944 3.49092 4.66636 3.52167 4.7868 3.52536C10.2566 3.69289 13.1845 5.70182 13.9696 6.6963C12.981 7.1906 8.40617 7.32428 6.06257 7.33119C5.93717 7.33156 5.80491 7.36007 5.72794 7.45907C5.63743 7.57549 5.6489 7.68974 5.69953 7.78386C5.77807 7.92988 5.95809 7.9731 6.12362 7.98264C9.72182 8.18992 13.26 7.53474 14.6048 7.17268C14.7318 7.17268 16.0339 8.97236 16.6691 9.8722Z" fill="url(#paint7_linear_83_4041)"/>
</g>
<defs>
<linearGradient id="paint0_linear_83_4041" x1="36.1493" y1="10.1641" x2="18.0466" y2="28.9019" gradientUnits="userSpaceOnUse">
<stop stop-color="#468F8B"/>
<stop offset="1" stop-color="#153540"/>
</linearGradient>
<linearGradient id="paint1_linear_83_4041" x1="32.6561" y1="14.9279" x2="18.2058" y2="27.9491" gradientUnits="userSpaceOnUse">
<stop stop-color="#D4E6EE"/>
<stop offset="1" stop-color="#173742"/>
</linearGradient>
<linearGradient id="paint2_linear_83_4041" x1="10.1744" y1="10.7979" x2="10.1744" y2="26.201" gradientUnits="userSpaceOnUse">
<stop stop-color="#448C88"/>
<stop offset="1" stop-color="#183843"/>
</linearGradient>
<linearGradient id="paint3_linear_83_4041" x1="6.24165" y1="15.9112" x2="15.1342" y2="21.3102" gradientUnits="userSpaceOnUse">
<stop stop-color="#D2E6EC"/>
<stop offset="1" stop-color="#2D4E5D"/>
</linearGradient>
<linearGradient id="paint4_linear_83_4041" x1="38.6903" y1="2.22313" x2="18.9997" y2="16.1971" gradientUnits="userSpaceOnUse">
<stop stop-color="#5EB7B0"/>
<stop offset="1" stop-color="#1C3B47"/>
</linearGradient>
<linearGradient id="paint5_linear_83_4041" x1="27.4805" y1="1.36328" x2="27.4805" y2="12.1125" gradientUnits="userSpaceOnUse">
<stop stop-color="#DAF3F8"/>
<stop offset="1" stop-color="#698A94"/>
</linearGradient>
<linearGradient id="paint6_linear_83_4041" x1="9.31316" y1="0" x2="9.31316" y2="13.0689" gradientUnits="userSpaceOnUse">
<stop stop-color="#59AFA6"/>
<stop offset="1" stop-color="#173B43"/>
</linearGradient>
<linearGradient id="paint7_linear_83_4041" x1="10.6885" y1="1.27246" x2="10.6885" y2="9.8722" gradientUnits="userSpaceOnUse">
<stop stop-color="#E6F3FB"/>
<stop offset="1" stop-color="#678F98"/>
</linearGradient>
</defs>
</svg>
