<svg width="174" height="170" viewBox="0 0 174 170" fill="none" xmlns="http://www.w3.org/2000/svg">
<path d="M128.484 51.9403C84.8537 64.9254 75.2448 98.903 75.894 114.269L86.2821 122.709C116.407 105.049 143.945 75.9627 150.558 59.7313C155.261 48.189 155.301 43.4784 154.444 42.052C154.181 41.614 153.593 41.8066 153.162 42.0814C149.878 44.1769 135.764 49.3824 128.484 51.9403Z" fill="url(#paint0_linear_4_60)"/>
<path d="M107.761 83.1045C113.651 76.2321 131.218 67.272 140.619 63.0203C141.638 62.5598 142.93 61.8826 142.775 60.7757C142.732 60.4713 142.555 60.2478 142.311 60.0875C141.483 59.543 140.399 59.919 139.481 60.294C124.748 66.3157 116.123 71.916 113.604 74.0149C113.604 70.948 115.76 67.0496 117.344 64.7357C117.854 63.99 118.501 63.106 118.135 62.2797C118.077 62.1487 117.999 62.0405 117.908 61.9519C117.061 61.1346 115.733 62.098 115.045 63.0525C112.183 67.0213 110.742 73.5386 110.358 76.612L104.514 81.1567C104.05 79.2992 104.589 75.5732 105.018 73.4126C105.11 72.948 105.197 72.4702 105.099 72.0068C105.014 71.6073 104.852 71.3635 104.653 71.2288C103.818 70.6638 102.92 71.8617 102.584 72.8119C101.324 76.3728 101.996 81.0108 102.567 83.1045L96.7234 89.597C96.2857 87.8462 97.0468 83.8207 97.6856 81.173C97.8943 80.3079 98.1391 79.0824 97.3099 78.7591C97.0119 78.643 96.6749 78.7487 96.3555 78.9549C95.6294 79.4236 95.2534 80.2644 95.0297 81.0991C93.9579 85.0981 94.3845 90.0425 94.7756 92.194C89.5816 97.3881 86.1189 106.91 85.0368 111.022C84.8342 112.036 85.0203 112.687 85.3869 113.091C86.3783 114.184 87.8658 112.715 88.3645 111.327C90.2616 106.043 93.7291 100.026 95.4249 97.3881C105.402 99.7636 113.242 97.2501 116.66 95.3134C117.23 94.9905 117.836 94.5328 117.856 93.878C117.866 93.5734 117.727 93.3513 117.514 93.1928C116.789 92.6528 115.794 93.0923 114.981 93.4877C108.022 96.8736 100.439 95.813 97.3726 94.7911C97.892 92.7134 102.783 87.8657 105.164 85.7015C114.027 87.5675 122.856 84.6849 127.228 82.5104C128.106 82.0738 129.315 81.2309 128.761 80.4221C128.701 80.3347 128.624 80.2595 128.534 80.1951C127.806 79.6737 126.816 80.051 125.984 80.381C118.121 83.4972 110.638 83.5155 107.761 83.1045Z" fill="url(#paint1_linear_4_60)"/>
<path d="M64.0777 107.127C62.0001 95.7 73.1673 79.8582 79.0106 73.3657C69.5672 61.656 59.0251 56.7589 50.197 54.0717C40.0869 50.9942 29.632 48.4774 19.8814 44.4019C19.5058 44.2449 19.1877 44.5026 19.1048 44.9012C14.892 65.1454 47.191 94.729 64.0777 107.127Z" fill="url(#paint2_linear_4_60)"/>
<path d="M67.8512 88.4279L69.799 85.1817L64.605 79.9876C64.1974 72.2431 62.9634 68.2571 62.0328 66.5862C61.6737 65.9416 60.4656 65.3775 59.8021 65.7003C58.6427 66.2644 59.9068 67.4956 60.3534 68.7051C61.3089 71.2927 61.8403 75.6925 62.0079 78.0398C60.4497 76.4816 56.5975 74.3607 54.8662 73.4951C53.5305 68.5977 49.8733 64.3046 47.4928 62.0878C46.8096 61.4515 45.9186 60.8219 45.0257 61.0946C44.9828 61.1077 44.9426 61.1226 44.9049 61.1392C43.9818 61.5439 44.8556 62.8228 45.5374 63.5651C48.243 66.5111 50.6615 70.0139 51.6199 71.5474C49.5423 70.5086 41.2318 66.7861 37.3363 65.0548C35.3815 64.217 34.0898 63.9673 33.2797 63.9827C32.4424 63.9987 31.5063 64.7412 31.7578 65.54C32.0776 66.5556 34.103 67.3304 35.3885 67.6518C47.0751 71.5473 61.1423 81.5025 66.5527 86.4801C60.8393 87.519 52.0527 85.1817 48.3736 83.8831C46.7183 83.221 46.0301 83.5788 45.8048 84.1496C45.5578 84.775 46.0927 85.3867 46.6778 85.7182C54.7883 90.3132 64.0956 89.4711 67.8512 88.4279Z" fill="url(#paint3_linear_4_60)"/>
<path d="M117.84 42.0817C118.363 41.9559 118.685 41.43 118.559 40.907C118.433 40.3841 117.908 40.0622 117.385 40.188L117.84 42.0817ZM98.1795 39.6656L97.8501 40.5821C101.345 41.8383 110.223 43.9149 117.84 42.0817L117.612 41.1349L117.385 40.188C110.297 41.8937 101.842 39.9471 98.5089 38.7492L98.1795 39.6656Z" fill="black"/>
<path d="M129.264 0.0597293C85.015 1.86954 79.8037 44.2974 83.2033 66.6947C97.4869 53.0603 110.039 49.1649 121.509 45.9187C145.402 41.7634 160.897 18.65 165.659 7.61269C162.003 6.84303 156.722 5.55158 151.983 4.26308C145.563 2.51764 135.911 -0.212136 129.264 0.0597293Z" fill="url(#paint4_linear_4_60)"/>
<path d="M124.106 23.844C129.084 24.2768 141.506 24.4933 151.375 21.8962" stroke="#69B0AC" stroke-width="1.94776" stroke-linecap="round"/>
<path d="M99.237 37.6567C102.05 39.1717 110.015 41.5523 119.364 38.9552" stroke="#69B0AC" stroke-width="1.94776" stroke-linecap="round"/>
<path d="M122.159 16.0528C127.567 13.1029 139.607 12.2472 145.834 12.1642C146.495 12.1554 147.178 12.236 147.719 12.6156C148.595 13.2299 148.284 13.8349 147.704 14.2733C147.177 14.6719 146.487 14.752 145.826 14.7618C127.129 15.041 113.639 23.0502 109.173 27.0902C111.216 29.6439 131.004 30.3142 141.129 30.3359C141.471 30.3366 141.81 30.3607 142.137 30.4608C143.432 30.8571 143.424 31.5556 143.036 32.156C142.651 32.753 141.911 32.9731 141.203 33.0345C126.045 34.3498 112.299 31.3784 107.226 29.6872C102.862 32.5962 97.4049 42.143 94.7616 47.4493C94.4128 48.1495 93.9456 48.813 93.2565 49.1834C92.0333 49.8407 91.4237 49.4137 91.1615 48.7806C90.9243 48.2076 91.0791 47.563 91.2714 46.9734C94.0405 38.4838 100.403 30.6669 103.33 27.7394C101.354 21.8123 101.759 17.764 102.541 15.5945C102.923 14.5371 103.995 13.1312 104.897 13.8027C105.011 13.8882 105.095 14.0067 105.155 14.1388C105.327 14.5204 105.206 14.9562 105.092 15.3592C103.835 19.8234 105.099 24.1351 105.927 25.7917C111.641 21.117 116.532 18.6499 118.263 18.0006C119.675 13.2938 124.748 8.58704 127.781 6.29596C128.347 5.86854 129.012 5.52587 129.72 5.56817C130.343 5.60538 130.659 5.85419 130.789 6.18324C131.135 7.05755 130.125 7.77192 129.35 8.31996L129.316 8.34438C126.8 10.1246 123.625 14.0361 122.159 16.0528Z" fill="url(#paint5_linear_4_60)"/>
<path d="M75.2147 53.4338C74.6953 42.0069 79.7594 27.8965 82.3564 22.2696C74.3356 5.80578 56.336 0.80741 43.8347 0.0937922C38.8413 -0.191253 33.9574 1.40539 29.1705 2.85508C22.4672 4.88514 13.3941 6.94581 8.34152 7.98605C11.6203 22.9227 25.7376 33.6219 38.2821 39.9492C47.388 44.5421 57.6535 46.2895 67.1458 50.019C70.3249 51.2681 73.2457 52.5313 75.2147 53.4338Z" fill="url(#paint6_linear_4_60)"/>
<path d="M22.6251 22.0747C24.4843 22.5075 34.9609 24.0225 49.2445 23.3732" stroke="#69B0AC" stroke-width="1.94776" stroke-linecap="round"/>
<path d="M51.1923 38.9552C54.4385 39.8209 61.9699 41.1627 66.1251 39.6045" stroke="#4E8086" stroke-width="1.94776" stroke-linecap="round"/>
<path d="M75.4257 40.3552L76.7242 36.4597C76.7242 35.9403 72.3959 30.6164 70.2317 28.0194C73.3481 19.1896 71.963 15.2508 70.881 14.3851C70.0007 13.7982 69.4934 14.0126 69.2186 14.4663C68.7847 15.1825 69.0985 16.0854 69.2085 16.9156C69.6189 20.0127 68.3938 24.1738 67.6347 26.0717C65.6869 23.4746 59.4108 19.3627 55.9481 17.6314C54.4649 12.1928 48.55 7.49944 45.371 5.56712C45.0663 5.38191 44.737 5.23427 44.3817 5.20336C43.6214 5.13721 43.2186 5.43276 43.0281 5.84411C42.6549 6.64981 43.4849 7.39776 44.2498 7.84883C47.1572 9.56358 50.5502 13.6177 52.0526 15.6836C44.2769 12.2817 32.8635 11.646 27.1724 11.7555C26.4586 11.7693 25.6465 11.9244 25.3357 12.5672C25.1009 13.0529 25.2612 13.5151 25.5335 13.8726C25.832 14.2645 26.351 14.3903 26.8434 14.4053C49.2074 15.0903 61.1784 23.3041 64.3884 27.3701C60.3464 29.3911 41.6417 29.9377 32.0596 29.966C31.5469 29.9675 31.0061 30.084 30.6914 30.4888C30.3213 30.9648 30.3682 31.4319 30.5752 31.8167C30.8964 32.4138 31.6324 32.5905 32.3092 32.6295C47.0209 33.477 61.4872 30.7982 66.9854 29.3179C67.5048 29.3179 72.8287 36.6761 75.4257 40.3552Z" fill="url(#paint7_linear_4_60)"/>
<path d="M141.926 135.694H174V142.109H143.53C140.323 142.109 140.857 146.92 141.124 149.325H174V155.74H141.124C140.483 161.513 141.926 162.957 144.332 162.957H174V169.372H142.728C136.313 169.372 134.71 165.362 134.71 162.155V143.713C134.71 138.1 138.719 135.694 141.926 135.694Z" fill="#50A09A"/>
<path d="M39.2903 142.109V135.694H8.01843C0.962212 136.336 0 142.911 0 146.118C0.641475 153.174 4.81106 154.671 7.21659 154.938L29.0792 155.692C30.0016 155.724 30.9781 155.813 31.677 156.416C32.6086 157.219 32.8756 158.35 32.8756 158.948C32.8756 162.155 30.47 162.957 29.6682 162.957H0V169.372H29.2075C30.5804 169.372 31.9808 169.305 33.2449 168.769C38.0247 166.745 39.2903 161.559 39.2903 158.948C39.2903 151.25 33.1429 149.325 30.47 149.325H8.82028C6.25438 149.325 5.6129 147.187 5.6129 146.118C5.6129 142.911 7.75115 142.109 8.82028 142.109H39.2903Z" fill="#50A09A"/>
<path d="M50.5162 169.372H43.2996C49.3185 145.965 50.8752 139.291 54.4826 136.79C55.9521 135.772 57.838 135.694 59.6262 135.694H68.176C69.2291 135.694 70.3026 135.76 71.2571 136.205C76.0653 138.447 78.653 145.678 79.3825 149.325L84.1936 169.372H76.977L73.7696 155.74H56.1291L57.7327 149.325H72.1659L70.5622 143.713C69.9208 141.788 68.6913 141.307 68.1567 141.307H59.3364C58.0535 141.307 57.1982 142.911 56.9309 143.713L50.5162 169.372Z" fill="#50A09A"/>
<path d="M128.295 141.307V135.694H97.0231C91.2498 136.336 89.0046 139.703 89.0046 142.911V161.353C89.0046 169.372 95.6867 169.104 97.8249 169.372H115.465C121.209 169.372 123.809 168.8 125.485 167.317C128.071 165.026 128.756 161.186 128.436 157.747C127.858 151.516 124.312 149.325 121.078 149.325H99.4286V155.74H119.475C122.682 155.74 122.682 156.542 122.682 159.749C122.682 162.404 120.389 163.759 117.733 163.759H98.6267C96.0608 163.759 95.4194 162.155 95.4194 161.353L95.4194 143.713C95.4194 141.307 97.2903 141.307 98.6267 141.307H128.295Z" fill="#50A09A"/>
<defs>
<linearGradient id="paint0_linear_4_60" x1="155.073" y1="41.5522" x2="81.0579" y2="118.164" gradientUnits="userSpaceOnUse">
<stop stop-color="#468F8B"/>
<stop offset="1" stop-color="#153540"/>
</linearGradient>
<linearGradient id="paint1_linear_4_60" x1="140.789" y1="61.0298" x2="81.7072" y2="114.269" gradientUnits="userSpaceOnUse">
<stop stop-color="#D4E6EE"/>
<stop offset="1" stop-color="#173742"/>
</linearGradient>
<linearGradient id="paint2_linear_4_60" x1="48.8701" y1="44.1493" x2="48.8701" y2="107.127" gradientUnits="userSpaceOnUse">
<stop stop-color="#448C88"/>
<stop offset="1" stop-color="#183843"/>
</linearGradient>
<linearGradient id="paint3_linear_4_60" x1="32.7915" y1="65.0548" x2="69.1497" y2="87.1294" gradientUnits="userSpaceOnUse">
<stop stop-color="#D2E6EC"/>
<stop offset="1" stop-color="#2D4E5D"/>
</linearGradient>
<linearGradient id="paint4_linear_4_60" x1="165.461" y1="9.08955" x2="84.9534" y2="66.2239" gradientUnits="userSpaceOnUse">
<stop stop-color="#5EB7B0"/>
<stop offset="1" stop-color="#1C3B47"/>
</linearGradient>
<linearGradient id="paint5_linear_4_60" x1="119.629" y1="5.56335" x2="119.629" y2="49.5128" gradientUnits="userSpaceOnUse">
<stop stop-color="#DAF3F8"/>
<stop offset="1" stop-color="#698A94"/>
</linearGradient>
<linearGradient id="paint6_linear_4_60" x1="45.349" y1="0" x2="45.349" y2="53.4338" gradientUnits="userSpaceOnUse">
<stop stop-color="#59AFA6"/>
<stop offset="1" stop-color="#173B43"/>
</linearGradient>
<linearGradient id="paint7_linear_4_60" x1="50.9732" y1="5.19409" x2="50.9732" y2="40.3552" gradientUnits="userSpaceOnUse">
<stop stop-color="#E6F3FB"/>
<stop offset="1" stop-color="#678F98"/>
</linearGradient>
</defs>
</svg>
