<svg width="158" height="123" viewBox="0 0 158 123" fill="none" xmlns="http://www.w3.org/2000/svg">
<path d="M120.484 51.9403C76.8537 64.9254 67.2448 98.903 67.894 114.269L78.2821 122.709C108.407 105.049 135.945 75.9627 142.558 59.7313C147.261 48.189 147.301 43.4784 146.444 42.052C146.181 41.614 145.593 41.8066 145.162 42.0814C141.878 44.1769 127.764 49.3824 120.484 51.9403Z" fill="url(#paint0_linear_4_61)"/>
<path d="M99.7607 83.1045C105.651 76.2321 123.218 67.272 132.619 63.0203C133.638 62.5598 134.93 61.8826 134.775 60.7757C134.732 60.4713 134.555 60.2478 134.311 60.0875C133.483 59.543 132.399 59.919 131.481 60.294C116.748 66.3157 108.123 71.916 105.604 74.0149C105.604 70.948 107.76 67.0496 109.344 64.7357C109.854 63.99 110.501 63.106 110.135 62.2797C110.077 62.1487 109.999 62.0405 109.908 61.9519C109.061 61.1346 107.733 62.098 107.045 63.0525C104.183 67.0213 102.742 73.5386 102.358 76.612L96.5144 81.1567C96.0501 79.2992 96.5891 75.5732 97.0178 73.4126C97.11 72.948 97.1971 72.4702 97.0986 72.0068C97.0136 71.6073 96.852 71.3635 96.6529 71.2288C95.8182 70.6638 94.9201 71.8617 94.584 72.8119C93.3243 76.3728 93.9957 81.0108 94.5667 83.1045L88.7234 89.597C88.2857 87.8462 89.0468 83.8207 89.6856 81.173C89.8943 80.3079 90.1391 79.0824 89.3099 78.7591C89.0119 78.643 88.6749 78.7487 88.3555 78.9549C87.6294 79.4236 87.2534 80.2644 87.0297 81.0991C85.9579 85.0981 86.3845 90.0425 86.7756 92.194C81.5816 97.3881 78.1189 106.91 77.0368 111.022C76.8342 112.036 77.0203 112.687 77.3869 113.091C78.3783 114.184 79.8658 112.715 80.3645 111.327C82.2616 106.043 85.7291 100.026 87.4249 97.3881C97.4019 99.7636 105.242 97.2501 108.66 95.3134C109.23 94.9905 109.836 94.5328 109.856 93.878C109.866 93.5734 109.727 93.3513 109.514 93.1928C108.789 92.6528 107.794 93.0923 106.981 93.4877C100.022 96.8736 92.4386 95.813 89.3726 94.7911C89.892 92.7134 94.7831 87.8657 97.1637 85.7015C106.027 87.5675 114.856 84.6849 119.228 82.5104C120.106 82.0738 121.315 81.2309 120.761 80.4221C120.701 80.3347 120.624 80.2595 120.534 80.1951C119.806 79.6737 118.816 80.051 117.984 80.381C110.121 83.4972 102.638 83.5155 99.7607 83.1045Z" fill="url(#paint1_linear_4_61)"/>
<path d="M56.0777 107.127C54.0001 95.7 65.1673 79.8582 71.0106 73.3657C61.5672 61.656 51.0251 56.7589 42.197 54.0717C32.0869 50.9942 21.632 48.4774 11.8814 44.4019C11.5058 44.2449 11.1877 44.5026 11.1048 44.9012C6.89198 65.1454 39.191 94.729 56.0777 107.127Z" fill="url(#paint2_linear_4_61)"/>
<path d="M59.8512 88.4279L61.799 85.1817L56.605 79.9876C56.1974 72.2431 54.9634 68.2571 54.0328 66.5862C53.6737 65.9416 52.4656 65.3775 51.8021 65.7003C50.6427 66.2644 51.9068 67.4956 52.3534 68.7051C53.3089 71.2927 53.8403 75.6925 54.0079 78.0398C52.4497 76.4816 48.5975 74.3607 46.8662 73.4951C45.5305 68.5977 41.8733 64.3046 39.4928 62.0878C38.8096 61.4515 37.9186 60.8219 37.0257 61.0946C36.9828 61.1077 36.9426 61.1226 36.9049 61.1392C35.9818 61.5439 36.8556 62.8228 37.5374 63.5651C40.243 66.5111 42.6615 70.0139 43.6199 71.5474C41.5423 70.5086 33.2318 66.7861 29.3363 65.0548C27.3815 64.217 26.0898 63.9673 25.2797 63.9827C24.4424 63.9987 23.5063 64.7412 23.7578 65.54C24.0776 66.5556 26.103 67.3304 27.3885 67.6518C39.0751 71.5473 53.1423 81.5025 58.5527 86.4801C52.8393 87.519 44.0527 85.1817 40.3736 83.8831C38.7183 83.221 38.0301 83.5788 37.8048 84.1496C37.5578 84.775 38.0927 85.3867 38.6778 85.7182C46.7883 90.3132 56.0956 89.4711 59.8512 88.4279Z" fill="url(#paint3_linear_4_61)"/>
<path d="M109.84 42.0817C110.363 41.9559 110.685 41.43 110.559 40.907C110.433 40.3841 109.908 40.0622 109.385 40.188L109.84 42.0817ZM90.1795 39.6656L89.8501 40.5821C93.3451 41.8383 102.223 43.9149 109.84 42.0817L109.612 41.1349L109.385 40.188C102.297 41.8937 93.8419 39.9471 90.5089 38.7492L90.1795 39.6656Z" fill="black"/>
<path d="M121.264 0.0597293C77.015 1.86954 71.8037 44.2974 75.2033 66.6947C89.4869 53.0603 102.039 49.1649 113.509 45.9187C137.402 41.7634 152.897 18.65 157.659 7.61269C154.003 6.84303 148.722 5.55158 143.983 4.26308C137.563 2.51764 127.911 -0.212136 121.264 0.0597293Z" fill="url(#paint4_linear_4_61)"/>
<path d="M116.106 23.844C121.084 24.2768 133.506 24.4933 143.375 21.8962" stroke="#69B0AC" stroke-width="1.94776" stroke-linecap="round"/>
<path d="M91.237 37.6567C94.0504 39.1717 102.015 41.5523 111.364 38.9552" stroke="#69B0AC" stroke-width="1.94776" stroke-linecap="round"/>
<path d="M114.159 16.0528C119.567 13.1029 131.607 12.2472 137.834 12.1642C138.495 12.1554 139.178 12.236 139.719 12.6156C140.595 13.2299 140.284 13.8349 139.704 14.2733C139.177 14.6719 138.487 14.752 137.826 14.7618C119.129 15.041 105.639 23.0502 101.173 27.0902C103.216 29.6439 123.004 30.3142 133.129 30.3359C133.471 30.3366 133.81 30.3607 134.137 30.4608C135.432 30.8571 135.424 31.5556 135.036 32.156C134.651 32.753 133.911 32.9731 133.203 33.0345C118.045 34.3498 104.299 31.3784 99.2257 29.6872C94.8621 32.5962 89.4049 42.143 86.7616 47.4493C86.4128 48.1495 85.9456 48.813 85.2565 49.1834C84.0333 49.8407 83.4237 49.4137 83.1615 48.7806C82.9243 48.2076 83.0791 47.563 83.2714 46.9734C86.0405 38.4838 92.4027 30.6669 95.3302 27.7394C93.3544 21.8123 93.7586 17.764 94.5414 15.5945C94.923 14.5371 95.9951 13.1312 96.8965 13.8027C97.0114 13.8882 97.0955 14.0067 97.155 14.1388C97.3272 14.5204 97.2056 14.9562 97.0921 15.3592C95.8347 19.8234 97.0989 24.1351 97.9272 25.7917C103.641 21.117 108.532 18.6499 110.263 18.0006C111.675 13.2938 116.748 8.58704 119.781 6.29596C120.347 5.86854 121.012 5.52587 121.72 5.56817C122.343 5.60538 122.659 5.85419 122.789 6.18324C123.135 7.05755 122.125 7.77192 121.35 8.31996L121.316 8.34438C118.8 10.1246 115.625 14.0361 114.159 16.0528Z" fill="url(#paint5_linear_4_61)"/>
<path d="M67.2147 53.4338C66.6953 42.0069 71.7594 27.8965 74.3564 22.2696C66.3356 5.80578 48.336 0.80741 35.8347 0.0937922C30.8413 -0.191253 25.9574 1.40539 21.1705 2.85508C14.4672 4.88514 5.39413 6.94581 0.341522 7.98605C3.6203 22.9227 17.7376 33.6219 30.2821 39.9492C39.388 44.5421 49.6535 46.2895 59.1458 50.019C62.3249 51.2681 65.2457 52.5313 67.2147 53.4338Z" fill="url(#paint6_linear_4_61)"/>
<path d="M14.6251 22.0747C16.4843 22.5075 26.9609 24.0225 41.2445 23.3732" stroke="#69B0AC" stroke-width="1.94776" stroke-linecap="round"/>
<path d="M43.1923 38.9552C46.4385 39.8209 53.9699 41.1627 58.1251 39.6045" stroke="#4E8086" stroke-width="1.94776" stroke-linecap="round"/>
<path d="M67.4257 40.3552L68.7242 36.4597C68.7242 35.9403 64.3959 30.6164 62.2317 28.0194C65.3481 19.1896 63.963 15.2508 62.881 14.3851C62.0007 13.7982 61.4934 14.0126 61.2186 14.4663C60.7847 15.1825 61.0985 16.0854 61.2085 16.9156C61.6189 20.0127 60.3938 24.1738 59.6347 26.0717C57.6869 23.4746 51.4108 19.3627 47.9481 17.6314C46.4649 12.1928 40.55 7.49944 37.371 5.56712C37.0663 5.38191 36.737 5.23427 36.3817 5.20336C35.6214 5.13721 35.2186 5.43276 35.0281 5.84411C34.6549 6.64981 35.4849 7.39776 36.2498 7.84883C39.1572 9.56358 42.5502 13.6177 44.0526 15.6836C36.2769 12.2817 24.8635 11.646 19.1724 11.7555C18.4586 11.7693 17.6465 11.9244 17.3357 12.5672C17.1009 13.0529 17.2612 13.5151 17.5335 13.8726C17.832 14.2645 18.351 14.3903 18.8434 14.4053C41.2074 15.0903 53.1784 23.3041 56.3884 27.3701C52.3464 29.3911 33.6417 29.9377 24.0596 29.966C23.5469 29.9675 23.0061 30.084 22.6914 30.4888C22.3213 30.9648 22.3682 31.4319 22.5752 31.8167C22.8964 32.4138 23.6324 32.5905 24.3092 32.6295C39.0209 33.477 53.4872 30.7982 58.9854 29.3179C59.5048 29.3179 64.8287 36.6761 67.4257 40.3552Z" fill="url(#paint7_linear_4_61)"/>
<defs>
<linearGradient id="paint0_linear_4_61" x1="147.073" y1="41.5522" x2="73.0579" y2="118.164" gradientUnits="userSpaceOnUse">
<stop stop-color="#468F8B"/>
<stop offset="1" stop-color="#153540"/>
</linearGradient>
<linearGradient id="paint1_linear_4_61" x1="132.789" y1="61.0298" x2="73.7072" y2="114.269" gradientUnits="userSpaceOnUse">
<stop stop-color="#D4E6EE"/>
<stop offset="1" stop-color="#173742"/>
</linearGradient>
<linearGradient id="paint2_linear_4_61" x1="40.8701" y1="44.1493" x2="40.8701" y2="107.127" gradientUnits="userSpaceOnUse">
<stop stop-color="#448C88"/>
<stop offset="1" stop-color="#183843"/>
</linearGradient>
<linearGradient id="paint3_linear_4_61" x1="24.7915" y1="65.0548" x2="61.1497" y2="87.1294" gradientUnits="userSpaceOnUse">
<stop stop-color="#D2E6EC"/>
<stop offset="1" stop-color="#2D4E5D"/>
</linearGradient>
<linearGradient id="paint4_linear_4_61" x1="157.461" y1="9.08955" x2="76.9534" y2="66.2239" gradientUnits="userSpaceOnUse">
<stop stop-color="#5EB7B0"/>
<stop offset="1" stop-color="#1C3B47"/>
</linearGradient>
<linearGradient id="paint5_linear_4_61" x1="111.629" y1="5.56335" x2="111.629" y2="49.5128" gradientUnits="userSpaceOnUse">
<stop stop-color="#DAF3F8"/>
<stop offset="1" stop-color="#698A94"/>
</linearGradient>
<linearGradient id="paint6_linear_4_61" x1="37.349" y1="0" x2="37.349" y2="53.4338" gradientUnits="userSpaceOnUse">
<stop stop-color="#59AFA6"/>
<stop offset="1" stop-color="#173B43"/>
</linearGradient>
<linearGradient id="paint7_linear_4_61" x1="42.9732" y1="5.19409" x2="42.9732" y2="40.3552" gradientUnits="userSpaceOnUse">
<stop stop-color="#E6F3FB"/>
<stop offset="1" stop-color="#678F98"/>
</linearGradient>
</defs>
</svg>
