<svg width="93" height="90" viewBox="0 0 93 90" fill="none" xmlns="http://www.w3.org/2000/svg">
<path d="M68.273 27.5998C45.0892 34.4998 39.9832 52.5547 40.3282 60.7196L45.8482 65.2046C61.8561 55.8207 76.4891 40.3647 80.003 31.7398C82.5018 25.6064 82.5232 23.1033 82.0679 22.3454C81.9281 22.1127 81.6155 22.215 81.3866 22.361C79.6413 23.4745 72.1416 26.2406 68.273 27.5998Z" fill="url(#paint0_linear_6_216)"/>
<path d="M57.2615 44.1599C60.3916 40.5081 69.726 35.7469 74.7217 33.4877C75.2629 33.243 75.9494 32.8831 75.8671 32.2949C75.8444 32.1332 75.7502 32.0144 75.6206 31.9292C75.1805 31.6399 74.6045 31.8397 74.1169 32.039C66.2883 35.2388 61.7048 38.2146 60.3665 39.3299C60.3665 37.7003 61.512 35.6288 62.3537 34.3992C62.6249 34.0029 62.9685 33.5332 62.7741 33.0941C62.7432 33.0246 62.702 32.967 62.6532 32.9199C62.2034 32.4856 61.4976 32.9976 61.1319 33.5048C59.6114 35.6137 58.8456 39.0768 58.6415 40.71L55.5365 43.1249C55.2897 42.1379 55.5761 40.158 55.804 39.0099C55.853 38.763 55.8992 38.5091 55.8469 38.2629C55.8017 38.0506 55.7159 37.9211 55.6101 37.8495C55.1665 37.5493 54.6893 38.1858 54.5107 38.6907C53.8413 40.5829 54.1981 43.0474 54.5015 44.1599L51.3965 47.6099C51.1639 46.6796 51.5683 44.5405 51.9078 43.1336C52.0187 42.6739 52.1488 42.0227 51.7082 41.8509C51.5498 41.7892 51.3708 41.8454 51.201 41.955C50.8152 42.204 50.6154 42.6508 50.4965 43.0943C49.927 45.2193 50.1536 47.8467 50.3615 48.9899C47.6015 51.7499 45.7615 56.8099 45.1865 58.9949C45.0789 59.5333 45.1777 59.8792 45.3726 60.0939C45.8994 60.6746 46.6898 59.8944 46.9548 59.1565C47.9628 56.3491 49.8054 53.1516 50.7065 51.7499C56.0081 53.0122 60.1743 51.6766 61.9906 50.6475C62.2935 50.4759 62.6151 50.2327 62.6261 49.8847C62.6312 49.7229 62.5572 49.6048 62.4441 49.5206C62.0589 49.2337 61.5299 49.4672 61.098 49.6773C57.4002 51.4765 53.3707 50.913 51.7415 50.3699C52.0175 49.2659 54.6165 46.6899 55.8815 45.5399C60.5914 46.5315 65.2828 44.9997 67.6059 43.8443C68.0723 43.6123 68.7151 43.1643 68.4207 42.7346C68.3889 42.6881 68.3476 42.6482 68.2999 42.614C67.9129 42.3369 67.3872 42.5374 66.9447 42.7127C62.7665 44.3686 58.7903 44.3783 57.2615 44.1599Z" fill="url(#paint1_linear_6_216)"/>
<path d="M34.0494 56.9245C32.9454 50.8526 38.8793 42.4346 41.9843 38.9846C36.9663 32.7624 31.3645 30.1602 26.6734 28.7322C21.3012 27.0969 15.7457 25.7596 10.5644 23.5939C10.3648 23.5105 10.1958 23.6474 10.1518 23.8592C7.91319 34.6166 25.0761 50.3366 34.0494 56.9245Z" fill="url(#paint2_linear_6_216)"/>
<path d="M36.0545 46.9883L37.0895 45.2634L34.3295 42.5034C34.1129 38.3881 33.4572 36.2701 32.9627 35.3822C32.7719 35.0396 32.1299 34.7399 31.7774 34.9114C31.1613 35.2112 31.833 35.8654 32.0703 36.5081C32.5781 37.8831 32.8604 40.221 32.9495 41.4684C32.1215 40.6404 30.0745 39.5134 29.1545 39.0534C28.4448 36.451 26.5015 34.1698 25.2365 32.9918C24.8735 32.6537 24.4 32.3192 23.9255 32.4641C23.9028 32.471 23.8814 32.479 23.8614 32.4877C23.3708 32.7028 23.8352 33.3824 24.1975 33.7768C25.6352 35.3423 26.9203 37.2036 27.4295 38.0184C26.3255 37.4664 21.9096 35.4884 19.8396 34.5684C18.8008 34.1232 18.1145 33.9905 17.684 33.9988C17.2391 34.0072 16.7417 34.4018 16.8753 34.8262C17.0452 35.3659 18.1215 35.7776 18.8046 35.9484C25.0146 38.0184 32.4895 43.3084 35.3645 45.9533C32.3285 46.5053 27.6595 45.2634 25.7045 44.5734C24.8249 44.2215 24.4593 44.4117 24.3395 44.7149C24.2083 45.0473 24.4925 45.3723 24.8034 45.5484C29.1132 47.9902 34.0589 47.5427 36.0545 46.9883Z" fill="url(#paint3_linear_6_216)"/>
<path d="M62.6175 22.3612C62.8954 22.2944 63.0665 22.0149 62.9996 21.737C62.9327 21.4592 62.6532 21.2881 62.3754 21.355L62.6175 22.3612ZM52.1702 21.0774L51.9952 21.5644C53.8524 22.2319 58.5697 23.3354 62.6175 22.3612L62.4964 21.8581L62.3754 21.355C58.6091 22.2613 54.1163 21.2269 52.3453 20.5904L52.1702 21.0774Z" fill="black"/>
<path d="M68.6878 0.0317385C45.1749 0.993425 42.4058 23.5386 44.2122 35.44C51.8022 28.195 58.4722 26.1251 64.5671 24.4001C77.2631 22.1921 85.497 9.91018 88.027 4.04521C86.0844 3.63623 83.2781 2.94998 80.76 2.2653C77.3488 1.33781 72.2198 -0.112724 68.6878 0.0317385Z" fill="url(#paint4_linear_6_216)"/>
<path d="M65.9471 12.6702C68.5921 12.9002 75.1931 13.0152 80.437 11.6353" stroke="#69B0AC" stroke-width="1.03499" stroke-linecap="round"/>
<path d="M52.7322 20.0098C54.2272 20.8148 58.4591 22.0798 63.4271 20.6998" stroke="#69B0AC" stroke-width="1.03499" stroke-linecap="round"/>
<path d="M64.9121 8.53017C67.786 6.96262 74.1839 6.50794 77.4927 6.46385C77.8438 6.45917 78.207 6.50201 78.4944 6.70368C78.9597 7.03013 78.7946 7.3516 78.4866 7.58458C78.2065 7.79638 77.8396 7.83892 77.4885 7.84416C67.5532 7.99247 60.3849 12.2484 58.0122 14.3951C59.0977 15.7521 69.6125 16.1083 74.9927 16.1198C75.1744 16.1202 75.3543 16.133 75.5281 16.1862C76.2163 16.3968 76.212 16.768 76.0061 17.087C75.8014 17.4042 75.408 17.5212 75.0319 17.5538C66.9775 18.2527 59.6731 16.6738 56.9772 15.7751C54.6585 17.3209 51.7586 22.3939 50.3541 25.2135C50.1687 25.5856 49.9204 25.9382 49.5543 26.135C48.9043 26.4843 48.5804 26.2574 48.441 25.9209C48.315 25.6165 48.3972 25.2739 48.4994 24.9606C49.9709 20.4494 53.3516 16.2957 54.9072 14.7401C53.8573 11.5906 54.0721 9.43943 54.4881 8.28659C54.6908 7.72475 55.2605 6.97766 55.7395 7.33449C55.8005 7.37994 55.8452 7.44291 55.8769 7.51307C55.9684 7.71588 55.9037 7.94743 55.8434 8.16158C55.1753 10.5337 55.847 12.8249 56.2872 13.7051C59.3232 11.2212 61.9221 9.91017 62.8421 9.56517C63.5925 7.0641 66.2882 4.56302 67.8998 3.34559C68.2005 3.11847 68.5541 2.93638 68.9302 2.95886C69.2611 2.97863 69.4293 3.11084 69.4983 3.28569C69.6818 3.75028 69.1452 4.12988 68.7336 4.42109L68.7152 4.43407C67.3787 5.38005 65.6915 7.45854 64.9121 8.53017Z" fill="url(#paint5_linear_6_216)"/>
<path d="M39.9672 28.3935C39.6912 22.3215 42.3822 14.8235 43.7622 11.8336C39.5001 3.08505 29.9356 0.429039 23.2927 0.049839C20.6393 -0.101627 18.0441 0.74679 15.5005 1.51712C11.9385 2.59585 7.11727 3.69084 4.43243 4.2436C6.17469 12.1806 13.6763 17.8659 20.3421 21.2281C25.1808 23.6686 30.6357 24.5972 35.6796 26.5789C37.369 27.2427 38.921 27.9139 39.9672 28.3935Z" fill="url(#paint6_linear_6_216)"/>
<path d="M12.0224 11.7302C13.0104 11.9602 18.5774 12.7652 26.1673 12.4202" stroke="#69B0AC" stroke-width="1.03499" stroke-linecap="round"/>
<path d="M27.2023 20.7C28.9273 21.1599 32.9293 21.8729 35.1373 21.0449" stroke="#4E8086" stroke-width="1.03499" stroke-linecap="round"/>
<path d="M40.0794 21.444L40.7694 19.3741C40.7694 19.098 38.4694 16.2691 37.3194 14.8891C38.9754 10.1971 38.2394 8.10413 37.6644 7.64413C37.1966 7.33229 36.9271 7.4462 36.781 7.68728C36.5505 8.06788 36.7172 8.54766 36.7757 8.98877C36.9938 10.6345 36.3428 12.8456 35.9394 13.8541C34.9044 12.4741 31.5694 10.2891 29.7294 9.36912C28.9413 6.47922 25.7982 3.98526 24.109 2.95847C23.9471 2.86006 23.7721 2.7816 23.5833 2.76518C23.1793 2.73003 22.9653 2.88708 22.864 3.10566C22.6658 3.53379 23.1068 3.93123 23.5132 4.17092C25.0582 5.0821 26.8611 7.23637 27.6595 8.33411C23.5276 6.52644 17.4628 6.18863 14.4387 6.24684C14.0594 6.25415 13.6279 6.3366 13.4627 6.67813C13.338 6.93627 13.4231 7.18182 13.5679 7.37183C13.7265 7.58007 14.0022 7.64689 14.2639 7.6549C26.1476 8.01888 32.5087 12.3835 34.2144 14.5441C32.0666 15.618 22.1273 15.9084 17.0356 15.9234C16.7632 15.9243 16.4758 15.9862 16.3086 16.2013C16.112 16.4542 16.1369 16.7024 16.2469 16.9069C16.4175 17.2242 16.8086 17.3181 17.1683 17.3388C24.9857 17.7891 32.6728 16.3657 35.5944 15.5791C35.8704 15.5791 38.6994 19.4891 40.0794 21.444Z" fill="url(#paint7_linear_6_216)"/>
<path d="M75.4162 72.1045H92.4594V75.5131H76.2684C74.5641 75.5131 74.8481 78.0696 74.9901 79.3479H92.4594V82.7565H74.9901C74.6493 85.8243 75.4162 86.5912 76.6945 86.5912H92.4594V89.9999H75.8423C72.4337 89.9999 71.5815 87.8695 71.5815 86.1652V76.3653C71.5815 73.3827 73.7119 72.1045 75.4162 72.1045Z" fill="white"/>
<path d="M20.878 75.5131V72.1045H4.2608C0.511294 72.4454 -2.86102e-06 75.9392 -2.86102e-06 77.6435C0.340862 81.3931 2.55648 82.1884 3.83472 82.3304L15.452 82.731C15.9422 82.7479 16.461 82.7951 16.8324 83.1155C17.3275 83.5424 17.4693 84.1434 17.4693 84.4608C17.4693 86.1652 16.1911 86.5912 15.765 86.5912H-2.86102e-06V89.9999H15.5202C16.2497 89.9999 16.9938 89.9644 17.6656 89.6799C20.2054 88.604 20.878 85.8487 20.878 84.4608C20.878 80.3705 17.6113 79.3479 16.1911 79.3479H4.68689C3.32343 79.3479 2.98256 78.2116 2.98256 77.6435C2.98256 75.9392 4.11878 75.5131 4.68689 75.5131H20.878Z" fill="white"/>
<path d="M26.8431 89.9999H23.0084C26.2067 77.562 27.0339 74.0158 28.9507 72.687C29.7316 72.1456 30.7338 72.1045 31.6839 72.1045H36.2271C36.7867 72.1045 37.3571 72.1398 37.8643 72.3762C40.4193 73.5672 41.7944 77.4097 42.182 79.3479L44.7385 89.9999H40.9038L39.1994 82.7565H29.8257L30.6778 79.3479H38.3473L37.4951 76.3653C37.1542 75.3427 36.5009 75.0871 36.2169 75.0871H31.53C30.8483 75.0871 30.3938 75.9392 30.2517 76.3653L26.8431 89.9999Z" fill="white"/>
<path d="M68.1729 75.0871V72.1045H51.5558C48.488 72.4454 47.295 74.2349 47.295 75.9392V85.7391C47.295 89.9999 50.8456 89.8579 51.9819 89.9999H61.3556C64.4074 89.9999 65.7894 89.6963 66.6796 88.9079C68.0537 87.6909 68.4178 85.6504 68.2481 83.8227C67.9406 80.5117 66.0563 79.3479 64.3382 79.3479H52.834V82.7565H63.486C65.1904 82.7565 65.1904 83.1826 65.1904 84.8869C65.1904 86.2978 63.9717 87.0173 62.5608 87.0173H52.4079C51.0445 87.0173 50.7036 86.1652 50.7036 85.7391L50.7036 76.3653C50.7036 75.0871 51.6978 75.0871 52.4079 75.0871H68.1729Z" fill="white"/>
<defs>
<linearGradient id="paint0_linear_6_216" x1="82.402" y1="22.0798" x2="43.0722" y2="62.7896" gradientUnits="userSpaceOnUse">
<stop stop-color="#468F8B"/>
<stop offset="1" stop-color="#153540"/>
</linearGradient>
<linearGradient id="paint1_linear_6_216" x1="74.8121" y1="32.43" x2="43.4173" y2="60.7198" gradientUnits="userSpaceOnUse">
<stop stop-color="#D4E6EE"/>
<stop offset="1" stop-color="#173742"/>
</linearGradient>
<linearGradient id="paint2_linear_6_216" x1="25.9684" y1="23.4597" x2="25.9684" y2="56.9245" gradientUnits="userSpaceOnUse">
<stop stop-color="#448C88"/>
<stop offset="1" stop-color="#183843"/>
</linearGradient>
<linearGradient id="paint3_linear_6_216" x1="17.4246" y1="34.5684" x2="36.7445" y2="46.2983" gradientUnits="userSpaceOnUse">
<stop stop-color="#D2E6EC"/>
<stop offset="1" stop-color="#2D4E5D"/>
</linearGradient>
<linearGradient id="paint4_linear_6_216" x1="87.922" y1="4.82997" x2="45.1422" y2="35.1898" gradientUnits="userSpaceOnUse">
<stop stop-color="#5EB7B0"/>
<stop offset="1" stop-color="#1C3B47"/>
</linearGradient>
<linearGradient id="paint5_linear_6_216" x1="63.5681" y1="2.9563" x2="63.5681" y2="26.31" gradientUnits="userSpaceOnUse">
<stop stop-color="#DAF3F8"/>
<stop offset="1" stop-color="#698A94"/>
</linearGradient>
<linearGradient id="paint6_linear_6_216" x1="24.0973" y1="0" x2="24.0973" y2="28.3935" gradientUnits="userSpaceOnUse">
<stop stop-color="#59AFA6"/>
<stop offset="1" stop-color="#173B43"/>
</linearGradient>
<linearGradient id="paint7_linear_6_216" x1="27.0859" y1="2.76025" x2="27.0859" y2="21.444" gradientUnits="userSpaceOnUse">
<stop stop-color="#E6F3FB"/>
<stop offset="1" stop-color="#678F98"/>
</linearGradient>
</defs>
</svg>
