<svg width="150" height="146" viewBox="0 0 150 146" fill="none" xmlns="http://www.w3.org/2000/svg">
<path d="M118.399 118.341L101.423 123.564L107.952 129.658L93.1521 130.964L92.2815 141.846L87.058 132.705" stroke="#A6B056" stroke-width="1.31458"/>
<path d="M105.775 142.422H149.74C150.784 136.503 148.434 132.701 147.128 131.54C138.422 124.227 131.603 129.654 129.281 133.281C121.968 131.192 118.109 136.183 117.093 138.94C110.825 133.02 106.936 138.795 105.775 142.422Z" fill="#16A5D2"/>
<path d="M17.4116 75.6819L45.2702 103.105C41.4396 85.6936 51.2192 76.1172 56.5877 73.5055V68.282L17.4116 67.8467V75.6819Z" fill="#BEC7CD"/>
<path d="M17.4116 81.7764L62.6818 127.482H17.4116V81.7764Z" fill="#BEC7CD"/>
<path d="M71.8229 127.916L54.4113 127.481L54.8342 109.296L71.8229 127.916Z" fill="#C9CFD4"/>
<path d="M56.5875 107.458V80.9053C51.3639 84.7358 49.7679 93.5287 49.6229 97.4463C48.9264 104.411 53.9758 111.376 56.5875 113.987V107.458Z" fill="#BEC7CD"/>
<path d="M68.7759 116.599C74.3476 115.902 77.4817 118.92 78.3523 120.516C79.7452 127.481 73.7092 128.352 70.517 127.917L60.0701 116.599H68.7759Z" fill="#BEC7CD"/>
<path d="M78.3529 121.387V104.411H62.6823C58.5035 104.411 56.8785 106.733 56.5884 107.893C55.9518 110.227 56.1768 112.284 56.8099 113.915C57.9065 116.74 61.2292 117.47 64.2593 117.47H71.8235C76.0023 117.47 77.9176 120.082 78.3529 121.387Z" fill="#091901"/>
<path d="M131.022 104.847V77.4233C127.192 83.3433 121.011 87.1448 118.399 88.3056C107.604 92.8326 96.7795 83.8076 92.7168 78.7292C82.2699 86.3903 86.913 99.333 90.5404 104.847H131.022Z" fill="#C9CFD4"/>
<path d="M130.587 46.0824L131.022 69.5881L123.187 76.5528C114.133 88.3927 106.646 83.8076 104.034 80.0351C99.159 74.1151 94.748 72.9253 93.152 73.0704H78.3521C72.0839 70.981 74.8698 66.1058 77.0462 63.9293C81.225 55.5718 73.8541 46.8079 69.6463 43.4707H87.4932L110.128 67.847L130.587 46.0824Z" fill="#C9CFD4"/>
<path d="M73.1286 55.6588L63.5522 46.953C57.6323 50.0871 56.4425 56.0941 56.5876 58.7059V107.894C56.5876 106.878 57.3772 106.011 58.2656 105.378C59.3709 104.59 60.7651 104.411 62.1222 104.411H84.4462C77.8296 95.0091 81.6893 83.3723 84.4462 78.7292C66.3381 78.7292 69.3561 66.2509 73.1286 60.0117V55.6588Z" fill="#C9CFD4"/>
<rect x="101.858" y="70.459" width="16.541" height="4.3529" rx="2.17645" fill="black"/>
<path d="M127.571 17.1668C117.938 7.6918 102.321 7.6918 92.6892 17.1668C90.4022 19.4011 88.585 22.07 87.3443 25.0166C86.1036 27.9633 85.4645 31.1282 85.4645 34.3254C85.4645 37.5226 86.1036 40.6875 87.3443 43.6342C88.585 46.5808 90.4022 49.2497 92.6892 51.484L110.128 68.6426L127.571 51.484C129.858 49.2497 131.675 46.5808 132.915 43.6342C134.156 40.6875 134.795 37.5226 134.795 34.3254C134.795 31.1282 134.156 27.9633 132.915 25.0166C131.675 22.07 129.858 19.4011 127.571 17.1668ZM110.128 42.4345C108.069 42.4345 106.135 41.6328 104.677 40.1775C103.233 38.7307 102.422 36.7702 102.422 34.7262C102.422 32.6823 103.233 30.7218 104.677 29.2749C106.132 27.8196 108.069 27.018 110.128 27.018C112.188 27.018 114.124 27.8196 115.58 29.2749C117.023 30.7218 117.834 32.6823 117.834 34.7262C117.834 36.7702 117.023 38.7307 115.58 40.1775C114.124 41.6328 112.188 42.4345 110.128 42.4345Z" fill="#2F6164"/>
<rect x="2.61176" y="101.8" width="43.529" height="43.529" rx="21.7645" fill="#A8692C"/>
<path fill-rule="evenodd" clip-rule="evenodd" d="M12.7686 123.565C12.7686 124.012 13.1311 124.375 13.5784 124.375H15.7754C16.1589 128.499 19.442 131.782 23.5665 132.166V134.363C23.5665 134.81 23.929 135.173 24.3763 135.173C24.8236 135.173 25.1861 134.81 25.1861 134.363V132.166C29.3106 131.782 32.5937 128.499 32.9772 124.375H35.1742C35.6215 124.375 35.984 124.012 35.984 123.565C35.984 123.118 35.6215 122.755 35.1742 122.755H32.9772C32.5937 118.63 29.3106 115.347 25.1861 114.964V112.767C25.1861 112.32 24.8236 111.957 24.3763 111.957C23.929 111.957 23.5665 112.32 23.5665 112.767V114.964C19.442 115.347 16.1589 118.63 15.7754 122.755H13.5784C13.1311 122.755 12.7686 123.118 12.7686 123.565ZM20.3271 123.565C20.3271 121.328 22.14 119.516 24.3763 119.516C26.6126 119.516 28.4255 121.328 28.4255 123.565C28.4255 125.801 26.6126 127.614 24.3763 127.614C22.14 127.614 20.3271 125.801 20.3271 123.565Z" fill="white"/>
<path d="M21.9468 123.565C21.9468 122.223 23.0345 121.135 24.3763 121.135C25.7181 121.135 26.8058 122.223 26.8058 123.565C26.8058 124.907 25.7181 125.994 24.3763 125.994C23.0345 125.994 21.9468 124.907 21.9468 123.565Z" fill="white"/>
<path d="M44.2247 52.1764H0.260338C-0.784359 46.2566 1.56621 42.4549 2.87208 41.2941C11.5779 33.9812 18.3974 39.4078 20.719 43.0352C28.0319 40.9458 31.8914 45.9372 32.9071 48.694C39.1753 42.7741 43.0639 48.5489 44.2247 52.1764Z" fill="#16A5D2"/>
<path d="M45.9656 13L48.6697 20.3076L55.9773 23.0117L48.6697 25.7157L45.9656 33.0234L43.2616 25.7157L35.9539 23.0117L43.2616 20.3076L45.9656 13Z" fill="#99A253"/>
</svg>
