<svg width="375" height="374" viewBox="0 0 375 374" fill="none" xmlns="http://www.w3.org/2000/svg">
<path d="M12.3667 180.4C12.1713 181.265 11.2592 181.988 10.1999 182.063C9.14074 182.14 8.17591 181.192 8.1196 180.383C8.05942 179.575 8.1986 178.925 8.86331 178.348C9.5236 177.777 10.8939 177.777 11.5967 178.37C12.2986 178.957 12.5571 179.538 12.3667 180.4ZM17.3018 178.868C17.7279 178.533 19.1368 177.198 19.3148 175.378C19.5522 172.965 17.8348 171.677 16.2234 171.356C13.9266 170.895 12.5701 172.006 11.4007 173.39C10.7991 171.588 9.32494 170.113 6.91294 170.698C4.49762 171.285 4.18695 172.965 4.33581 174.613C4.44883 175.813 4.69305 176.422 4.69305 176.422C2.16364 176.211 -0.861506 178.212 0.228748 181.446C1.24443 184.466 4.00081 184.413 5.15384 184.042C4.39398 185.744 5.04675 188.667 7.78452 189.167C11.3774 189.837 12.4036 186.979 12.6071 185.648C13.6451 186.745 17.7139 188.212 19.3741 185.015C21.1951 181.482 18.2154 179.404 17.3018 178.868Z" fill="#69B0AC"/>
<path d="M366.787 218.679C366.596 219.528 365.698 220.241 364.656 220.314C363.614 220.389 362.666 219.457 362.609 218.661C362.552 217.865 362.688 217.227 363.342 216.658C363.992 216.099 365.339 216.099 366.03 216.68C366.72 217.257 366.974 217.83 366.787 218.679ZM371.642 217.17C372.06 216.841 373.446 215.527 373.622 213.737C373.854 211.365 372.166 210.099 370.58 209.782C368.321 209.329 366.988 210.42 365.837 211.783C365.247 210.01 363.795 208.561 361.423 209.134C359.048 209.711 358.743 211.365 358.888 212.985C358.999 214.164 359.239 214.765 359.239 214.765C356.751 214.558 353.777 216.524 354.849 219.707C355.847 222.675 358.56 222.624 359.694 222.26C358.946 223.934 359.588 226.808 362.28 227.302C365.814 227.96 366.824 225.147 367.023 223.839C368.045 224.917 372.048 226.363 373.681 223.217C375.471 219.741 372.54 217.698 371.642 217.17Z" fill="#2F6164"/>
<path d="M306.974 235.376C306.974 237.832 304.984 239.821 302.528 239.821C300.074 239.821 298.085 237.832 298.085 235.376C298.085 232.922 300.074 230.932 302.528 230.932C304.984 230.932 306.974 232.922 306.974 235.376Z" fill="#E5B7B4"/>
<path d="M305.329 307.352C305.329 309.806 303.34 311.795 300.885 311.795C298.429 311.795 296.44 309.806 296.44 307.352C296.44 304.898 298.429 302.908 300.885 302.908C303.34 302.908 305.329 304.898 305.329 307.352Z" fill="#F3E5AB"/>
<path d="M146.889 87.4436C146.889 89.8998 144.9 91.8892 142.444 91.8892C139.989 91.8892 138 89.8998 138 87.4436C138 84.9894 139.989 83 142.444 83C144.9 83 146.889 84.9894 146.889 87.4436Z" fill="#E5B7B4"/>
<path d="M78.8891 110.444C78.8891 112.898 76.8998 114.887 74.4455 114.887C71.9894 114.887 70 112.898 70 110.444C70 107.989 71.9894 106 74.4455 106C76.8998 106 78.8891 107.989 78.8891 110.444Z" fill="#F3E5AB"/>
<path d="M299.339 71.7708C299.339 74.225 297.35 76.2144 294.896 76.2144C292.441 76.2144 290.45 74.225 290.45 71.7708C290.45 69.3165 292.441 67.3252 294.896 67.3252C297.35 67.3252 299.339 69.3165 299.339 71.7708Z" fill="#E6CAC1"/>
<path d="M373.919 312.299C373.848 312.299 373.777 312.291 373.706 312.278C373.147 312.161 372.788 311.614 372.907 311.054C372.979 310.702 372.903 310.363 372.67 310.016C372.198 309.309 371.152 308.697 370.066 308.494C369.574 308.401 369.06 308.344 368.516 308.283C366.96 308.108 365.353 307.929 363.992 306.902C361.989 305.398 361.526 302.802 361.118 300.513C360.706 298.202 360.352 296.209 358.737 295.494C358.215 295.262 357.98 294.651 358.211 294.129C358.441 293.607 359.054 293.373 359.574 293.603C362.194 294.765 362.704 297.625 363.153 300.15C363.527 302.25 363.88 304.235 365.233 305.252C366.145 305.937 367.409 306.079 368.747 306.229C369.304 306.292 369.879 306.357 370.446 306.463C372.091 306.77 373.602 307.692 374.388 308.866C374.929 309.676 375.117 310.578 374.929 311.478C374.827 311.964 374.398 312.299 373.919 312.299Z" fill="#E5B7B4"/>
<path d="M130.797 156.785C130.726 156.785 130.655 156.777 130.584 156.763C130.025 156.647 129.666 156.099 129.784 155.54C129.857 155.187 129.78 154.848 129.548 154.502C129.075 153.795 128.029 153.182 126.944 152.979C126.452 152.887 125.938 152.83 125.394 152.769C123.838 152.593 122.231 152.414 120.87 151.388C118.866 149.883 118.404 147.287 117.996 144.998C117.584 142.688 117.23 140.694 115.614 139.979C115.093 139.747 114.858 139.136 115.089 138.614C115.319 138.092 115.932 137.858 116.452 138.089C119.071 139.251 119.581 142.111 120.031 144.636C120.405 146.735 120.757 148.721 122.11 149.737C123.022 150.423 124.287 150.564 125.624 150.714C126.182 150.777 126.757 150.842 127.324 150.949C128.969 151.256 130.48 152.178 131.266 153.352C131.807 154.161 131.994 155.063 131.807 155.963C131.705 156.45 131.275 156.785 130.797 156.785Z" fill="#E5B7B4"/>
<path d="M221.224 284.484C220.881 284.484 220.544 284.313 220.349 284.001C219.802 283.133 219.682 282.122 220.001 281.074C220.452 279.599 221.762 278.197 223.337 277.501C224.135 277.149 224.964 276.912 225.764 276.684C226.985 276.333 228.139 276.002 229.028 275.315C230.552 274.133 231.297 271.937 231.305 268.602C231.307 268.167 231.301 267.728 231.293 267.287C231.259 264.838 231.226 262.307 232.359 260.005C232.924 258.854 233.727 257.885 234.504 256.948C235.455 255.8 236.355 254.714 236.7 253.438C236.849 252.886 237.415 252.559 237.968 252.711C238.518 252.859 238.845 253.426 238.695 253.978C238.232 255.687 237.145 256.999 236.095 258.268C235.362 259.15 234.671 259.985 234.212 260.917C233.298 262.774 233.33 264.953 233.361 267.259C233.367 267.71 233.373 268.161 233.371 268.606C233.361 272.623 232.355 275.351 230.294 276.948C229.091 277.882 227.688 278.281 226.333 278.669C225.565 278.89 224.84 279.097 224.171 279.392C223.154 279.841 222.252 280.781 221.978 281.679C221.835 282.146 221.874 282.546 222.097 282.898C222.402 283.381 222.256 284.019 221.773 284.324C221.602 284.431 221.411 284.484 221.224 284.484Z" fill="#FF5E58"/>
<path d="M155.568 299.853C150.641 299.853 145.969 299.473 142.36 296.642C139.156 294.129 137.64 290.322 136.175 286.638C135.943 286.055 135.712 285.476 135.475 284.905C133.371 279.819 130.705 276.885 127.554 276.181C126.997 276.057 126.646 275.504 126.77 274.948C126.894 274.391 127.445 274.038 128.003 274.165C131.851 275.021 135.008 278.37 137.385 284.115C137.625 284.694 137.86 285.283 138.095 285.874C139.459 289.301 140.87 292.847 143.636 295.016C146.994 297.649 151.723 297.828 156.681 297.781H156.691C157.257 297.781 157.719 298.236 157.724 298.803C157.729 299.374 157.271 299.841 156.7 299.847C156.321 299.851 155.944 299.853 155.568 299.853Z" fill="white"/>
<path d="M47.3575 29.3717C44.9194 29.7223 42.4679 33.4607 41.7508 35.4521C41.1311 33.9138 39.6968 32.7773 38.1985 32.1588C36.7476 31.558 34.4173 31.365 33.5459 33.0018C32.2871 35.3654 35.1459 38.6942 36.5843 40.0454C38.8676 42.1923 41.8246 43.2008 44.7663 44.2841C45.1611 44.4279 45.6054 44.5618 45.9913 44.3944C46.2263 44.2939 46.4022 44.0931 46.567 43.8961C47.8534 42.3676 48.7977 40.916 49.441 39.0605C50.2149 36.8269 52.7402 28.5996 47.3575 29.3717Z" fill="#BFA2DB"/>
<path d="M371.656 102.627C369.897 101.956 366.87 103.543 365.65 104.607C365.808 103.348 365.272 102.056 364.502 101.085C363.756 100.146 362.27 99.151 361.081 99.9192C359.361 101.032 360.033 104.317 360.492 105.755C361.221 108.038 362.822 109.811 364.384 111.627C364.595 111.871 364.841 112.125 365.162 112.157C365.355 112.176 365.548 112.107 365.731 112.039C367.159 111.495 368.329 110.876 369.448 109.874C370.795 108.67 375.54 104.111 371.656 102.627Z" fill="#69B0AC"/>
<path d="M237.895 355.317C237.389 355.317 236.881 355.077 236.572 354.595L231.37 346.503H214.263C211.009 346.503 208.374 343.866 208.374 340.612V322.895C208.374 319.641 211.009 317.003 214.263 317.003H279.459C282.713 317.003 285.349 319.641 285.349 322.895V340.612C285.349 343.866 282.713 346.503 279.459 346.503H244.614L239.203 354.618C238.892 355.085 238.394 355.317 237.895 355.317ZM224.387 334.561C223.688 334.561 223.121 335.128 223.121 335.827C223.121 336.527 223.688 337.094 224.387 337.094H269.337C270.036 337.094 270.602 336.527 270.602 335.827C270.602 335.128 270.036 334.561 269.337 334.561H224.387ZM224.387 326.694C223.688 326.694 223.121 327.261 223.121 327.961C223.121 328.66 223.688 329.227 224.387 329.227H251.356C252.055 329.227 252.623 328.66 252.623 327.961C252.623 327.261 252.055 326.694 251.356 326.694H224.387ZM258.098 326.414C257.399 326.414 256.832 326.98 256.832 327.679C256.832 328.38 257.399 328.945 258.098 328.945H269.337C270.036 328.945 270.602 328.38 270.602 327.679C270.602 326.98 270.036 326.414 269.337 326.414H258.098Z" fill="#F3E5AB"/>
<path d="M251.356 329.227H224.387C223.688 329.227 223.121 328.66 223.121 327.961C223.121 327.261 223.688 326.694 224.387 326.694H251.356C252.055 326.694 252.623 327.261 252.623 327.961C252.623 328.66 252.055 329.227 251.356 329.227Z" fill="#E5B7B4"/>
<path d="M269.337 328.945H258.098C257.399 328.945 256.832 328.38 256.832 327.679C256.832 326.98 257.399 326.414 258.098 326.414H269.337C270.036 326.414 270.602 326.98 270.602 327.679C270.602 328.38 270.036 328.945 269.337 328.945Z" fill="#E5B7B4"/>
<path d="M269.337 337.094H224.387C223.688 337.094 223.121 336.526 223.121 335.827C223.121 335.128 223.688 334.561 224.387 334.561H269.337C270.036 334.561 270.602 335.128 270.602 335.827C270.602 336.526 270.036 337.094 269.337 337.094Z" fill="#E5B7B4"/>
<path d="M179.831 56.6829V197.276C179.831 204.859 185.979 211.007 193.562 211.007H340.608C348.191 211.007 354.338 204.859 354.338 197.276V56.6829H179.831Z" fill="white"/>
<path d="M354.338 54.8633V50.2326C354.338 42.6493 348.191 36.502 340.608 36.502H193.562C185.979 36.502 179.831 42.6493 179.831 50.2326V54.8633H354.338Z" fill="white"/>
<path d="M196.191 45.6824C196.191 47.9436 194.358 49.7773 192.096 49.7773C189.835 49.7773 188.002 47.9436 188.002 45.6824C188.002 43.4212 189.835 41.5874 192.096 41.5874C194.358 41.5874 196.191 43.4212 196.191 45.6824Z" fill="#2F6164"/>
<path d="M210.749 45.6824C210.749 47.9436 208.915 49.7773 206.654 49.7773C204.393 49.7773 202.559 47.9436 202.559 45.6824C202.559 43.4212 204.393 41.5874 206.654 41.5874C208.915 41.5874 210.749 43.4212 210.749 45.6824Z" fill="#2F6164"/>
<path d="M225.305 45.6824C225.305 47.9436 223.473 49.7773 221.212 49.7773C218.951 49.7773 217.117 47.9436 217.117 45.6824C217.117 43.4212 218.951 41.5874 221.212 41.5874C223.473 41.5874 225.305 43.4212 225.305 45.6824Z" fill="#2F6164"/>
<path d="M308.073 64.0714C314.772 71.9462 326.59 72.0899 330.74 82.1274C340.09 104.753 317.718 125.669 295.768 124.922C285.833 124.586 274.157 121.956 265.035 117.962C254.316 113.266 245.098 104.446 244.429 92.2495C243.93 83.193 249.737 75.3635 249.501 66.3759C249.282 58.0718 245.695 50.2738 249.026 42.1273C256.503 23.8231 281.921 17.6245 296.225 31.816C301.078 36.6319 302.412 41.6526 303.078 48.1446C303.649 53.7109 304.301 59.6357 308.073 64.0714Z" fill="#60270D"/>
<path d="M170.822 155.7C169.527 155.517 168.242 155.305 166.935 155.05C165.68 154.806 164.39 153.76 165.079 152.313C164.304 151.82 163.978 151.259 164.005 150.272C164.03 149.329 164.464 148.515 165.18 147.918C164.758 147.81 164.419 147.276 164.294 146.857C163.909 145.57 164.38 144.205 165.772 143.772C165.535 143.845 165.425 142.687 165.437 142.563C165.478 142.163 165.678 141.745 165.85 141.387C166.235 140.575 166.939 139.965 167.85 139.817C168.464 139.717 169.089 139.829 169.701 139.943C173.368 140.619 177.296 140.979 180.879 142.003C182.376 142.433 182.21 142.173 182.66 143.508C182.925 144.292 182.832 145.48 182.88 146.305C183.061 149.433 183.004 152.015 183.692 155.108C183.716 155.216 183.738 155.338 183.679 155.433C183.622 155.523 183.508 155.559 183.404 155.586C182.406 155.85 181.405 156.116 180.382 156.262C178.096 156.591 175.789 156.309 173.512 156.045C172.604 155.939 171.711 155.827 170.822 155.7Z" fill="#FFAC8C"/>
<path d="M168.808 144.454C168.79 144.456 168.77 144.456 168.749 144.452L165.735 144.04C165.587 144.02 165.483 143.883 165.504 143.735C165.524 143.589 165.653 143.487 165.809 143.504L168.823 143.916C168.971 143.936 169.075 144.074 169.054 144.221C169.037 144.349 168.932 144.444 168.808 144.454Z" fill="#632A4D"/>
<path d="M167.56 148.379H167.516L165.157 148.186C165.008 148.175 164.898 148.045 164.91 147.895C164.922 147.747 165.049 147.639 165.202 147.647L167.561 147.84C167.709 147.852 167.82 147.982 167.808 148.131C167.797 148.265 167.691 148.368 167.56 148.379Z" fill="#632A4D"/>
<path d="M166.975 152.721H166.933L165.059 152.583C164.91 152.573 164.798 152.443 164.808 152.293C164.82 152.146 164.945 152.037 165.099 152.043L166.973 152.181C167.121 152.193 167.233 152.321 167.223 152.471C167.213 152.606 167.106 152.709 166.975 152.721Z" fill="#632A4D"/>
<path d="M178.534 137.578C179.132 137.121 179.951 137.127 180.704 137.137C189.847 137.241 198.801 134.767 207.61 132.315C217.287 129.619 227.196 126.816 235.319 120.901C240.302 117.273 244.419 112.604 248.855 108.322C253.972 103.378 259.552 98.9172 265.498 95.0094C268.979 92.7226 273.55 89.6243 277.32 92.5709C280.383 94.9621 281.092 99.2678 280.818 102.937C280.001 113.865 274.238 123.977 266.607 131.842C258.977 139.705 249.55 145.569 240.015 150.966C235.821 153.341 231.553 155.654 226.96 157.115C222.162 158.642 217.117 159.205 212.112 159.758C203.639 160.698 195.143 161.64 186.616 161.653C183.794 161.657 180.496 161.303 179.014 158.902C178.225 157.623 178.158 156.046 178.113 154.545C177.973 149.849 177.833 145.153 177.693 140.458C177.662 139.418 177.706 138.21 178.534 137.578Z" fill="#69B0AC"/>
<path d="M246.209 206.93C246.294 208.06 246.333 209.5 246.434 211.007H343.732C343.822 207.672 343.889 204.338 343.903 201.001C343.994 179.039 342.282 156.601 334.849 135.771C328.721 118.602 314.803 98.4794 296.794 91.5717C291.843 89.673 289.485 92.3754 284.429 92.3596C279.731 92.3458 274.699 91.751 270.033 92.2453C266.308 92.6393 264.112 96.2398 262.307 99.3244C255.394 111.146 250.824 124.258 248.782 137.792C246.53 152.697 245.591 167.847 245.872 182.917C246.022 190.928 245.609 198.923 246.209 206.93Z" fill="#69B0AC"/>
<path d="M247.618 146.955H247.586C247.334 146.937 247.145 146.719 247.163 146.469C248.876 121.562 261.783 99.3165 261.913 99.094C262.042 98.8773 262.321 98.8044 262.538 98.9305C262.757 99.0585 262.829 99.3382 262.701 99.5568C262.571 99.7774 249.772 121.846 248.075 146.53C248.057 146.772 247.856 146.955 247.618 146.955Z" fill="white" fill-opacity="0.1"/>
<path d="M291.388 76.3502L292.31 91.7038C292.31 91.7038 283.594 103.551 272.367 96.104C271.925 95.8106 271.695 95.2846 271.75 94.7568L273.539 77.4236L291.388 76.3502Z" fill="#FFAC8C"/>
<path d="M272.246 104.446C270.413 103.861 268.469 103.063 266.44 101.997C266.156 101.848 266.046 101.495 266.196 101.21C266.343 100.926 266.69 100.818 266.981 100.965C279.073 107.327 288.169 103.64 288.26 103.603C288.553 103.479 288.896 103.617 289.022 103.914C289.146 104.211 289.008 104.552 288.713 104.678C288.386 104.814 281.803 107.497 272.246 104.446Z" fill="#2F6164"/>
<path d="M273.538 77.4259L292.893 75.08L292.753 79.0823L272.327 89.1572L273.538 77.4259Z" fill="#FF5E58"/>
<path d="M277.752 83.506C273.696 83.4489 269.684 82.6452 266.036 80.8903C261.437 78.6764 257.641 74.7744 255.681 69.9586C253.523 64.6523 254.171 59.5075 255.039 54.0239C255.888 48.6625 258.197 42.2847 263.198 39.4326C271.711 34.5793 280.948 33.628 289.918 37.9356C293.436 39.6236 296.607 42.198 298.547 45.5839C302.516 52.5112 300.655 61.2507 298.632 68.4872C297.383 72.9564 295.709 77.3449 291.784 80.1142C287.706 82.988 282.623 83.575 277.752 83.506Z" fill="#FFAC8C"/>
<path d="M263.67 67.8116C262.544 67.6422 261.596 66.748 261.407 65.5977C261.234 64.5498 261.72 63.6103 262.191 62.7003C262.422 62.2591 262.638 61.8415 262.766 61.4338C262.833 61.225 263.052 61.1226 263.267 61.1718C263.475 61.2388 263.592 61.4633 263.527 61.6721C263.377 62.1448 263.133 62.6136 262.898 63.0666C262.469 63.8958 262.061 64.6798 262.191 65.4677C262.345 66.3993 263.2 67.0966 264.149 67.0434L264.147 67.0473C264.273 67.0395 264.586 67.0316 265.459 67.0079C265.683 66.9942 265.863 67.1754 265.867 67.396C265.875 67.6146 265.701 67.7978 265.481 67.8037C265.481 67.8037 264.267 67.8352 264.187 67.8391C264.011 67.847 263.838 67.8372 263.67 67.8116Z" fill="#FF5E58"/>
<path d="M272.626 56.5807C271.518 56.4507 270.511 57.2425 270.381 58.3514L270.379 58.3554C270.249 59.4663 271.043 60.4728 272.154 60.6028C273.265 60.7328 274.271 59.939 274.401 58.8281C274.531 57.7172 273.737 56.7127 272.626 56.5807Z" fill="#302725"/>
<path d="M257.874 57.5595C256.79 57.4295 255.807 58.2056 255.679 59.2889V59.2928C255.551 60.3781 256.327 61.361 257.413 61.489C258.498 61.6151 259.481 60.839 259.609 59.7557C259.735 58.6704 258.959 57.6856 257.874 57.5595Z" fill="#302725"/>
<path d="M263.802 73.2187C263.771 73.2147 263.741 73.2108 263.712 73.2049C263.454 73.1635 263.278 72.9193 263.322 72.6613C263.363 72.4032 263.601 72.2752 263.865 72.2713C263.891 72.2772 263.919 72.2811 263.944 72.2851C266.046 72.6042 268.199 71.8005 269.577 70.1755C269.747 69.9746 270.048 69.953 270.243 70.1224C270.444 70.2918 270.468 70.5892 270.298 70.7881C268.709 72.6613 266.227 73.587 263.802 73.2187Z" fill="#632A4D"/>
<path d="M286.934 51.7292C289.359 55.5898 289.958 60.2028 290.344 64.6542C290.834 70.2875 290.962 76.364 291.851 81.9322C292.747 87.5478 301.303 88.0343 305.628 87.0691C306.375 86.9017 307.125 86.687 307.771 86.2734C309.467 85.1842 309.31 83.5651 309.664 81.8554C310.196 79.2889 310.066 77.8018 309.01 75.3161C306.123 68.5148 304.096 61.3511 302.995 54.0456C302.233 48.9934 301.73 43.5492 299.02 39.082C295.808 33.7835 287.364 27.4471 281.323 25.8556C275.364 24.2858 267.667 24.2621 262.898 28.7136C261.732 29.8009 259.558 31.091 258.74 32.3575C257.383 34.4572 257.094 37.9868 256.895 40.3997C256.879 40.6045 256.869 40.833 256.995 40.9965C257.115 41.1521 257.324 41.2053 257.519 41.2388C260.326 41.7095 263.042 40.2008 265.833 40.5179C268.618 40.835 271.494 41.5657 274.157 42.4265C279.347 44.1066 283.988 47.0355 286.934 51.7292Z" fill="#60270D"/>
<path d="M299.495 63.2342C297.925 70.0414 287.344 73.5593 287.111 62.8482C286.954 55.584 296.194 50.5476 299.209 58.8655C299.763 60.394 299.808 61.8791 299.495 63.2342Z" fill="#FFAC8C"/>
<path d="M289.629 62.6746C289.611 62.6707 289.593 62.6667 289.574 62.6628C289.333 62.5958 289.191 62.3457 289.258 62.1034C289.936 59.6748 291.061 58.1109 292.603 57.457C294.581 56.6179 296.477 57.6244 296.556 57.6638C296.777 57.7839 296.859 58.0577 296.739 58.2783C296.621 58.4989 296.349 58.5816 296.125 58.4635C296.109 58.4556 294.519 57.6224 292.95 58.296C291.677 58.8397 290.732 60.2027 290.133 62.3476C290.072 62.5722 289.851 62.7081 289.629 62.6746Z" fill="#632A4D"/>
<path d="M268.713 49.8821C274.053 56.0333 282.954 58.072 291.045 57.1423C292.619 56.963 294.22 56.6695 295.583 55.8659C296.946 55.0603 298.041 53.65 298.083 52.0664C298.116 50.859 297.549 49.7166 296.891 48.7022C293.468 43.4255 287.503 40.4138 281.646 38.1211C277.823 36.6222 273.893 35.3163 269.839 34.6033C267.45 34.1818 261.709 32.8207 259.873 35.1036C258.002 37.4298 260.98 39.9943 262.414 41.4755C264.868 44.0085 266.41 47.2269 268.713 49.8821Z" fill="#60270D"/>
<path d="M287.06 85.5171C288.601 85.2374 291.459 83.1752 292.794 84.4692C293.184 84.8474 293.43 85.3438 293.708 85.8106C294.575 87.2721 295.51 88.6903 296.466 90.0966C297.007 90.8963 298.782 92.6079 298.817 93.5652C298.837 94.0852 298.477 94.5362 298.108 94.9046C296.98 96.0312 295.514 96.634 294.088 97.3194C292.217 98.2215 290.18 98.7356 288.132 99.033C283.962 99.6377 279.727 99.3619 275.538 99.2083C273.332 99.1295 271.147 98.7297 269.109 97.9241C268.246 97.5833 267.379 97.1382 266.828 96.4173C265.721 94.9656 266.221 92.9211 267.011 91.2902C268.183 88.8715 270.034 86.2617 272.359 84.7726C272.65 84.5835 273.017 84.5539 273.353 84.6564C277.608 85.9544 283.468 86.175 287.06 85.5171Z" fill="#69B0AC"/>
<path d="M290.732 85.6533C291.862 88.7989 293.182 91.8834 294.454 94.9778C294.6 95.3323 294.019 95.5746 293.82 95.2496C292.014 92.2832 290.964 89.1239 290.397 85.7498C290.361 85.543 290.657 85.4426 290.732 85.6533Z" fill="#2F6164"/>
<path d="M286.517 86.8941C287.513 90.081 288.699 93.2148 289.839 96.3544C289.969 96.7149 289.377 96.9335 289.193 96.6026C287.515 93.5693 286.601 90.3706 286.178 86.9788C286.152 86.77 286.452 86.6814 286.517 86.8941Z" fill="#2F6164"/>
<path d="M282.642 87.3567C283.089 90.6539 283.734 93.9275 284.332 97.2031C284.399 97.5773 283.779 97.7034 283.653 97.3489C282.506 94.0969 282.14 90.7997 282.292 87.3882C282.302 87.1794 282.611 87.1361 282.642 87.3567Z" fill="#2F6164"/>
<path d="M279.233 87.5539C278.993 90.7113 278.949 93.8883 278.861 97.0556C278.851 97.418 278.222 97.4062 278.173 97.0497C277.726 93.7879 278.045 90.6482 278.888 87.5086C278.941 87.3175 279.249 87.3431 279.233 87.5539Z" fill="#2F6164"/>
<path d="M276.123 86.9944C275.197 90.0336 274.46 93.1319 273.68 96.2124C273.59 96.567 272.979 96.4291 273.011 96.0706C273.286 92.7931 274.283 89.7854 275.796 86.8821C275.888 86.7048 276.186 86.7915 276.123 86.9944Z" fill="#2F6164"/>
<path d="M273.125 86.0528C271.537 88.834 270.121 91.7097 268.666 94.5598C268.498 94.8848 267.933 94.6268 268.043 94.2821C269.05 91.1365 270.7 88.4026 272.831 85.8775C272.961 85.7239 273.231 85.8677 273.125 86.0528Z" fill="#2F6164"/>
<path d="M297.899 95.0168C295.628 96.4409 293.143 97.4651 290.57 98.2018C289.924 98.3653 289.282 98.5642 288.626 98.7001L286.655 99.0862C285.991 99.1748 285.327 99.2595 284.661 99.3383C283.995 99.4269 283.324 99.425 282.654 99.4742C282.319 99.488 281.984 99.5136 281.65 99.5215L280.643 99.4919C279.973 99.4604 279.302 99.4801 278.636 99.4053L276.637 99.1709L276.138 99.1118L275.646 99.0113L274.663 98.8045L273.682 98.5938L273.192 98.4874L272.711 98.3416L270.803 97.735C270.16 97.5518 269.56 97.2504 268.947 96.9924C268.335 96.7304 267.728 96.4606 267.127 96.1809C267.043 96.1415 267.007 96.0411 267.044 95.9583C267.08 95.8815 267.167 95.8441 267.245 95.8658L267.259 95.8717C267.893 96.0568 268.522 96.2498 269.144 96.4508C269.77 96.6438 270.383 96.8723 271.029 96.9924C272.302 97.2879 273.558 97.6286 274.852 97.7901C277.413 98.2451 280.019 98.3613 282.607 98.2727C283.253 98.2333 283.905 98.2412 284.549 98.1604C285.193 98.0836 285.837 98.0147 286.483 97.9477L288.406 97.6267C289.044 97.5104 289.676 97.3548 290.314 97.2209C292.839 96.6162 295.347 95.8027 297.7 94.684L297.714 94.678C297.809 94.6327 297.925 94.6741 297.97 94.7706C298.014 94.8593 297.98 94.9656 297.899 95.0168Z" fill="#2F6164"/>
<path d="M15.1492 212.583V353.176C15.1492 360.759 21.2967 366.909 28.8802 366.909H175.925C183.509 366.909 189.656 360.759 189.656 353.176V212.583H15.1492Z" fill="white"/>
<path d="M189.656 210.765V206.132C189.656 198.549 183.509 192.402 175.925 192.402H28.8802C21.2967 192.402 15.1492 198.549 15.1492 206.132V210.765H189.656Z" fill="white"/>
<path d="M31.5091 201.582C31.5091 203.843 29.676 205.677 27.4148 205.677C25.1536 205.677 23.3204 203.843 23.3204 201.582C23.3204 199.321 25.1536 197.487 27.4148 197.487C29.676 197.487 31.5091 199.321 31.5091 201.582Z" fill="#2F6164"/>
<path d="M46.0666 201.582C46.0666 203.843 44.2334 205.677 41.9722 205.677C39.711 205.677 37.8779 203.843 37.8779 201.582C37.8779 199.321 39.711 197.487 41.9722 197.487C44.2334 197.487 46.0666 199.321 46.0666 201.582Z" fill="#2F6164"/>
<path d="M60.624 201.582C60.624 203.843 58.791 205.677 56.5298 205.677C54.2685 205.677 52.4355 203.843 52.4355 201.582C52.4355 199.321 54.2685 197.487 56.5298 197.487C58.791 197.487 60.624 199.321 60.624 201.582Z" fill="#2F6164"/>
<path d="M217.131 239.796C217.755 238.191 218.34 236.579 218.892 234.913C219.42 233.316 219.051 231.159 216.946 231.017C216.879 229.81 216.445 229.073 215.295 228.468C214.196 227.887 212.981 227.862 211.833 228.299C211.982 227.744 211.586 227.011 211.186 226.597C209.959 225.327 208.086 224.986 206.692 226.306C206.93 226.081 205.669 225.207 205.52 225.142C205.035 224.931 204.427 224.891 203.903 224.856C202.723 224.777 201.569 225.189 200.81 226.14C200.3 226.78 200.026 227.572 199.76 228.346C198.173 232.993 196.053 237.736 194.921 242.51C194.446 244.507 194.255 244.149 195.496 245.526C196.227 246.335 197.651 246.995 198.567 247.582C202.041 249.808 205.045 251.407 208.151 254.19C208.261 254.289 208.388 254.393 208.533 254.385C208.675 254.379 208.787 254.271 208.886 254.169C209.833 253.194 210.783 252.215 211.61 251.135C213.461 248.723 214.627 245.892 215.792 243.107C216.256 241.996 216.704 240.897 217.131 239.796Z" fill="#FFAC8C"/>
<path d="M205.222 230.389C205.177 230.389 205.134 230.381 205.09 230.363C204.907 230.292 204.819 230.085 204.891 229.902L206.361 226.174C206.432 225.99 206.64 225.902 206.822 225.975C207.005 226.046 207.095 226.252 207.023 226.436L205.553 230.162C205.498 230.304 205.364 230.389 205.222 230.389Z" fill="#632A4D"/>
<path d="M210.533 231.486C210.483 231.486 210.432 231.476 210.385 231.454C210.206 231.372 210.127 231.161 210.21 230.982L211.51 228.149C211.59 227.972 211.801 227.891 211.982 227.974C212.161 228.057 212.238 228.267 212.158 228.447L210.856 231.279C210.796 231.409 210.666 231.486 210.533 231.486Z" fill="#632A4D"/>
<path d="M215.894 233.613C215.843 233.613 215.792 233.603 215.742 233.579C215.565 233.495 215.488 233.284 215.571 233.105L216.623 230.865C216.705 230.688 216.918 230.611 217.097 230.694C217.275 230.778 217.352 230.989 217.269 231.168L216.217 233.408C216.156 233.536 216.028 233.613 215.894 233.613Z" fill="#632A4D"/>
<path d="M118.734 306.25C134.599 308.681 151.693 307.121 166.667 301.238C182.976 294.832 197.344 278.842 207.119 264.655C208.894 262.081 212.307 257.278 212.014 253.954C211.764 251.082 205.886 249.27 203.383 247.901C199.485 245.766 195.585 243.633 191.687 241.497C192.546 241.968 169.115 259.859 166.437 261.113C156.793 265.626 147.1 266.727 136.551 265.415C125.281 264.013 113.926 263.554 102.574 262.882C96.7961 262.541 92.2478 263.505 88.4331 268.094C84.8239 272.435 82.5083 278.025 82.8512 283.66C83.2787 290.688 90.3642 294.753 95.6976 298.212C101.896 302.232 109.931 304.901 118.734 306.25Z" fill="#2F6164"/>
<path d="M40.0642 366.909H123.897C124.07 364.89 124.114 358.386 124.144 356.363C124.271 347.807 124.223 339.247 124.001 330.69C123.674 318.09 122.958 305.423 120.133 293.139C118.289 285.12 115.433 277.097 110.031 270.891C104.66 264.72 96.8879 260.698 88.7488 259.875C76.5126 258.64 66.3802 264.192 59.3815 273.887C52.4219 283.526 47.3439 294.624 44.8262 306.16C40.8956 324.171 39.6736 343.216 39.9972 362.115C39.999 362.225 40.0413 366.798 40.0642 366.909Z" fill="#2F6164"/>
<path d="M215.232 166.658C215.232 166.658 197.119 122.886 168.952 133.085C140.786 143.284 165.803 224.092 238.455 245.37C238.455 245.37 290.905 148.842 247.529 118.058C237.876 111.208 224.712 114.456 219.772 125.216C216.115 133.177 213.694 146.004 215.232 166.658Z" fill="#BFA2DB"/>
<path d="M82.8175 245.614L83.3704 260.139C83.3704 260.139 91.0167 270.468 100.806 263.932C101.192 263.674 101.391 263.215 101.343 262.753L99.7357 247.614L82.8175 245.614Z" fill="#FFAC8C"/>
<path d="M99.7357 247.614L82.8175 245.614L82.9507 249.111L100.824 257.862L99.7357 247.614Z" fill="#FF5E58"/>
<path d="M96.0689 252.937C99.6125 252.878 103.116 252.165 106.299 250.623C110.312 248.675 113.619 245.257 115.318 241.044C117.191 236.402 116.611 231.909 115.839 227.121C115.083 222.437 113.05 216.869 108.673 214.391C101.221 210.172 93.1483 209.364 85.3214 213.15C82.2514 214.635 79.4878 216.892 77.8012 219.857C74.3513 225.919 75.9997 233.55 77.7856 239.868C78.8882 243.77 80.3637 247.601 83.8008 250.01C87.3698 252.51 91.8132 253.01 96.0689 252.937Z" fill="#FFAC8C"/>
<path d="M90.9759 227.954C91.6413 226.989 92.2369 225.959 92.6488 224.907C92.8335 224.436 93.8426 219.705 94.0059 219.764C95.49 220.306 96.9492 222.02 98.4431 222.874C104.289 226.215 111.141 226.991 117.693 225.805C122.499 224.937 125.721 222.569 127.124 217.728C128.196 214.027 126.944 210.552 123.286 209.085C122.883 208.923 118.377 207.885 118.344 208.425C118.494 205.951 117.079 203.528 115.025 202.142C111.825 199.981 107.839 200.511 104.24 201.043C99.8962 201.685 96.7085 201.444 92.388 200.712C85.9227 199.613 78.4129 200.873 74.5215 206.152C68.4618 214.373 70.9042 225.055 74.6253 233.702C75.7734 236.371 77.6991 236.282 80.1774 235.788C83.9972 235.027 87.2765 232.632 89.6988 229.648C90.1329 229.114 90.5676 228.545 90.9759 227.954Z" fill="#302725"/>
<path d="M71.2459 239.766C73.8963 245.545 83.9761 246.737 82.2152 237.145C81.0208 230.641 71.8581 227.848 70.6985 235.817C70.4852 237.283 70.7184 238.616 71.2459 239.766Z" fill="#FFAC8C"/>
<path d="M107.986 239.215C107.952 239.215 107.917 239.215 107.883 239.213C107.819 239.211 106.752 239.187 106.751 239.187C106.56 239.183 106.408 239.024 106.412 238.831C106.416 238.642 106.571 238.492 106.759 238.492H106.767C107.572 238.51 107.823 238.516 107.913 238.52V238.518C108.735 238.557 109.487 237.95 109.619 237.137C109.731 236.447 109.373 235.764 108.995 235.041C108.788 234.647 108.575 234.237 108.443 233.824C108.385 233.641 108.486 233.446 108.669 233.389C108.852 233.329 109.047 233.43 109.105 233.613C109.219 233.97 109.409 234.334 109.611 234.718C110.025 235.512 110.454 236.331 110.305 237.249C110.123 238.37 109.116 239.215 107.986 239.215Z" fill="#FF5E58"/>
<path d="M102.446 230.94C102.328 229.971 101.448 229.282 100.479 229.398L100.478 229.4C99.508 229.516 98.8166 230.397 98.9334 231.368C99.0506 232.337 99.9317 233.028 100.902 232.912C101.872 232.794 102.563 231.913 102.446 230.944L102.446 230.94Z" fill="#302725"/>
<path d="M115.294 231.724L115.293 231.72C115.178 230.775 114.318 230.101 113.372 230.215H113.371C112.423 230.33 111.747 231.19 111.861 232.138C111.976 233.087 112.837 233.761 113.785 233.647C114.732 233.532 115.408 232.672 115.294 231.724Z" fill="#302725"/>
<path d="M107.294 243.987C105.49 243.987 103.737 243.197 102.549 241.807C102.401 241.634 102.421 241.372 102.595 241.224C102.769 241.076 103.029 241.096 103.178 241.269C104.401 242.701 106.314 243.396 108.174 243.087C108.401 243.048 108.612 243.201 108.65 243.426C108.688 243.65 108.536 243.863 108.311 243.901C107.972 243.958 107.632 243.987 107.294 243.987Z" fill="#632A4D"/>
<path d="M176.997 369.213C178.69 368.898 180.369 368.549 182.075 368.142C183.712 367.748 185.351 366.3 184.363 364.435C185.355 363.743 185.752 362.987 185.662 361.691C185.576 360.45 184.959 359.404 183.984 358.658C184.533 358.492 184.949 357.769 185.09 357.214C185.525 355.5 184.828 353.728 182.972 353.237C183.289 353.32 183.369 351.788 183.345 351.626C183.27 351.104 182.982 350.566 182.737 350.103C182.184 349.058 181.224 348.293 180.017 348.15C179.204 348.051 178.387 348.236 177.588 348.419C172.802 349.515 167.654 350.208 162.998 351.758C161.051 352.406 161.255 352.055 160.738 353.834C160.433 354.882 160.622 356.44 160.605 357.529C160.543 361.654 160.762 365.049 160.031 369.156C160.005 369.3 159.983 369.461 160.066 369.584C160.147 369.7 160.298 369.737 160.436 369.769C161.764 370.06 163.097 370.354 164.45 370.49C167.476 370.793 170.497 370.293 173.477 369.818C174.666 369.629 175.835 369.43 176.997 369.213Z" fill="#FFAC8C"/>
<path d="M68.701 320.529C74.9843 335.297 85.3089 349.01 98.1922 358.648C112.224 369.142 133.382 372.942 150.59 373.787C153.714 373.94 159.593 374.313 162.266 372.315C164.575 370.59 163.022 364.64 162.87 361.789C162.632 357.352 162.394 352.914 162.157 348.474C162.209 349.451 134.664 338.949 132.188 337.33C123.274 331.506 117.236 323.844 112.799 314.184C108.059 303.863 102.473 293.968 97.0691 283.962C94.3178 278.87 91.1051 275.51 85.1951 274.681C79.6038 273.899 73.6315 274.872 69.0201 278.129C63.27 282.193 63.5434 290.355 63.4097 296.711C63.2545 304.098 65.2141 312.333 68.701 320.529Z" fill="#2F6164"/>
<path d="M118.359 368.891C118.318 368.891 118.276 368.885 118.234 368.875C99.4158 364.112 85.5426 348.518 85.4047 348.361C70.8071 332.168 65.4431 315.835 63.5143 304.986C61.4216 293.214 62.8118 285.148 62.8261 285.067C62.8754 284.791 63.1377 284.606 63.4163 284.656C63.6928 284.705 63.8774 284.971 63.8283 285.246C63.8143 285.325 62.4543 293.251 64.5252 304.856C66.4356 315.562 71.7403 331.683 86.165 347.683C86.3052 347.843 99.9783 363.204 118.484 367.888C118.756 367.957 118.921 368.233 118.852 368.507C118.794 368.735 118.587 368.891 118.359 368.891Z" fill="#386A6D"/>
<path d="M125.992 333.432C125.867 333.432 125.741 333.387 125.643 333.292C125.602 333.255 121.51 329.39 118.033 325.057C115.667 322.11 109.786 310.456 104.597 300.172C102.057 295.138 99.6577 290.385 98.0114 287.334C93.1975 278.417 89.3785 276.774 89.3405 276.759C89.0803 276.652 88.9556 276.355 89.062 276.095C89.1682 275.835 89.4656 275.711 89.7258 275.817C89.8948 275.886 93.922 277.616 98.9072 286.851C100.56 289.912 102.962 294.673 105.505 299.713C110.672 309.952 116.528 321.557 118.827 324.421C122.258 328.697 126.3 332.514 126.341 332.552C126.545 332.745 126.555 333.066 126.363 333.271C126.263 333.377 126.127 333.432 125.992 333.432Z" fill="#386A6D"/>
<path d="M79.7974 237.479C79.6475 237.479 79.503 237.397 79.4295 237.255C78.5024 235.453 77.4076 234.411 76.1754 234.161C74.6485 233.849 73.3862 234.881 73.3737 234.893C73.1988 235.039 72.9381 235.015 72.7919 234.842C72.6458 234.667 72.6678 234.407 72.8421 234.261C72.9054 234.208 74.4074 232.963 76.3296 233.347C77.8242 233.647 79.1146 234.834 80.1646 236.877C80.2692 237.08 80.1892 237.328 79.9861 237.432C79.9257 237.464 79.8613 237.479 79.7974 237.479Z" fill="#632A4D"/>
<path d="M197.619 221.846C197.854 221.084 198.179 220.351 198.614 219.66C199.378 218.447 200.546 217.381 201.966 217.194C205.352 216.743 205.496 220.668 205.025 222.961C204.716 224.466 204.19 225.925 203.981 227.446C203.725 229.305 203.968 231.313 203.337 233.107C202.943 234.222 201.515 235.931 200.125 235.327C199.071 234.868 198.445 232.165 198.132 231.163C197.194 228.159 196.719 224.787 197.619 221.846Z" fill="#FFAC8C"/>
<path d="M213.274 239.432C213.152 239.432 213.034 239.369 212.967 239.256C211.269 236.363 208.677 233.95 205.671 232.463C205.496 232.376 205.423 232.162 205.512 231.986C205.599 231.809 205.811 231.738 205.989 231.825C209.116 233.373 211.813 235.884 213.582 238.896C213.68 239.065 213.625 239.284 213.456 239.382C213.398 239.416 213.335 239.432 213.274 239.432Z" fill="#632A4D"/>
<path d="M226.434 224.919C224.643 225.009 222.861 225.061 221.035 225.059C219.284 225.057 217.277 223.987 217.824 221.862C216.654 221.401 216.069 220.731 215.849 219.396C215.636 218.121 216.008 216.914 216.814 215.923C216.219 215.888 215.624 215.257 215.346 214.728C214.494 213.099 214.771 211.139 216.53 210.191C216.231 210.353 215.78 208.823 215.764 208.653C215.715 208.106 215.876 207.493 216.012 206.963C216.319 205.773 217.105 204.767 218.293 204.332C219.093 204.036 219.963 204.024 220.816 204.017C225.924 203.971 231.301 203.43 236.386 203.875C238.514 204.06 238.222 203.755 239.176 205.431C239.737 206.418 239.922 208.041 240.2 209.138C241.259 213.296 241.856 216.786 243.588 220.765C243.649 220.904 243.71 221.064 243.655 221.206C243.601 221.344 243.46 221.419 243.326 221.484C242.053 222.098 240.775 222.717 239.438 223.181C236.45 224.217 233.272 224.442 230.141 224.68C228.892 224.777 227.661 224.858 226.434 224.919Z" fill="#FFAC8C"/>
<path d="M220.791 210.318C220.767 210.325 220.739 210.329 220.712 210.331L216.55 210.564C216.345 210.576 216.17 210.418 216.16 210.213C216.148 210.01 216.296 209.839 216.509 209.823L220.67 209.591C220.875 209.579 221.051 209.737 221.06 209.941C221.072 210.117 220.956 210.272 220.791 210.318Z" fill="#632A4D"/>
<path d="M220.137 215.921C220.117 215.927 220.097 215.931 220.078 215.933L216.855 216.289C216.65 216.313 216.469 216.167 216.445 215.963C216.424 215.76 216.566 215.58 216.772 215.553L219.997 215.196C220.2 215.173 220.383 215.32 220.405 215.525C220.424 215.706 220.31 215.874 220.137 215.921Z" fill="#632A4D"/>
<path d="M220.481 221.913C220.464 221.919 220.446 221.923 220.424 221.925L217.868 222.229C217.667 222.254 217.482 222.108 217.456 221.906C217.434 221.703 217.574 221.525 217.781 221.494L220.338 221.189C220.54 221.165 220.726 221.311 220.749 221.514C220.771 221.697 220.655 221.866 220.481 221.913Z" fill="#632A4D"/>
<path d="M324.275 149.514C321.482 165.976 314.342 182.344 303.631 195.204C291.965 209.213 271.47 218.165 254.259 223.174C251.135 224.082 245.276 225.878 242.089 224.503C239.335 223.314 239.471 216.918 238.937 213.997L236.91 202.894C236.658 201.509 237.306 200.123 238.524 199.416C244.653 195.856 262.331 183.69 264.082 181.84C271.699 173.794 275.959 164.582 278.118 153.735C280.425 142.147 283.688 130.784 286.741 119.356C288.297 113.538 290.738 109.362 296.519 107.097C301.987 104.954 308.266 104.499 313.718 106.683C320.519 109.405 322.211 117.733 323.881 124.133C325.822 131.57 325.826 140.379 324.275 149.514Z" fill="#69B0AC"/>
<path d="M285.618 211.129C285.384 211.198 285.124 211.098 285.004 210.873C284.864 210.615 284.961 210.294 285.219 210.156C302.699 200.734 312.595 181.766 312.694 181.574C323.186 161.762 324.447 144.151 323.657 132.864C322.798 120.629 319.414 112.981 319.381 112.904C319.26 112.636 319.381 112.323 319.647 112.203C319.914 112.08 320.226 112.203 320.348 112.468C320.486 112.778 333.962 143.682 313.631 182.063C313.535 182.252 303.497 201.506 285.721 211.088C285.687 211.106 285.654 211.12 285.618 211.129Z" fill="white" fill-opacity="0.1"/>
<path d="M246.861 194.561C246.715 194.561 246.572 194.492 246.483 194.362C246.341 194.153 246.396 193.869 246.603 193.727C247.85 192.876 249.044 192.069 250.19 191.295C266.842 180.046 273.074 175.839 279.623 145.342C286.637 112.703 292.483 109.193 292.727 109.059C292.95 108.939 293.227 109.022 293.347 109.244C293.468 109.463 293.387 109.737 293.172 109.859C293.072 109.922 287.344 113.765 280.517 145.535C273.889 176.39 267.102 180.974 250.702 192.053C249.558 192.825 248.364 193.633 247.119 194.482C247.04 194.535 246.95 194.561 246.861 194.561Z" fill="white" fill-opacity="0.1"/>
<path d="M141.224 45.375C134.738 45.375 128.479 43.1414 123.546 37.3762C118.054 30.957 117.166 21.9654 122.004 14.8923C126.507 8.30968 134.612 2.71381 142.34 0.785503C144.444 0.26157 146.644 -0.000366211 148.855 -0.000366211C158.223 -0.000366211 167.779 4.70321 170.872 14.0355C172.403 18.6583 170.861 23.2733 170.312 27.9316C170.258 28.3826 170.24 28.8159 170.273 29.2256C170.332 29.9229 170.664 30.5611 170.99 31.1776C172.661 34.3369 174.331 37.4963 176.002 40.6557C172.926 39.4266 169.851 38.1995 166.775 36.9704C166.495 36.8581 166.203 36.7439 165.904 36.7439C165.872 36.7439 165.84 36.7459 165.808 36.7498C165.441 36.7793 165.119 36.9921 164.815 37.1989C158.089 41.7607 149.472 45.375 141.224 45.375ZM133.564 13.161C131.815 13.161 130.145 13.7322 129.219 15.3158C126.752 19.5368 131.724 25.8161 134.25 28.3846C138.258 32.4638 143.578 34.5162 148.865 36.7045C149.367 36.9113 149.915 37.1122 150.446 37.1122C150.665 37.1122 150.881 37.0768 151.09 36.996C151.526 36.8266 151.861 36.476 152.176 36.1293C154.633 33.4329 156.46 30.8565 157.767 27.5179C159.288 23.6337 164.2 9.64708 155.601 9.64708C155.306 9.64708 154.996 9.66282 154.669 9.69828C150.197 10.1592 145.456 16.8029 144.004 20.3798C142.985 17.5317 140.452 15.3552 137.764 14.1163C136.573 13.5667 135.04 13.161 133.564 13.161Z" fill="#2F6164"/>
<path d="M150.446 37.1123C149.915 37.1123 149.367 36.9114 148.865 36.7046C143.578 34.5163 138.258 32.4639 134.25 28.3847C131.724 25.8162 126.752 19.5369 129.219 15.3159C130.145 13.7323 131.815 13.1611 133.564 13.1611C135.04 13.1611 136.573 13.5668 137.764 14.1164C140.452 15.3553 142.985 17.5318 144.004 20.3799C145.456 16.803 150.197 10.1593 154.669 9.69837C154.996 9.66291 155.306 9.64716 155.601 9.64716C164.2 9.64716 159.288 23.6338 157.767 27.518C156.46 30.8566 154.633 33.4329 152.176 36.1294C151.861 36.4761 151.526 36.8267 151.09 36.9961C150.881 37.0768 150.665 37.1123 150.446 37.1123Z" fill="#69B0AC"/>
</svg>
