<svg width="375" height="448" viewBox="0 0 375 448" fill="none" xmlns="http://www.w3.org/2000/svg">
<g opacity="0.05">
<path d="M337.427 191.813C179.664 238.767 144.918 361.628 147.266 417.189L184.829 447.709C293.761 383.853 393.336 278.677 417.248 219.985C434.252 178.249 434.398 161.215 431.299 156.058C430.348 154.474 428.221 155.17 426.663 156.164C414.787 163.741 363.752 182.564 337.427 191.813Z" stroke="#69B0AC" stroke-width="4.69533"/>
<path d="M262.494 304.501C283.795 279.651 347.314 247.252 381.309 231.878C384.991 230.213 389.663 227.764 389.103 223.762C388.949 222.661 388.308 221.853 387.426 221.273C384.431 219.304 380.511 220.664 377.193 222.02C323.921 243.794 292.731 264.044 283.623 271.634C283.623 260.544 291.419 246.448 297.146 238.081C298.992 235.384 301.33 232.188 300.007 229.2C299.797 228.726 299.517 228.335 299.185 228.015C296.123 225.059 291.321 228.543 288.832 231.994C278.486 246.345 273.274 269.912 271.885 281.025L250.756 297.458C249.077 290.741 251.026 277.269 252.576 269.456C252.91 267.776 253.225 266.048 252.868 264.373C252.561 262.928 251.977 262.047 251.257 261.559C248.238 259.517 244.991 263.848 243.776 267.284C239.221 280.16 241.648 296.931 243.713 304.501L222.584 327.978C221.001 321.647 223.753 307.091 226.063 297.517C226.818 294.389 227.703 289.958 224.705 288.789C223.627 288.369 222.409 288.751 221.254 289.497C218.628 291.191 217.269 294.232 216.46 297.25C212.584 311.71 214.127 329.589 215.541 337.369C196.76 356.15 184.239 390.582 180.326 405.451C179.593 409.115 180.266 411.468 181.592 412.93C185.177 416.882 190.556 411.572 192.359 406.551C199.218 387.447 211.757 365.689 217.889 356.15C253.965 364.74 282.316 355.651 294.675 348.648C296.736 347.48 298.925 345.825 299 343.458C299.034 342.356 298.531 341.553 297.761 340.98C295.14 339.028 291.541 340.617 288.602 342.047C263.438 354.29 236.018 350.455 224.932 346.759C226.81 339.247 244.496 321.718 253.104 313.892C285.154 320.639 317.078 310.216 332.887 302.353C336.061 300.775 340.435 297.726 338.431 294.802C338.215 294.486 337.934 294.214 337.609 293.981C334.976 292.096 331.399 293.46 328.388 294.653C299.955 305.921 272.898 305.988 262.494 304.501Z" fill="url(#paint0_linear_4_43)"/>
<path d="M104.539 391.365C97.0267 350.046 137.407 292.763 158.536 269.286C124.389 226.945 86.2691 209.237 54.3472 199.52C17.7897 188.392 -20.0147 179.292 -55.2724 164.555C-56.6307 163.987 -57.7807 164.919 -58.0806 166.36C-73.3138 239.562 43.4777 346.535 104.539 391.365Z" stroke="#69B0AC" stroke-width="5.35"/>
<path d="M118.184 323.751L125.227 312.012L106.446 293.231C104.972 265.227 100.51 250.814 97.1447 244.772C95.8464 242.441 91.478 240.401 89.0787 241.569C84.8867 243.609 89.4575 248.061 91.0723 252.434C94.5273 261.791 96.4488 277.7 97.055 286.188C91.4206 280.554 77.4912 272.884 71.2307 269.754C66.4011 252.046 53.1768 236.522 44.5692 228.506C42.0986 226.205 38.8769 223.929 35.6481 224.915C35.4931 224.962 35.3477 225.016 35.2113 225.076C31.8733 226.539 35.0331 231.164 37.4984 233.848C47.2818 244.501 56.0268 257.167 59.4924 262.712C51.9798 258.955 21.9297 245.495 7.84371 239.235C0.775265 236.205 -3.89534 235.302 -6.82487 235.358C-9.8523 235.416 -13.2373 238.101 -12.3279 240.989C-11.1716 244.661 -3.8479 247.463 0.800699 248.625C43.0587 262.711 93.9248 298.709 113.489 316.708C92.8292 320.464 61.0575 312.012 47.754 307.317C41.7683 304.923 39.28 306.217 38.4652 308.28C37.5722 310.542 39.5065 312.754 41.622 313.952C70.9491 330.568 104.604 327.523 118.184 323.751Z" fill="url(#paint1_linear_4_43)"/>
<path d="M340.249 4.21598C180.247 10.7601 161.403 164.177 173.696 245.165C225.345 195.863 270.733 181.778 312.208 170.039C398.603 155.014 454.633 71.4374 471.85 31.5271C458.63 28.744 439.534 24.0742 422.399 19.4151C399.186 13.1036 364.284 3.23293 340.249 4.21598Z" stroke="#69B0AC" stroke-width="5.35"/>
<path d="M321.599 90.2187C339.598 91.7838 384.517 92.5663 420.201 83.1757" stroke="#69B0AC" stroke-width="7.043" stroke-linecap="round"/>
<path d="M231.673 140.165C241.846 145.643 270.644 154.251 304.451 144.86" stroke="#69B0AC" stroke-width="7.043" stroke-linecap="round"/>
<path d="M314.556 62.0462C334.112 51.3793 377.649 48.2853 400.165 47.9852C402.554 47.9534 405.026 48.2449 406.982 49.6173C410.148 51.8387 409.025 54.0263 406.928 55.6117C405.023 57.0529 402.526 57.3424 400.137 57.3781C332.528 58.3873 283.749 87.3483 267.603 101.957C274.99 111.191 346.541 113.615 383.153 113.693C384.39 113.696 385.614 113.783 386.797 114.145C391.479 115.578 391.45 118.103 390.049 120.274C388.656 122.433 385.979 123.229 383.42 123.451C328.611 128.207 278.905 117.462 260.56 111.347C244.781 121.866 225.048 156.387 215.49 175.574C214.229 178.106 212.54 180.505 210.048 181.844C205.625 184.221 203.421 182.677 202.473 180.388C201.615 178.316 202.174 175.985 202.87 173.853C212.883 143.155 235.888 114.89 246.474 104.304C239.33 82.8722 240.791 68.2336 243.622 60.3888C245.001 56.5655 248.878 51.4816 252.138 53.9098C252.553 54.2191 252.857 54.6476 253.072 55.125C253.695 56.5051 253.255 58.0808 252.845 59.5381C248.298 75.6803 252.869 91.2711 255.864 97.2613C276.524 80.3581 294.21 71.437 300.47 69.0893C305.576 52.0698 323.92 35.0503 334.887 26.7659C336.933 25.2204 339.339 23.9813 341.899 24.1343C344.15 24.2688 345.295 25.1685 345.764 26.3583C347.013 29.5198 343.362 32.1029 340.561 34.0846L340.436 34.1729C331.341 40.6101 319.86 54.7539 314.556 62.0462Z" fill="url(#paint2_linear_4_43)"/>
<path d="M144.81 197.214C142.932 155.895 161.243 104.872 170.634 84.5258C141.631 24.9934 76.5456 6.91955 31.3416 4.33915C13.2854 3.30844 -4.37438 9.08181 -21.6836 14.3238C-45.9223 21.6644 -78.73 29.1157 -97 32.8771C-85.1441 86.8872 -34.0967 125.575 11.2635 148.454C44.19 165.062 81.3095 171.38 115.633 184.866C127.129 189.383 137.69 193.951 144.81 197.214Z" stroke="#69B0AC" stroke-width="7.043" stroke-linecap="round"/>
<path d="M-45.3514 83.8209C-38.6285 85.386 -0.745716 90.8639 50.9029 88.5163" stroke="#69B0AC" stroke-width="7.043" stroke-linecap="round"/>
<path d="M57.9458 144.86C69.6842 147.99 96.9171 152.842 111.942 147.208" stroke="#4E8086" stroke-width="7.043" stroke-linecap="round"/>
<path d="M145.573 149.922L150.268 135.836C150.268 133.958 134.617 114.707 126.791 105.317C138.06 73.3884 133.052 59.1459 129.139 56.0156C125.956 53.8936 124.122 54.6687 123.128 56.3092C121.559 58.8992 122.694 62.164 123.092 65.1657C124.576 76.3647 120.146 91.4112 117.401 98.2736C110.358 88.883 87.6637 74.0144 75.1428 67.754C69.7795 48.0885 48.3914 31.1175 36.8964 24.1303C35.7947 23.4606 34.6039 22.9268 33.3194 22.815C30.57 22.5758 29.1136 23.6445 28.4247 25.1319C27.0753 28.0453 30.0766 30.7498 32.8421 32.3809C43.3554 38.5813 55.6241 53.2409 61.0568 60.7109C32.9403 48.4099 -8.32988 46.1112 -28.9087 46.5073C-31.4896 46.557 -34.4263 47.118 -35.5499 49.4421C-36.3991 51.1987 -35.8195 52.8697 -34.8347 54.1626C-33.7553 55.5797 -31.8788 56.0344 -30.0983 56.0889C50.7689 58.5657 94.0552 88.2662 105.663 102.969C91.0468 110.277 23.4114 112.253 -11.2369 112.355C-13.0909 112.361 -15.0462 112.782 -16.1842 114.246C-17.5224 115.967 -17.3527 117.656 -16.6043 119.048C-15.443 121.206 -12.7816 121.845 -10.3343 121.986C42.8623 125.051 95.1718 115.365 115.053 110.012C116.931 110.012 136.182 136.619 145.573 149.922Z" fill="url(#paint3_linear_4_43)"/>
</g>
<defs>
<linearGradient id="paint0_linear_4_43" x1="381.924" y1="224.681" x2="168.286" y2="417.189" gradientUnits="userSpaceOnUse">
<stop stop-color="#D4E6EE"/>
<stop offset="1" stop-color="#173742"/>
</linearGradient>
<linearGradient id="paint1_linear_4_43" x1="-8.58996" y1="239.235" x2="122.879" y2="319.055" gradientUnits="userSpaceOnUse">
<stop stop-color="#D2E6EC"/>
<stop offset="1" stop-color="#2D4E5D"/>
</linearGradient>
<linearGradient id="paint2_linear_4_43" x1="305.41" y1="24.1168" x2="305.41" y2="183.036" gradientUnits="userSpaceOnUse">
<stop stop-color="#DAF3F8"/>
<stop offset="1" stop-color="#698A94"/>
</linearGradient>
<linearGradient id="paint3_linear_4_43" x1="57.1537" y1="22.7815" x2="57.1537" y2="149.922" gradientUnits="userSpaceOnUse">
<stop stop-color="#E6F3FB"/>
<stop offset="1" stop-color="#678F98"/>
</linearGradient>
</defs>
</svg>
