<svg width="18" height="18" viewBox="0 0 18 18" fill="none" xmlns="http://www.w3.org/2000/svg">
<path d="M5.31666 0.766699C5.31666 0.407714 5.02565 0.116699 4.66666 0.116699C4.30768 0.116699 4.01666 0.407714 4.01666 0.766699V2.13539C2.76924 2.23528 1.95033 2.48042 1.34869 3.08206C0.747053 3.6837 0.501906 4.50261 0.402018 5.75003H17.598C17.4981 4.50261 17.2529 3.6837 16.6513 3.08206C16.0497 2.48042 15.2307 2.23528 13.9833 2.13539V0.766699C13.9833 0.407714 13.6923 0.116699 13.3333 0.116699C12.9743 0.116699 12.6833 0.407714 12.6833 0.766699V2.07788C12.1068 2.0667 11.4605 2.0667 10.7333 2.0667H7.26666C6.5395 2.0667 5.89323 2.0667 5.31666 2.07788V0.766699Z" fill="#69B0AC"/>
<path fill-rule="evenodd" clip-rule="evenodd" d="M0.333328 9.00003C0.333328 8.27287 0.333328 7.6266 0.34451 7.05003H17.6555C17.6667 7.6266 17.6667 8.27287 17.6667 9.00003V10.7334C17.6667 14.0018 17.6667 15.636 16.6513 16.6513C15.6359 17.6667 14.0017 17.6667 10.7333 17.6667H7.26666C3.99826 17.6667 2.36405 17.6667 1.34869 16.6513C0.333328 15.636 0.333328 14.0018 0.333328 10.7334V9.00003ZM13.3333 10.7334C13.812 10.7334 14.2 10.3453 14.2 9.8667C14.2 9.38805 13.812 9.00003 13.3333 9.00003C12.8547 9.00003 12.4667 9.38805 12.4667 9.8667C12.4667 10.3453 12.8547 10.7334 13.3333 10.7334ZM13.3333 14.2C13.812 14.2 14.2 13.812 14.2 13.3334C14.2 12.8547 13.812 12.4667 13.3333 12.4667C12.8547 12.4667 12.4667 12.8547 12.4667 13.3334C12.4667 13.812 12.8547 14.2 13.3333 14.2ZM9.86666 9.8667C9.86666 10.3453 9.47864 10.7334 9 10.7334C8.52135 10.7334 8.13333 10.3453 8.13333 9.8667C8.13333 9.38805 8.52135 9.00003 9 9.00003C9.47864 9.00003 9.86666 9.38805 9.86666 9.8667ZM9.86666 13.3334C9.86666 13.812 9.47864 14.2 9 14.2C8.52135 14.2 8.13333 13.812 8.13333 13.3334C8.13333 12.8547 8.52135 12.4667 9 12.4667C9.47864 12.4667 9.86666 12.8547 9.86666 13.3334ZM4.66666 10.7334C5.14531 10.7334 5.53333 10.3453 5.53333 9.8667C5.53333 9.38805 5.14531 9.00003 4.66666 9.00003C4.18801 9.00003 3.79999 9.38805 3.79999 9.8667C3.79999 10.3453 4.18801 10.7334 4.66666 10.7334ZM4.66666 14.2C5.14531 14.2 5.53333 13.812 5.53333 13.3334C5.53333 12.8547 5.14531 12.4667 4.66666 12.4667C4.18801 12.4667 3.79999 12.8547 3.79999 13.3334C3.79999 13.812 4.18801 14.2 4.66666 14.2Z" fill="#69B0AC"/>
</svg>
