<svg width="16" height="16" viewBox="0 0 16 16" fill="none" xmlns="http://www.w3.org/2000/svg">
<path d="M10.0449 10.8378L9.68057 11.2214C9.68057 11.2214 8.8145 12.1332 6.4505 9.64433C4.08649 7.15548 4.95256 6.24367 4.95256 6.24367L5.18201 6.0021C5.74726 5.407 5.80054 4.45158 5.30739 3.75409L4.2986 2.3273C3.68823 1.46401 2.50877 1.34997 1.80916 2.08652L0.553479 3.40852C0.206583 3.77374 -0.0258786 4.24717 0.00231006 4.77236C0.074428 6.11597 0.648572 9.00685 3.85229 12.3798C7.24971 15.9566 10.4375 16.0988 11.741 15.9701C12.1533 15.9294 12.5119 15.707 12.8009 15.4028L13.9373 14.2064C14.7044 13.3987 14.4882 12.0141 13.5067 11.4492L11.9783 10.5695C11.3338 10.1985 10.5486 10.3075 10.0449 10.8378Z" fill="#172A2B"/>
<path d="M12 8C14.2091 8 16 6.20914 16 4C16 1.79086 14.2091 0 12 0C9.79086 0 8 1.79086 8 4C8 4.63987 8.15025 5.24465 8.41738 5.78099C8.48837 5.92352 8.512 6.08643 8.47085 6.24025L8.2326 7.13066C8.12918 7.51719 8.48281 7.87082 8.86934 7.7674L9.75975 7.52915C9.91357 7.488 10.0765 7.51162 10.219 7.58262C10.7553 7.84975 11.3601 8 12 8Z" fill="#172A2B"/>
</svg>
