<svg width="15" height="16" viewBox="0 0 15 16" fill="none" xmlns="http://www.w3.org/2000/svg">
<path d="M7.47646 16H8.12349C10.3497 16 11.4628 16 12.1865 15.2749C12.9102 14.5498 12.9842 13.3604 13.1323 10.9816L13.3457 7.55397C13.426 6.26326 13.4662 5.61791 13.1031 5.20895C12.7401 4.8 12.127 4.8 10.9007 4.8H4.69921C3.47299 4.8 2.85988 4.8 2.49682 5.20895C2.13375 5.61791 2.17393 6.26326 2.25428 7.55397L2.46765 10.9816C2.61573 13.3604 2.68977 14.5498 3.41349 15.2749C4.1372 16 5.25029 16 7.47646 16Z" fill="#172A2B"/>
<path d="M0.599976 3.33334C0.599976 2.96515 0.87628 2.66668 1.21712 2.66668L3.34851 2.66632C3.772 2.65473 4.14559 2.36385 4.28969 1.93353C4.29348 1.92222 4.29783 1.90826 4.31346 1.85762L4.4053 1.55995C4.4615 1.37743 4.51046 1.21842 4.57897 1.07629C4.84965 0.514793 5.35044 0.124882 5.92915 0.0250557C6.07564 -0.000212723 6.23076 -0.000105862 6.40882 1.68429e-05H9.19127C9.36933 -0.000105862 9.52446 -0.000212723 9.67094 0.0250557C10.2497 0.124882 10.7504 0.514793 11.0211 1.07629C11.0896 1.21842 11.1386 1.37743 11.1948 1.55995L11.2866 1.85762C11.3023 1.90826 11.3066 1.92222 11.3104 1.93353C11.4545 2.36385 11.9022 2.65509 12.3257 2.66668H14.3828C14.7237 2.66668 15 2.96515 15 3.33334C15 3.70153 14.7237 4 14.3828 4H1.21712C0.87628 4 0.599976 3.70153 0.599976 3.33334Z" fill="#172A2B"/>
</svg>
