<svg width="14" height="17" viewBox="0 0 14 17" fill="none" xmlns="http://www.w3.org/2000/svg">
<path fill-rule="evenodd" clip-rule="evenodd" d="M0 16.0004C0 15.669 0.268629 15.4004 0.6 15.4004H13.4C13.7314 15.4004 14 15.669 14 16.0004C14 16.3318 13.7314 16.6004 13.4 16.6004H0.6C0.268629 16.6004 0 16.3318 0 16.0004Z" fill="#172A2B"/>
<path d="M5.85832 11.0561C6.06196 10.8972 6.24667 10.7125 6.61604 10.3432L11.3494 5.6098C10.7052 5.34168 9.94217 4.90125 9.22056 4.17964C8.49883 3.45791 8.05837 2.69477 7.79026 2.0505L3.05682 6.78394L3.0568 6.78396C2.68744 7.15332 2.50274 7.33802 2.34391 7.54166C2.15654 7.78188 1.9959 8.0418 1.86483 8.31682C1.75373 8.54996 1.67113 8.79774 1.50593 9.29333L0.634823 11.9067C0.553529 12.1505 0.617003 12.4194 0.79878 12.6012C0.980556 12.783 1.24943 12.8464 1.49331 12.7652L4.10665 11.894C4.60222 11.7289 4.85002 11.6463 5.08316 11.5351C5.35818 11.4041 5.6181 11.2434 5.85832 11.0561Z" fill="#172A2B"/>
<path d="M12.6628 4.29636C13.6457 3.31351 13.6457 1.71999 12.6628 0.737138C11.68 -0.245713 10.0865 -0.245713 9.10362 0.737138L8.53592 1.30484C8.54369 1.32832 8.55175 1.35212 8.56012 1.37623C8.7682 1.976 9.16081 2.76224 9.89938 3.50081C10.6379 4.23938 11.4242 4.63199 12.024 4.84008C12.048 4.8484 12.0717 4.85643 12.095 4.86417L12.6628 4.29636Z" fill="#172A2B"/>
</svg>
