<svg width="18" height="14" viewBox="0 0 18 14" fill="none" xmlns="http://www.w3.org/2000/svg">
<path fill-rule="evenodd" clip-rule="evenodd" d="M1.34869 1.08201C0.333328 2.09738 0.333328 3.73158 0.333328 6.99998C0.333328 10.2684 0.333328 11.9026 1.34869 12.918C2.36405 13.9333 3.99826 13.9333 7.26666 13.9333H10.7333C14.0017 13.9333 15.6359 13.9333 16.6513 12.918C17.6667 11.9026 17.6667 10.2684 17.6667 6.99998C17.6667 3.73158 17.6667 2.09738 16.6513 1.08201C15.6359 0.0666504 14.0017 0.0666504 10.7333 0.0666504H7.26666C3.99826 0.0666504 2.36405 0.0666504 1.34869 1.08201ZM14.6993 3.1172C14.9292 3.39298 14.8919 3.80284 14.6161 4.03266L12.7125 5.61901C11.9443 6.25918 11.3217 6.77805 10.7722 7.13148C10.1997 7.49964 9.64226 7.73221 9 7.73221C8.35773 7.73221 7.80025 7.49964 7.22782 7.13148C6.6783 6.77805 6.05568 6.25918 5.2875 5.61902L3.38387 4.03266C3.10809 3.80284 3.07083 3.39298 3.30065 3.1172C3.53047 2.84142 3.94033 2.80416 4.21611 3.03397L6.08716 4.59318C6.89572 5.26698 7.45709 5.73328 7.93103 6.03809C8.38981 6.33316 8.70093 6.43221 9 6.43221C9.29906 6.43221 9.61018 6.33316 10.069 6.03809C10.5429 5.73328 11.1043 5.26698 11.9128 4.59317L13.7839 3.03397C14.0597 2.80416 14.4695 2.84142 14.6993 3.1172Z" fill="#2F6164"/>
</svg>
