<svg width="16" height="16" viewBox="0 0 16 16" fill="none" xmlns="http://www.w3.org/2000/svg">
<path d="M7.39981 0C4.02516 0.00329038 2.2791 0.0636627 1.17138 1.17138C0.0636627 2.2791 0.00329038 4.02516 0 7.39981H3.93081C3.65004 7.04909 3.44024 6.63541 3.32585 6.17782C2.89524 4.45541 4.45541 2.89524 6.17782 3.32585C6.63541 3.44024 7.04909 3.65004 7.39981 3.93081V0Z" fill="#172A2B"/>
<path d="M1.13505e-10 8.59981C0.00329038 11.9745 0.0636627 13.7205 1.17138 14.8282C2.2791 15.936 4.02516 15.9963 7.39981 15.9996V9.69873C6.7761 10.9445 5.48784 11.7998 3.99981 11.7998C3.66844 11.7998 3.39981 11.5312 3.39981 11.1998C3.39981 10.8684 3.66844 10.5998 3.99981 10.5998C5.22924 10.5998 6.25937 9.74649 6.53024 8.59981H1.13505e-10Z" fill="#172A2B"/>
<path d="M8.59981 15.9996C11.9745 15.9963 13.7205 15.936 14.8282 14.8282C15.936 13.7205 15.9963 11.9745 15.9996 8.59981H9.46938C9.74025 9.74649 10.7704 10.5998 11.9998 10.5998C12.3312 10.5998 12.5998 10.8684 12.5998 11.1998C12.5998 11.5312 12.3312 11.7998 11.9998 11.7998C10.5118 11.7998 9.22352 10.9445 8.59981 9.69873V15.9996Z" fill="#172A2B"/>
<path d="M15.9996 7.39981C15.9963 4.02516 15.936 2.2791 14.8282 1.17138C13.7205 0.0636627 11.9745 0.00329038 8.59981 1.1205e-10V3.93081C8.95053 3.65004 9.36421 3.44024 9.8218 3.32585C11.5442 2.89524 13.1044 4.45541 12.6738 6.17782C12.5594 6.63541 12.3496 7.04909 12.0688 7.39981H15.9996Z" fill="#172A2B"/>
<path d="M5.88678 4.49002C6.776 4.71232 7.39981 5.51129 7.39981 6.42787V7.39981H6.42787C5.51129 7.39981 4.71232 6.776 4.49002 5.88678C4.27913 5.04322 5.04322 4.27913 5.88678 4.49002Z" fill="#172A2B"/>
<path d="M8.59981 6.42787V7.39981H9.57175C10.4883 7.39981 11.2873 6.776 11.5096 5.88678C11.7205 5.04322 10.9564 4.27913 10.1128 4.49002C9.22362 4.71232 8.59981 5.51129 8.59981 6.42787Z" fill="#172A2B"/>
</svg>
