<svg width="26" height="26" viewBox="0 0 26 26" fill="none" xmlns="http://www.w3.org/2000/svg">
<path d="M10.1062 16.8509C9.72904 16.5714 9.19669 16.6505 8.91715 17.0276C8.6376 17.4048 8.71672 17.9371 9.09385 18.2167C10.1959 19.0336 11.5437 19.5171 13 19.5171C14.4563 19.5171 15.8041 19.0336 16.9062 18.2167C17.2833 17.9371 17.3624 17.4048 17.0829 17.0276C16.8033 16.6505 16.271 16.5714 15.8938 16.8509C15.0684 17.4628 14.072 17.8171 13 17.8171C11.928 17.8171 10.9316 17.4628 10.1062 16.8509Z" fill="#172A2B" fill-opacity="0.6"/>
<path fill-rule="evenodd" clip-rule="evenodd" d="M12.9999 0.817383C12.1782 0.817383 11.4285 1.04304 10.6078 1.4261C9.81335 1.7969 8.89468 2.34416 7.74333 3.03002L6.09364 4.01274C4.82531 4.76826 3.81465 5.37029 3.04943 5.94599C2.25948 6.54029 1.66658 7.15227 1.2802 7.9582C0.89364 8.76453 0.788869 9.60842 0.822476 10.5933C0.855005 11.5467 1.02178 12.7057 1.23089 14.1589L1.56223 16.4616C1.83127 18.3315 2.04476 19.8153 2.36372 20.9705C2.69252 22.1614 3.15903 23.1066 4.00086 23.8314C4.842 24.5557 5.84841 24.8797 7.07978 25.0341C8.27567 25.1841 9.78444 25.1841 11.6879 25.184H14.3119C16.2154 25.1841 17.7242 25.1841 18.9201 25.0341C20.1514 24.8797 21.1578 24.5557 21.999 23.8314C22.8408 23.1066 23.3073 22.1614 23.6361 20.9705C23.9551 19.8153 24.1686 18.3315 24.4376 16.4616L24.769 14.1588C24.9781 12.7056 25.1448 11.5467 25.1774 10.5933C25.211 9.60842 25.1062 8.76453 24.7196 7.9582C24.3333 7.15227 23.7404 6.54029 22.9504 5.94599C22.1852 5.37029 21.1745 4.76826 19.9062 4.01274L18.2565 3.03002C17.1052 2.34416 16.1865 1.7969 15.3921 1.4261C14.5714 1.04304 13.8217 0.817383 12.9999 0.817383ZM8.57492 4.51342C9.77342 3.79948 10.6191 3.2969 11.3268 2.96656C12.0171 2.64435 12.5134 2.51738 12.9999 2.51738C13.4864 2.51738 13.9827 2.64435 14.6731 2.96656C15.3808 3.2969 16.2264 3.79948 17.4249 4.51342L18.9944 5.44835C20.314 6.2344 21.2451 6.79043 21.9284 7.30447C22.5953 7.80622 22.9606 8.22138 23.1867 8.69311C23.4127 9.16443 23.5066 9.70653 23.4784 10.5354C23.4494 11.3852 23.297 12.4525 23.0793 13.9652L22.7634 16.1609C22.484 18.1025 22.2843 19.4791 21.9974 20.5181C21.7171 21.5334 21.3796 22.1214 20.8897 22.5432C20.3991 22.9656 19.7631 23.2151 18.7085 23.3473C17.6307 23.4825 16.2285 23.484 14.2535 23.484H11.7464C9.77133 23.484 8.36918 23.4825 7.29132 23.3473C6.23671 23.2151 5.60072 22.9656 5.11012 22.5432C4.62021 22.1214 4.28275 21.5334 4.00241 20.5181C3.71555 19.4791 3.51585 18.1025 3.23648 16.1609L2.92054 13.9652C2.70288 12.4525 2.55048 11.3852 2.52149 10.5354C2.49321 9.70653 2.58719 9.16443 2.81314 8.69311C3.03929 8.22138 3.40453 7.80622 4.07145 7.30447C4.75471 6.79043 5.68588 6.23441 7.00543 5.44835L8.57492 4.51342Z" fill="#172A2B" fill-opacity="0.6"/>
</svg>
