<svg width="25" height="25" viewBox="0 0 25 25" fill="none" xmlns="http://www.w3.org/2000/svg">
<path fill-rule="evenodd" clip-rule="evenodd" d="M13.7905 24.1663H11.2096C7.18864 24.1663 5.17815 24.1663 3.80724 22.9859C2.43633 21.8054 2.152 19.8294 1.58335 15.8774L1.25812 13.6172C0.81544 10.5406 0.594097 9.00234 1.22463 7.68711C1.85517 6.37188 3.19726 5.5724 5.88144 3.97345L7.49708 3.01102C9.93459 1.55901 11.1533 0.833008 12.5 0.833008C13.8467 0.833008 15.0655 1.55901 17.503 3.01102L19.1186 3.97345C21.8028 5.5724 23.1449 6.37188 23.7754 7.68711C24.406 9.00234 24.1846 10.5406 23.742 13.6172L23.4167 15.8774C22.8481 19.8294 22.5637 21.8054 21.1928 22.9859C19.8219 24.1663 17.8114 24.1663 13.7905 24.1663ZM8.29721 16.645C8.58498 16.2568 9.13298 16.1754 9.5212 16.4631C10.3709 17.093 11.3966 17.4578 12.5002 17.4578C13.6037 17.4578 14.6294 17.093 15.4791 16.4631C15.8673 16.1754 16.4153 16.2568 16.7031 16.645C16.9909 17.0333 16.9094 17.5813 16.5212 17.869C15.3867 18.71 13.9993 19.2078 12.5002 19.2078C11.001 19.2078 9.61359 18.71 8.47911 17.869C8.09088 17.5813 8.00944 17.0333 8.29721 16.645Z" fill="#69B0AC"/>
</svg>
