<svg width="19" height="27" viewBox="0 0 19 27" fill="none" xmlns="http://www.w3.org/2000/svg">
<path fill-rule="evenodd" clip-rule="evenodd" d="M6.29165 22.2497C6.29165 21.7664 6.6834 21.3747 7.16665 21.3747H11.8333C12.3166 21.3747 12.7083 21.7664 12.7083 22.2497C12.7083 22.7329 12.3166 23.1247 11.8333 23.1247H7.16665C6.6834 23.1247 6.29165 22.7329 6.29165 22.2497ZM7.06942 25.1663C7.06942 24.6831 7.46118 24.2913 7.94443 24.2913H11.0555C11.5388 24.2913 11.9305 24.6831 11.9305 25.1663C11.9305 25.6496 11.5388 26.0413 11.0555 26.0413H7.94443C7.46118 26.0413 7.06942 25.6496 7.06942 25.1663Z" fill="#172A2B" fill-opacity="0.6"/>
<path fill-rule="evenodd" clip-rule="evenodd" d="M0.458313 9.08742C0.458313 4.53188 4.60451 0.958008 9.49998 0.958008C14.3955 0.958008 18.5416 4.53188 18.5416 9.08742L18.5416 9.09123C18.5304 11.6653 17.4233 14.2297 15.4564 16.0951L15.454 16.0974L14.166 17.3098C13.9803 17.4845 13.875 17.7282 13.875 17.9832C13.875 19.2119 12.8789 20.208 11.6502 20.208H7.3498C6.12107 20.208 5.12498 19.2119 5.12498 17.9832C5.12498 17.7282 5.0197 17.4845 4.83402 17.3098L3.54594 16.0974L3.54352 16.0951C1.5767 14.2297 0.46952 11.6653 0.458321 9.09123L0.458313 9.08742ZM2.20831 9.08553C2.21792 11.1687 3.11856 13.2795 4.74657 14.8242C4.74698 14.8246 4.74739 14.825 4.7478 14.8254L6.0334 16.0354C6.57046 16.5409 6.87498 17.2457 6.87498 17.9832C6.87498 18.2454 7.08756 18.458 7.3498 18.458H11.6502C11.9124 18.458 12.125 18.2454 12.125 17.9832C12.125 17.2457 12.4295 16.5409 12.9665 16.0354C12.9665 16.0355 12.9665 16.0354 12.9665 16.0354L14.2522 14.8254C14.2525 14.825 14.2529 14.8246 14.2533 14.8243C15.8814 13.2795 16.7821 11.1687 16.7916 9.08544C16.7904 5.68241 13.6244 2.70801 9.49998 2.70801C5.37556 2.70801 2.20948 5.68246 2.20831 9.08553Z" fill="#172A2B" fill-opacity="0.6"/>
</svg>
