<svg width="16" height="24" viewBox="0 0 16 24" fill="none" xmlns="http://www.w3.org/2000/svg">
<path fill-rule="evenodd" clip-rule="evenodd" d="M4.88332 19.6037C4.88332 19.1283 5.26388 18.7429 5.73332 18.7429H10.2667C10.7361 18.7429 11.1167 19.1283 11.1167 19.6037C11.1167 20.0791 10.7361 20.4645 10.2667 20.4645H5.73332C5.26388 20.4645 4.88332 20.0791 4.88332 19.6037ZM5.63887 22.4729C5.63887 21.9975 6.01943 21.6121 6.48887 21.6121H9.5111C9.98054 21.6121 10.3611 21.9975 10.3611 22.4729C10.3611 22.9483 9.98054 23.3337 9.5111 23.3337H6.48887C6.01943 23.3337 5.63887 22.9483 5.63887 22.4729Z" fill="#69B0AC"/>
<path d="M2.79865 14.0724L4.04989 15.2651C4.40094 15.5996 4.59998 16.0662 4.59998 16.5543C4.59998 17.2877 5.18705 17.8822 5.91124 17.8822H10.0887C10.8129 17.8822 11.4 17.2877 11.4 16.5543C11.4 16.0662 11.599 15.5996 11.9501 15.2651L13.2013 14.0724C14.948 12.3948 15.9234 10.1909 15.9332 7.89959L15.9333 7.80334C15.9333 3.88841 12.3814 0.666992 7.99998 0.666992C3.61853 0.666992 0.0666504 3.88841 0.0666504 7.80334L0.0667255 7.89959C0.0765696 10.1909 1.05196 12.3948 2.79865 14.0724Z" fill="#69B0AC"/>
</svg>
