<svg width="16" height="16" viewBox="0 0 16 16" fill="none" xmlns="http://www.w3.org/2000/svg">
<path d="M1.47561 1.47562C0.574781 2.37645 0.574781 3.83698 1.47561 4.73781L2.7458 6.008C2.75534 5.99697 2.76534 5.98621 2.77581 5.97574L5.97581 2.77574C5.98626 2.76529 5.99699 2.75532 6.00798 2.74581L4.7378 1.47562C3.83697 0.574793 2.37644 0.574793 1.47561 1.47562Z" fill="#172A2B"/>
<path d="M6.85427 3.5921C6.84476 3.60309 6.83478 3.61382 6.82434 3.62426L3.62434 6.82426C3.61387 6.83474 3.60311 6.84474 3.59208 6.85428L11.2622 14.5244C12.163 15.4252 13.6235 15.4252 14.5244 14.5244C15.4252 13.6235 15.4252 12.163 14.5244 11.2622L6.85427 3.5921Z" fill="#172A2B"/>
<path d="M11.28 0.245751C11.4088 -0.0819169 11.8708 -0.0819172 11.9995 0.245751L12.3439 1.12198C12.3832 1.22202 12.4621 1.30121 12.5617 1.34066L13.4347 1.68624C13.7612 1.81547 13.7612 2.2792 13.4347 2.40843L12.5617 2.75401C12.4621 2.79347 12.3832 2.87266 12.3439 2.9727L11.9995 3.84892C11.8708 4.17659 11.4088 4.17659 11.28 3.84892L10.9357 2.9727C10.8964 2.87266 10.8175 2.79347 10.7178 2.75401L9.84483 2.40843C9.51837 2.2792 9.51837 1.81547 9.84483 1.68624L10.7178 1.34066C10.8175 1.30121 10.8964 1.22202 10.9357 1.12198L11.28 0.245751Z" fill="#172A2B"/>
<path d="M14.3737 5.70356C14.5025 5.3759 14.9645 5.3759 15.0933 5.70356L15.2188 6.02304C15.2581 6.12308 15.337 6.20227 15.4367 6.24172L15.755 6.36772C16.0814 6.49695 16.0814 6.96069 15.755 7.08992L15.4367 7.21592C15.337 7.25537 15.2581 7.33456 15.2188 7.4346L15.0933 7.75408C14.9645 8.08174 14.5025 8.08174 14.3737 7.75408L14.2482 7.4346C14.2089 7.33456 14.13 7.25537 14.0303 7.21592L13.712 7.08992C13.3856 6.96069 13.3856 6.49695 13.712 6.36772L14.0303 6.24172C14.13 6.20227 14.2089 6.12308 14.2482 6.02304L14.3737 5.70356Z" fill="#172A2B"/>
<path d="M2.50655 10.6458C2.6353 10.3181 3.09732 10.3181 3.22608 10.6458L3.35161 10.9652C3.39092 11.0653 3.46982 11.1445 3.56949 11.1839L3.88779 11.3099C4.21425 11.4391 4.21425 11.9029 3.88779 12.0321L3.56949 12.1581C3.46982 12.1976 3.39092 12.2767 3.35161 12.3768L3.22608 12.6963C3.09732 13.0239 2.6353 13.0239 2.50655 12.6963L2.38101 12.3768C2.3417 12.2767 2.2628 12.1976 2.16313 12.1581L1.84483 12.0321C1.51837 11.9029 1.51837 11.4391 1.84483 11.3099L2.16313 11.1839C2.2628 11.1445 2.3417 11.0653 2.38101 10.9652L2.50655 10.6458Z" fill="#172A2B"/>
</svg>
