<svg width="14" height="16" viewBox="0 0 14 16" fill="none" xmlns="http://www.w3.org/2000/svg">
<path fill-rule="evenodd" clip-rule="evenodd" d="M0.599976 2.39961V13.5996C0.599976 14.9251 1.67449 15.9996 2.99998 15.9996H11C12.3255 15.9996 13.4 14.9251 13.4 13.5996V5.59961C13.4 4.27413 12.3255 3.19961 11 3.19961H1.39998C0.958148 3.19961 0.599976 2.84144 0.599976 2.39961ZM3.19998 7.99961C3.19998 7.66824 3.4686 7.39961 3.79998 7.39961H10.2C10.5313 7.39961 10.8 7.66824 10.8 7.99961C10.8 8.33098 10.5313 8.59961 10.2 8.59961H3.79998C3.4686 8.59961 3.19998 8.33098 3.19998 7.99961ZM3.19998 10.7996C3.19998 10.4682 3.4686 10.1996 3.79998 10.1996H8.19998C8.53135 10.1996 8.79998 10.4682 8.79998 10.7996C8.79998 11.131 8.53135 11.3996 8.19998 11.3996H3.79998C3.4686 11.3996 3.19998 11.131 3.19998 10.7996Z" fill="#172A2B"/>
<path d="M0.927004 1.66929C1.20579 1.79432 1.39998 2.07429 1.39998 2.39961H11C11.2762 2.39961 11.5443 2.43461 11.8 2.50042V1.84444C11.8 0.870762 10.9376 0.122823 9.9737 0.260522L1.33565 1.49453C1.18167 1.51653 1.04214 1.5786 0.927004 1.66929Z" fill="#172A2B"/>
</svg>
