<svg width="23" height="24" viewBox="0 0 23 24" fill="none" xmlns="http://www.w3.org/2000/svg">
<path fill-rule="evenodd" clip-rule="evenodd" d="M13.5826 0.839532C13.1629 0.666992 12.6308 0.666992 11.5667 0.666992C10.5025 0.666992 9.97039 0.666992 9.55067 0.839532C8.99104 1.06958 8.54642 1.51085 8.31462 2.06624C8.2088 2.31978 8.16739 2.61463 8.15119 3.04472C8.12737 3.67676 7.80077 4.26181 7.24884 4.57805C6.69692 4.89429 6.02311 4.88247 5.45967 4.58692C5.07626 4.3858 4.79826 4.27396 4.52411 4.23814C3.92356 4.15968 3.31619 4.32119 2.83563 4.68715C2.47521 4.96162 2.20917 5.41894 1.67708 6.33358C1.14499 7.24822 0.878946 7.70554 0.819648 8.15255C0.740584 8.74857 0.903326 9.35134 1.27207 9.82827C1.44038 10.046 1.67693 10.229 2.04405 10.4579C2.58376 10.7944 2.93102 11.3678 2.93098 12.0004C2.93095 12.6329 2.5837 13.2061 2.04405 13.5426C1.67687 13.7716 1.44029 13.9546 1.27196 14.1723C0.903214 14.6492 0.740472 15.252 0.819536 15.848C0.878834 16.295 1.14488 16.7524 1.67697 17.667C2.20905 18.5816 2.4751 19.039 2.83552 19.3134C3.31608 19.6794 3.92344 19.8409 4.524 19.7624C4.79813 19.7266 5.07612 19.6148 5.45949 19.4137C6.02298 19.1181 6.69683 19.1063 7.24879 19.4226C7.80075 19.7388 8.12737 20.3239 8.15119 20.956C8.16739 21.3861 8.20881 21.6809 8.31462 21.9344C8.54642 22.4898 8.99104 22.9311 9.55067 23.1611C9.97039 23.3337 10.5025 23.3337 11.5667 23.3337C12.6308 23.3337 13.1629 23.3337 13.5826 23.1611C14.1423 22.9311 14.5869 22.4898 14.8187 21.9344C14.9245 21.6809 14.9659 21.386 14.9821 20.9559C15.0059 20.3239 15.3325 19.7388 15.8844 19.4226C16.4364 19.1063 17.1102 19.1181 17.6737 19.4136C18.0571 19.6147 18.3351 19.7265 18.6092 19.7624C19.2098 19.8408 19.8171 19.6793 20.2977 19.3133C20.6581 19.0389 20.9241 18.5816 21.4562 17.6669C21.9883 16.7523 22.2544 16.295 22.3137 15.8479C22.3927 15.2519 22.23 14.6492 21.8612 14.1722C21.6929 13.9545 21.4564 13.7715 21.0892 13.5426C20.5495 13.206 20.2023 12.6328 20.2023 12.0002C20.2024 11.3678 20.5496 10.7946 21.0892 10.4581C21.4564 10.2291 21.693 10.0461 21.8613 9.82835C22.2301 9.35142 22.3928 8.74864 22.3138 8.15263C22.2545 7.70562 21.9884 7.2483 21.4563 6.33366C20.9243 5.41902 20.6582 4.9617 20.2978 4.68723C19.8172 4.32127 19.2099 4.15976 18.6093 4.23822C18.3352 4.27404 18.0572 4.38586 17.6738 4.58696C17.1103 4.88253 16.4365 4.89435 15.8845 4.57808C15.3326 4.26182 15.0059 3.67674 14.9821 3.04466C14.9659 2.6146 14.9245 2.31977 14.8187 2.06624C14.5869 1.51085 14.1423 1.06958 13.5826 0.839532ZM11.5667 15.4003C13.4587 15.4003 14.9925 13.8781 14.9925 12.0003C14.9925 10.1226 13.4587 8.60033 11.5667 8.60033C9.67459 8.60033 8.14077 10.1226 8.14077 12.0003C8.14077 13.8781 9.67459 15.4003 11.5667 15.4003Z" fill="#69B0AC"/>
</svg>
