<svg width="24" height="26" viewBox="0 0 24 26" fill="none" xmlns="http://www.w3.org/2000/svg">
<path fill-rule="evenodd" clip-rule="evenodd" d="M12 8.74974C9.65277 8.74974 7.74998 10.6525 7.74998 12.9997C7.74998 15.3469 9.65277 17.2497 12 17.2497C14.3472 17.2497 16.25 15.3469 16.25 12.9997C16.25 10.6525 14.3472 8.74974 12 8.74974ZM9.44998 12.9997C9.44998 11.5914 10.5917 10.4497 12 10.4497C13.4083 10.4497 14.55 11.5914 14.55 12.9997C14.55 14.4081 13.4083 15.5497 12 15.5497C10.5917 15.5497 9.44998 14.4081 9.44998 12.9997Z" fill="#172A2B" fill-opacity="0.6"/>
<path fill-rule="evenodd" clip-rule="evenodd" d="M11.9714 0.816407C11.4676 0.816398 11.0471 0.816391 10.7019 0.839946C10.3425 0.864466 10.003 0.917328 9.67394 1.05365C8.91027 1.36997 8.30353 1.97671 7.98721 2.74038C7.82253 3.13794 7.77794 3.55694 7.7609 4.01237C7.74721 4.37846 7.56245 4.68392 7.28979 4.84134C7.01713 4.99876 6.66022 5.00603 6.33633 4.83484C5.9334 4.62188 5.54824 4.451 5.12159 4.39483C4.30207 4.28694 3.47326 4.50902 2.81748 5.01222C2.53487 5.22907 2.31935 5.49662 2.11843 5.7956C1.92542 6.08279 1.71517 6.44697 1.46331 6.88321L1.43469 6.93279C1.18282 7.36902 0.972564 7.73318 0.82035 8.04394C0.661895 8.36743 0.537944 8.68784 0.491447 9.04102C0.383556 9.86054 0.605636 10.6894 1.10883 11.3451C1.37077 11.6865 1.71127 11.9346 2.0971 12.177C2.40739 12.372 2.57957 12.6848 2.57956 12.9997C2.57954 13.3146 2.40736 13.6274 2.09711 13.8223C1.71123 14.0648 1.37068 14.3129 1.10872 14.6543C0.605525 15.3101 0.383445 16.1389 0.491336 16.9584C0.537833 17.3116 0.661784 17.632 0.820239 17.9555C0.972451 18.2662 1.18271 18.6304 1.43457 19.0666L1.4632 19.1162C1.71506 19.5524 1.92531 19.9166 2.11832 20.2038C2.31924 20.5028 2.53476 20.7703 2.81737 20.9872C3.47315 21.4904 4.30196 21.7125 5.12148 21.6046C5.5481 21.5484 5.93324 21.3775 6.33615 21.1646C6.66009 20.9934 7.01704 21.0007 7.28974 21.1581C7.56243 21.3155 7.74721 21.621 7.76091 21.9872C7.77794 22.4426 7.82254 22.8616 7.98721 23.2591C8.30353 24.0228 8.91027 24.6295 9.67394 24.9458C10.003 25.0822 10.3425 25.135 10.7019 25.1595C11.0471 25.1831 11.4676 25.1831 11.9713 25.1831H12.0286C12.5323 25.1831 12.9528 25.1831 13.298 25.1595C13.6574 25.135 13.9969 25.0822 14.326 24.9458C15.0897 24.6295 15.6964 24.0228 16.0127 23.2591C16.1774 22.8615 16.222 22.4425 16.239 21.9871C16.2527 21.621 16.4375 21.3155 16.7101 21.1581C16.9828 21.0006 17.3398 20.9933 17.6637 21.1645C18.0666 21.3775 18.4517 21.5483 18.8784 21.6045C19.6979 21.7124 20.5267 21.4903 21.1825 20.9871C21.4651 20.7703 21.6806 20.5027 21.8815 20.2037C22.0745 19.9165 22.2847 19.5524 22.5366 19.1162L22.5652 19.0666C22.8171 18.6304 23.0274 18.2661 23.1796 17.9554C23.338 17.6319 23.462 17.3115 23.5085 16.9583C23.6164 16.1388 23.3943 15.31 22.8911 14.6542C22.6292 14.3128 22.2886 14.0647 21.9028 13.8223C21.5925 13.6273 21.4204 13.3146 21.4204 12.9997C21.4204 12.6848 21.5926 12.3721 21.9028 12.1772C22.2887 11.9347 22.6292 11.6866 22.8912 11.3452C23.3944 10.6894 23.6165 9.86062 23.5086 9.0411C23.4621 8.68792 23.3382 8.36751 23.1797 8.04401C23.0275 7.73328 22.8173 7.36915 22.5654 6.93295L22.5368 6.88334C22.2849 6.44709 22.0746 6.08287 21.8816 5.79567C21.6807 5.4967 21.4652 5.22915 21.1826 5.01229C20.5268 4.5091 19.698 4.28702 18.8785 4.39491C18.4518 4.45107 18.0667 4.62193 17.6638 4.83488C17.3399 5.0061 16.9829 4.99882 16.7102 4.84138C16.4375 4.68393 16.2527 4.37844 16.239 4.0123C16.222 3.5569 16.1774 3.13793 16.0127 2.74038C15.6964 1.97671 15.0897 1.36997 14.326 1.05365C13.9969 0.917328 13.6574 0.864466 13.298 0.839946C12.9528 0.816391 12.5323 0.816398 12.0286 0.816407H11.9714ZM10.3245 2.62424C10.4119 2.58803 10.5448 2.55462 10.8176 2.536C11.0981 2.51687 11.4603 2.51641 12 2.51641C12.5397 2.51641 12.9019 2.51687 13.1823 2.536C13.4552 2.55462 13.588 2.58803 13.6754 2.62424C14.0226 2.76803 14.2984 3.04382 14.4421 3.39094C14.4875 3.50043 14.5251 3.67113 14.5402 4.07584C14.5738 4.97387 15.0373 5.83853 15.8602 6.31362C16.6831 6.78871 17.6637 6.75779 18.4582 6.33787C18.8162 6.14862 18.9829 6.09583 19.1004 6.08037C19.4729 6.03132 19.8496 6.13227 20.1477 6.36099C20.2228 6.41861 20.3181 6.51695 20.4707 6.74392C20.6275 6.97724 20.809 7.29068 21.0788 7.75808C21.3487 8.22547 21.5294 8.53937 21.653 8.79183C21.7733 9.0374 21.8108 9.16916 21.8231 9.26299C21.8722 9.6355 21.7712 10.0122 21.5425 10.3103C21.4704 10.4044 21.3413 10.5223 20.9983 10.7378C20.2375 11.2158 19.7204 12.0495 19.7204 12.9996C19.7203 13.9498 20.2374 14.7836 20.9983 15.2617C21.3412 15.4772 21.4703 15.5951 21.5424 15.6891C21.7711 15.9872 21.8721 16.3639 21.823 16.7364C21.8107 16.8302 21.7732 16.962 21.6529 17.2076C21.5292 17.46 21.3485 17.7739 21.0787 18.2413C20.8088 18.7087 20.6273 19.0222 20.4705 19.2555C20.318 19.4824 20.2227 19.5808 20.1476 19.6384C19.8495 19.8671 19.4728 19.9681 19.1002 19.919C18.9827 19.9036 18.8161 19.8508 18.4581 19.6616C17.6636 19.2416 16.6829 19.2107 15.86 19.6859C15.0373 20.161 14.5738 21.0256 14.5402 21.9236C14.5251 22.3283 14.4875 22.499 14.4421 22.6085C14.2984 22.9557 14.0226 23.2315 13.6754 23.3752C13.588 23.4115 13.4552 23.4449 13.1823 23.4635C12.9019 23.4826 12.5397 23.4831 12 23.4831C11.4603 23.4831 11.0981 23.4826 10.8176 23.4635C10.5448 23.4449 10.4119 23.4115 10.3245 23.3752C9.97738 23.2315 9.70159 22.9557 9.55781 22.6085C9.51245 22.499 9.47486 22.3284 9.45972 21.9236C9.42613 21.0256 8.96261 20.1609 8.13973 19.6859C7.31686 19.2108 6.33628 19.2417 5.54177 19.6616C5.18372 19.8509 5.01709 19.9036 4.89959 19.9191C4.52708 19.9682 4.15034 19.8672 3.85226 19.6385C3.77717 19.5809 3.68182 19.4825 3.52929 19.2556C3.37249 19.0222 3.19099 18.7088 2.92114 18.2414C2.65129 17.774 2.47059 17.4601 2.34693 17.2077C2.22664 16.9621 2.18915 16.8303 2.17679 16.7365C2.12775 16.364 2.2287 15.9872 2.45742 15.6892C2.52957 15.5951 2.6586 15.4772 3.00154 15.2618C3.76244 14.7837 4.27951 13.95 4.27956 12.9998C4.27961 12.0496 3.76252 11.2157 3.00155 10.7376C2.65869 10.5222 2.52968 10.4043 2.45753 10.3102C2.22881 10.0122 2.12786 9.63542 2.1769 9.26291C2.18926 9.16908 2.22675 9.03733 2.34704 8.79175C2.4707 8.5393 2.6514 8.22539 2.92125 7.758C3.1911 7.29061 3.3726 6.97716 3.5294 6.74384C3.68193 6.51688 3.77729 6.41853 3.85237 6.36092C4.15045 6.13219 4.52719 6.03125 4.8997 6.08029C5.01721 6.09576 5.18384 6.14855 5.54194 6.33782C6.33641 6.75774 7.31695 6.78864 8.13978 6.31359C8.96263 5.83852 9.42614 4.97389 9.45972 4.07589C9.47485 3.67114 9.51245 3.50044 9.55781 3.39094C9.70159 3.04382 9.97738 2.76803 10.3245 2.62424Z" fill="#172A2B" fill-opacity="0.6"/>
</svg>
