<svg width="14" height="16" viewBox="0 0 14 16" fill="none" xmlns="http://www.w3.org/2000/svg">
<path fill-rule="evenodd" clip-rule="evenodd" d="M8.44244 2.66667C8.44244 1.19391 9.64177 0 11.1212 0C12.6007 0 13.8 1.19391 13.8 2.66667C13.8 4.13943 12.6007 5.33333 11.1212 5.33333C10.3742 5.33333 9.69904 5.02877 9.21368 4.53878L5.50534 7.06364C5.53963 7.23399 5.55759 7.40996 5.55759 7.58974C5.55759 7.94577 5.48724 8.28606 5.35968 8.59709L9.42588 11.2686C9.88733 10.8929 10.4779 10.6667 11.1212 10.6667C12.6007 10.6667 13.8 11.8606 13.8 13.3333C13.8 14.8061 12.6007 16 11.1212 16C9.64177 16 8.44244 14.8061 8.44244 13.3333C8.44244 12.9476 8.525 12.5804 8.67339 12.2489L4.64007 9.59896C4.16958 10.0079 3.55329 10.2564 2.8788 10.2564C1.39935 10.2564 0.200012 9.0625 0.200012 7.58974C0.200012 6.11698 1.39935 4.92308 2.8788 4.92308C3.72954 4.92308 4.48683 5.3178 4.97717 5.93214L8.57115 3.48514C8.48755 3.22687 8.44244 2.95168 8.44244 2.66667Z" fill="#172A2B"/>
</svg>
