<svg width="22" height="23" viewBox="0 0 22 23" fill="none" xmlns="http://www.w3.org/2000/svg">
<path d="M9.3242 6.34981C10.5444 4.16087 11.1545 3.06641 12.0667 3.06641C12.9788 3.06641 13.5889 4.16087 14.8091 6.34981L15.1248 6.91611C15.4715 7.53814 15.6449 7.84915 15.9152 8.05436C16.1855 8.25957 16.5222 8.33574 17.1955 8.48809L17.8086 8.62679C20.1781 9.16291 21.3628 9.43097 21.6447 10.3374C21.9265 11.2438 21.1189 12.1883 19.5035 14.0772L19.0856 14.5659C18.6265 15.1027 18.397 15.3711 18.2938 15.7031C18.1905 16.0352 18.2252 16.3933 18.2946 17.1094L18.3578 17.7615C18.602 20.2817 18.7241 21.5419 17.9862 22.1021C17.2483 22.6623 16.139 22.1515 13.9204 21.13L13.3465 20.8658C12.716 20.5755 12.4008 20.4303 12.0667 20.4303C11.7325 20.4303 11.4173 20.5755 10.7869 20.8658L10.2129 21.13C7.99433 22.1515 6.88505 22.6623 6.14711 22.1021C5.40917 21.5419 5.53128 20.2817 5.7755 17.7615L5.83869 17.1095C5.90809 16.3933 5.94279 16.0352 5.83953 15.7031C5.73628 15.3711 5.50676 15.1027 5.04773 14.5659L4.62981 14.0772C3.01445 12.1883 2.20677 11.2438 2.48863 10.3374C2.7705 9.43097 3.95525 9.16291 6.32474 8.62679L6.93776 8.48809C7.61109 8.33574 7.94776 8.25957 8.21808 8.05436C8.4884 7.84915 8.66177 7.53814 9.00852 6.91611L9.3242 6.34981Z" fill="#69B0AC"/>
<path d="M3.4163 0.233859C3.45029 0.113973 3.66309 0.113254 3.69789 0.232908C3.85679 0.779302 4.15142 1.58693 4.59697 2.02948C5.04251 2.47202 5.85211 2.76119 6.39957 2.91639C6.51945 2.95038 6.52017 3.16318 6.40052 3.19798C5.85412 3.35688 5.04649 3.65151 4.60395 4.09706C4.16141 4.5426 3.87223 5.3522 3.71703 5.89966C3.68304 6.01954 3.47024 6.02026 3.43544 5.90061C3.27655 5.35422 2.98191 4.54658 2.53637 4.10404C2.09083 3.6615 1.28122 3.37233 0.733767 3.21712C0.613881 3.18314 0.613162 2.97033 0.732816 2.93554C1.27921 2.77664 2.08684 2.482 2.52938 2.03646C2.97193 1.59092 3.2611 0.781314 3.4163 0.233859Z" fill="#69B0AC"/>
<path fill-rule="evenodd" clip-rule="evenodd" d="M19.4333 1.08301C19.9028 1.08301 20.2833 1.46357 20.2833 1.93301V2.21634H20.5666C21.0361 2.21634 21.4166 2.5969 21.4166 3.06634C21.4166 3.53578 21.0361 3.91634 20.5666 3.91634H20.2833V4.19967C20.2833 4.66912 19.9028 5.04967 19.4333 5.04967C18.9639 5.04967 18.5833 4.66912 18.5833 4.19967V3.91634H18.3C17.8305 3.91634 17.45 3.53578 17.45 3.06634C17.45 2.5969 17.8305 2.21634 18.3 2.21634H18.5833V1.93301C18.5833 1.46357 18.9639 1.08301 19.4333 1.08301Z" fill="#69B0AC"/>
</svg>
