<svg width="24" height="25" viewBox="0 0 24 25" fill="none" xmlns="http://www.w3.org/2000/svg">
<path fill-rule="evenodd" clip-rule="evenodd" d="M4.61108 0.556468C4.61108 0.556434 4.61109 0.556501 4.61108 0.556468C4.55837 0.290445 4.32447 0.0986964 4.05324 0.0996126C3.78195 0.100529 3.54938 0.293594 3.49853 0.560062L3.49815 0.562011L3.49599 0.57287C3.49394 0.583031 3.49067 0.598905 3.48617 0.619871C3.47717 0.661837 3.46327 0.723983 3.44436 0.801351C3.40639 0.956658 3.3489 1.17036 3.27115 1.40368C3.10716 1.89577 2.88374 2.37847 2.62731 2.63664C2.37089 2.89481 1.8897 3.12148 1.39873 3.28879C1.16594 3.36811 0.952635 3.42704 0.797588 3.46606C0.72035 3.4855 0.658298 3.49981 0.616394 3.5091C0.59546 3.51374 0.579607 3.51712 0.569461 3.51924L0.558616 3.52147L0.556834 3.52184C0.290714 3.57448 0.0990624 3.80838 0.0999789 4.07968C0.100895 4.35097 0.29396 4.58354 0.560429 4.63439L0.562377 4.63477L0.573236 4.63693C0.583397 4.63898 0.599272 4.64225 0.620237 4.64675C0.662203 4.65575 0.72435 4.66965 0.801717 4.68856C0.957024 4.72653 1.17072 4.78402 1.40404 4.86177C1.89613 5.02576 2.37884 5.24918 2.63701 5.5056C2.89517 5.76203 3.12185 6.24322 3.28915 6.73419C3.36848 6.96698 3.42741 7.18028 3.46643 7.33533C3.48587 7.41257 3.50018 7.47462 3.50947 7.51652C3.51411 7.53746 3.51748 7.55331 3.5196 7.56346L3.52184 7.5743L3.5222 7.57608C3.57485 7.8422 3.80875 8.03386 4.08004 8.03294C4.35133 8.03202 4.58391 7.83896 4.63475 7.57249L4.63513 7.57054L4.6373 7.55968C4.63935 7.54952 4.64261 7.53365 4.64711 7.51268C4.65612 7.47072 4.67001 7.40857 4.68893 7.3312C4.7269 7.17589 4.78438 6.9622 4.86214 6.72887C5.02612 6.23679 5.24954 5.75408 5.50597 5.49591C5.7624 5.23774 6.24358 5.01107 6.73455 4.84376C6.96734 4.76444 7.18065 4.70551 7.3357 4.66649C7.41293 4.64705 7.47499 4.63274 7.51689 4.62345C7.53783 4.61881 7.55368 4.61544 7.56382 4.61332L7.57467 4.61108L7.57645 4.61072C7.57639 4.61073 7.57651 4.6107 7.57645 4.61072C7.84244 4.55798 8.03422 4.32408 8.03331 4.05288C8.03239 3.78159 7.83932 3.54901 7.57286 3.49817L7.57091 3.49779L7.56005 3.49562C7.54989 3.49357 7.53401 3.4903 7.51305 3.48581C7.47108 3.4768 7.40894 3.46291 7.33157 3.44399C7.17626 3.40602 6.96256 3.34853 6.72924 3.27078C6.23715 3.1068 5.75445 2.88338 5.49628 2.62695C5.23811 2.37052 5.01144 1.88933 4.84413 1.39836C4.7648 1.16557 4.70588 0.952268 4.66686 0.797222C4.64742 0.719984 4.6331 0.657932 4.62382 0.616028C4.61918 0.595093 4.6158 0.579241 4.61368 0.569094L4.61144 0.55825L4.61108 0.556468ZM5.64893 4.06093C5.30576 3.89971 4.96105 3.69271 4.6976 3.43104C4.43415 3.16936 4.22483 2.82606 4.0613 2.48399C3.90008 2.82715 3.69308 3.17187 3.43141 3.43532C3.16973 3.69876 2.82642 3.90809 2.48435 4.07162C2.82752 4.23284 3.17223 4.43984 3.43568 4.70151C3.69913 4.96319 3.90845 5.3065 4.07199 5.64857C4.23321 5.3054 4.44021 4.96068 4.70188 4.69724C4.96355 4.43379 5.30686 4.22446 5.64893 4.06093Z" fill="#172A2B" fill-opacity="0.6"/>
<path fill-rule="evenodd" clip-rule="evenodd" d="M19.9333 2.08294C20.4028 2.08294 20.7833 2.4635 20.7833 2.93294V3.21628H21.0666C21.5361 3.21628 21.9166 3.59683 21.9166 4.06628C21.9166 4.53572 21.5361 4.91628 21.0666 4.91628H20.7833V5.19961C20.7833 5.66905 20.4028 6.04961 19.9333 6.04961C19.4639 6.04961 19.0833 5.66905 19.0833 5.19961V4.91628H18.8C18.3305 4.91628 17.95 4.53572 17.95 4.06628C17.95 3.59683 18.3305 3.21628 18.8 3.21628H19.0833V2.93294C19.0833 2.4635 19.4639 2.08294 19.9333 2.08294ZM11.9858 5.40392C11.6135 5.89005 11.1906 6.64424 10.5666 7.76355L10.2509 8.32985C10.2306 8.36638 10.2104 8.40271 10.1904 8.4388C9.90571 8.95158 9.64832 9.41522 9.23202 9.73125C8.81071 10.0511 8.29814 10.166 7.74305 10.2905C7.70401 10.2993 7.66477 10.3081 7.62533 10.317L7.01231 10.4557C5.79868 10.7303 4.98764 10.9163 4.43547 11.1339C3.89931 11.3452 3.82746 11.5023 3.80028 11.5897C3.77022 11.6863 3.74539 11.8749 4.06709 12.3859C4.39456 12.9061 4.94987 13.5588 5.7758 14.5247L6.19372 15.0134C6.21981 15.0439 6.24576 15.0741 6.27152 15.1041C6.65365 15.5496 6.99455 15.9469 7.15118 16.4506C7.30676 16.9509 7.25515 17.4752 7.19659 18.07C7.19264 18.1101 7.18866 18.1505 7.18471 18.1913L7.12153 18.8433C6.99678 20.1308 6.91429 21.0035 6.94215 21.6289C6.96994 22.2528 7.10065 22.3791 7.16105 22.4249C7.20758 22.4603 7.33246 22.5519 7.89063 22.3919C8.45972 22.2289 9.22099 21.881 10.3574 21.3578L10.9313 21.0935C10.969 21.0762 11.0065 21.0588 11.0438 21.0416C11.5598 20.8028 12.0405 20.5802 12.5666 20.5802C13.0927 20.5802 13.5735 20.8028 14.0895 21.0416C14.1268 21.0588 14.1643 21.0762 14.2019 21.0935L14.7759 21.3578C15.9123 21.881 16.6736 22.2289 17.2427 22.3919C17.8008 22.5519 17.9257 22.4603 17.9722 22.4249C18.0326 22.3791 18.1633 22.2528 18.1911 21.6289C18.219 21.0035 18.1365 20.1308 18.0118 18.8433L17.9486 18.1913C17.9446 18.1505 17.9406 18.1101 17.9367 18.07C17.8781 17.4752 17.8265 16.9509 17.9821 16.4506C18.1387 15.9469 18.4796 15.5496 18.8618 15.1041C18.8875 15.0741 18.9135 15.0439 18.9396 15.0134L19.3575 14.5247C20.1834 13.5588 20.7387 12.9061 21.0662 12.3859C21.3879 11.8749 21.3631 11.6863 21.333 11.5897C21.3058 11.5023 21.234 11.3452 20.6978 11.1339C20.1456 10.9163 19.3346 10.7303 18.121 10.4557L17.508 10.317C17.4685 10.3081 17.4293 10.2993 17.3902 10.2905C16.8351 10.166 16.3226 10.0511 15.9013 9.73125C15.485 9.41522 15.2276 8.95158 14.9429 8.43879C14.9229 8.40271 14.9027 8.36638 14.8823 8.32985L14.5667 7.76354C13.9427 6.64424 13.5198 5.89005 13.1475 5.40392C12.7756 4.91835 12.6151 4.91628 12.5666 4.91628C12.5182 4.91628 12.3576 4.91835 11.9858 5.40392ZM10.6361 4.37033C11.1024 3.76144 11.7029 3.21628 12.5666 3.21628C13.4303 3.21628 14.0309 3.76144 14.4972 4.37033C14.9541 4.967 15.4364 5.83224 16.0173 6.87446L16.3672 7.50211C16.7509 8.19041 16.8341 8.30506 16.9292 8.37721C17.0189 8.44531 17.1367 8.49004 17.8831 8.65892L18.5665 8.81353C19.6912 9.06797 20.6324 9.28087 21.3211 9.55229C22.0402 9.83567 22.7016 10.2658 22.9563 11.0849C23.2081 11.8946 22.9204 12.6315 22.5049 13.2916C22.1029 13.93 21.4638 14.6773 20.6945 15.577L20.2316 16.1182C19.7266 16.7087 19.6447 16.829 19.6054 16.9554C19.565 17.0855 19.5644 17.2403 19.6406 18.0273L19.7104 18.7472C19.827 19.9495 19.9233 20.9439 19.8895 21.7045C19.8549 22.4808 19.6777 23.2646 19.0001 23.779C18.3087 24.3038 17.51 24.2369 16.7744 24.0262C16.0645 23.8228 15.1839 23.4173 14.131 22.9324L13.491 22.6377C12.7892 22.3146 12.6708 22.2802 12.5666 22.2802C12.4625 22.2802 12.3441 22.3146 11.6423 22.6377L11.0022 22.9324C9.94939 23.4173 9.06875 23.8228 8.35889 24.0262C7.6233 24.2369 6.82456 24.3038 6.13315 23.779C5.45562 23.2646 5.27841 22.4808 5.24383 21.7045C5.20995 20.9439 5.30633 19.9496 5.42288 18.7472L5.49264 18.0273C5.56891 17.2403 5.5683 17.0855 5.52786 16.9554C5.48855 16.829 5.40665 16.7087 4.90172 16.1182L4.4388 15.5769C3.66944 14.6773 3.03034 13.93 2.62842 13.2916C2.2129 12.6315 1.92516 11.8946 2.17696 11.0849C2.43165 10.2658 3.09311 9.83567 3.81217 9.55229C4.5009 9.28087 5.44206 9.06797 6.56681 8.81353L7.25017 8.65892C7.99657 8.49004 8.11442 8.44531 8.20412 8.37721C8.29917 8.30506 8.38238 8.19041 8.76607 7.50211L9.11595 6.87446C9.69688 5.83224 10.1792 4.967 10.6361 4.37033Z" fill="#172A2B" fill-opacity="0.6"/>
</svg>
