<svg width="16" height="14" viewBox="0 0 16 14" fill="none" xmlns="http://www.w3.org/2000/svg">
<path fill-rule="evenodd" clip-rule="evenodd" d="M9.6063 12.6019L9.61095 10.9996C9.61095 10.5578 9.97002 10.1996 10.4129 10.1996C10.8559 10.1996 11.2149 10.5578 11.2149 10.9996V12.5808C11.2149 12.966 11.2149 13.1587 11.3385 13.2768C11.462 13.3949 11.651 13.3868 12.0289 13.3708C13.5193 13.3077 14.4349 13.1062 15.0803 12.4624C15.7273 11.817 15.9288 10.9009 15.9915 9.40803C16.004 9.11198 16.0102 8.96395 15.9549 8.86519C15.8996 8.76643 15.6789 8.64318 15.2375 8.39668C14.7473 8.12292 14.4159 7.59987 14.4159 6.99961C14.4159 6.39935 14.7473 5.87629 15.2375 5.60254C15.6789 5.35604 15.8996 5.23279 15.9549 5.13403C16.0102 5.03527 16.004 4.88724 15.9915 4.59119C15.9288 3.09832 15.7273 2.18219 15.0803 1.53687C14.3782 0.836441 13.3562 0.659453 11.6222 0.614731C11.3985 0.608962 11.2149 0.789353 11.2149 1.01255V2.99961C11.2149 3.44144 10.8559 3.79961 10.4129 3.79961C9.97002 3.79961 9.61096 3.44144 9.61096 2.99961L9.60514 0.99845C9.6045 0.77799 9.42516 0.599609 9.20415 0.599609H6.39601C3.37151 0.599609 1.85926 0.599609 0.919662 1.53687C0.272729 2.18219 0.0712251 3.09832 0.00846186 4.59119C-0.00398499 4.88724 -0.0102084 5.03527 0.0450753 5.13403C0.100359 5.23279 0.321061 5.35604 0.762465 5.60254C1.25268 5.87629 1.58406 6.39935 1.58406 6.99961C1.58406 7.59987 1.25268 8.12292 0.762465 8.39668C0.321066 8.64318 0.100359 8.76643 0.0450752 8.86519C-0.0102084 8.96395 -0.003985 9.11198 0.00846185 9.40803C0.0712251 10.9009 0.272729 11.817 0.919662 12.4624C1.85926 13.3996 3.37151 13.3996 6.39601 13.3996H8.80431C9.18138 13.3996 9.36991 13.3996 9.48728 13.2829C9.60466 13.1661 9.60521 12.9781 9.6063 12.6019ZM11.2149 7.79961V6.19961C11.2149 5.75778 10.8559 5.39961 10.4129 5.39961C9.97002 5.39961 9.61095 5.75778 9.61095 6.19961V7.79961C9.61095 8.24144 9.97002 8.59961 10.4129 8.59961C10.8559 8.59961 11.2149 8.24144 11.2149 7.79961Z" fill="#172A2B"/>
</svg>
