<svg width="16" height="16" viewBox="0 0 16 16" fill="none" xmlns="http://www.w3.org/2000/svg">
<path d="M6.4 16.0002H9.6C12.617 16.0002 14.1255 16.0002 15.0627 15.0629C16 14.1256 16 12.6172 16 9.60016C16 6.58317 16 5.07468 15.0627 4.13742C14.7727 3.84734 14.4274 3.64704 13.9997 3.50873C14 3.64435 14 3.78305 14 3.92414L14 5.65062C14 5.6741 14.0002 5.69969 14.0005 5.72714C14.0028 5.99951 14.0068 6.45598 13.8112 6.87363C13.6156 7.29127 13.2624 7.58046 13.0516 7.753C13.0306 7.77023 13.0104 7.78673 12.9925 7.80164L11.7873 8.80598C11.0987 9.37987 10.4993 9.87945 9.96043 10.226C9.37958 10.5996 8.75127 10.8759 8.00001 10.8759C7.24874 10.8759 6.62044 10.5996 6.03959 10.226C5.50071 9.87945 4.90129 9.37987 4.2127 8.80598L3.00749 7.80164C2.98945 7.7866 2.96966 7.77039 2.94841 7.753C2.73766 7.58046 2.38445 7.29128 2.18883 6.87363C1.99322 6.45598 1.99718 5.99951 1.99955 5.72714C1.99979 5.69969 2.00001 5.6741 2.00001 5.65062L2.00001 3.92413C1.99999 3.78286 1.99998 3.64422 2.00032 3.50845C1.57261 3.64676 1.22754 3.84714 0.937258 4.13742C0 5.07468 0 6.58317 0 9.60016C0 12.6172 0 14.1256 0.937258 15.0629C1.87452 16.0002 3.38302 16.0002 6.4 16.0002Z" fill="#172A2B"/>
<path fill-rule="evenodd" clip-rule="evenodd" d="M3.77577 6.87975L4.92719 7.83926C6.39649 9.06369 7.13115 9.6759 8.00007 9.6759C8.86899 9.6759 9.60364 9.06369 11.073 7.83926L12.2244 6.87975C12.5075 6.64384 12.649 6.52588 12.7245 6.36462C12.8001 6.20337 12.8001 6.01911 12.8001 5.6506V4C12.8001 3.74349 12.8001 3.50444 12.7986 3.28135C12.7892 1.86448 12.7204 1.09189 12.2143 0.585786C11.6285 0 10.6857 0 8.80007 0H7.20007C5.31445 0 4.37164 0 3.78586 0.585786C3.27975 1.09189 3.20944 1.86448 3.20007 3.28135C3.1986 3.50444 3.20007 3.74349 3.20007 4V5.6506C3.20007 6.01911 3.20007 6.20337 3.2756 6.36462C3.35113 6.52588 3.49268 6.64384 3.77577 6.87975ZM5.8 3.2C5.8 2.86863 6.06863 2.6 6.4 2.6H9.6C9.93137 2.6 10.2 2.86863 10.2 3.2C10.2 3.53137 9.93137 3.8 9.6 3.8H6.4C6.06863 3.8 5.8 3.53137 5.8 3.2ZM6.6 5.6C6.6 5.26863 6.86863 5 7.2 5H8.8C9.13137 5 9.4 5.26863 9.4 5.6C9.4 5.93137 9.13137 6.2 8.8 6.2H7.2C6.86863 6.2 6.6 5.93137 6.6 5.6Z" fill="#172A2B"/>
</svg>
