<svg width="18" height="14" viewBox="0 0 18 14" fill="none" xmlns="http://www.w3.org/2000/svg">
<path d="M7.04999 6.99998C7.04999 5.92303 7.92304 5.04998 9 5.04998C10.077 5.04998 10.95 5.92303 10.95 6.99998C10.95 8.07694 10.077 8.94998 9 8.94998C7.92304 8.94998 7.04999 8.07694 7.04999 6.99998Z" fill="#2F6164"/>
<path fill-rule="evenodd" clip-rule="evenodd" d="M0.333328 6.99998C0.333328 8.42078 0.701631 8.89926 1.43824 9.85623C2.90903 11.767 5.37569 13.9333 9 13.9333C12.6243 13.9333 15.091 11.767 16.5618 9.85623C17.2984 8.89926 17.6667 8.42078 17.6667 6.99998C17.6667 5.57919 17.2984 5.10071 16.5618 4.14374C15.091 2.23293 12.6243 0.0666504 9 0.0666504C5.37569 0.0666504 2.90903 2.23293 1.43824 4.14374C0.701631 5.10071 0.333328 5.57919 0.333328 6.99998ZM9 3.74998C7.20507 3.74998 5.74999 5.20506 5.74999 6.99998C5.74999 8.79491 7.20507 10.25 9 10.25C10.7949 10.25 12.25 8.79491 12.25 6.99998C12.25 5.20506 10.7949 3.74998 9 3.74998Z" fill="#2F6164"/>
</svg>
