<svg width="20" height="11" viewBox="0 0 20 11" fill="none" xmlns="http://www.w3.org/2000/svg">
<path fill-rule="evenodd" clip-rule="evenodd" d="M0.991966 0.870101C1.43191 0.681553 1.94141 0.885351 2.12995 1.3253L1.33336 1.66669C2.12995 1.3253 2.13008 1.32558 2.12995 1.3253L2.12951 1.32426C2.12926 1.32369 2.12944 1.3241 2.12951 1.32426L2.1329 1.33194C2.13637 1.33975 2.14234 1.35303 2.15083 1.3714C2.16781 1.40817 2.19484 1.46526 2.2321 1.53979C2.30669 1.68896 2.42188 1.90715 2.57912 2.17132C2.89459 2.70131 3.37387 3.40717 4.02678 4.1103C4.18068 4.27604 4.34354 4.44097 4.51556 4.603C4.52276 4.60954 4.52987 4.61621 4.53689 4.62303C5.82362 5.82791 7.6187 6.86669 10 6.86669C11.0478 6.86669 11.9746 6.66665 12.7915 6.34512C13.854 5.9269 14.7447 5.29726 15.4736 4.61311C16.2966 3.84062 16.9011 3.01006 17.3002 2.36955C17.499 2.05055 17.6447 1.78211 17.7393 1.59657C17.7865 1.50389 17.8209 1.4322 17.8427 1.38555C17.8535 1.36224 17.8612 1.34522 17.8658 1.335L17.8701 1.3253C18.0588 0.885591 18.5683 0.681603 19.0081 0.870101C19.448 1.05865 19.6518 1.56814 19.4633 2.00809L18.6667 1.66669C19.4633 2.00809 19.4634 2.00789 19.4633 2.00809L19.4614 2.01244L19.4583 2.01957L19.4484 2.04197C19.4401 2.06045 19.4286 2.08596 19.4136 2.11798C19.3838 2.18199 19.3405 2.2721 19.2834 2.38406C19.1693 2.6078 18.9995 2.91996 18.7713 3.28621C18.4224 3.84621 17.9318 4.54073 17.2884 5.24108L17.9795 5.93219C18.318 6.27065 18.318 6.81939 17.9795 7.15785C17.6411 7.4963 17.0923 7.4963 16.7539 7.15785L16.0257 6.42969C15.5367 6.82467 14.9894 7.19721 14.3817 7.5186L15.0598 8.56069C15.3208 8.96189 15.2072 9.49874 14.806 9.75979C14.4048 10.0208 13.868 9.90722 13.6069 9.50603L12.7529 8.19344C12.1644 8.37383 11.5358 8.50168 10.8667 8.5616V9.90003C10.8667 10.3787 10.4787 10.7667 10 10.7667C9.52138 10.7667 9.13336 10.3787 9.13336 9.90003V8.56173C8.46201 8.50175 7.83352 8.37366 7.24696 8.19379L6.39312 9.50603C6.13208 9.90722 5.59522 10.0208 5.19403 9.75979C4.79283 9.49874 4.67922 8.96189 4.94027 8.56069L5.61835 7.51857C5.01158 7.19744 4.4642 6.8249 3.97453 6.4295L3.24619 7.15785C2.90773 7.4963 2.35899 7.4963 2.02054 7.15785C1.68208 6.81939 1.68208 6.27065 2.02054 5.93219L2.71165 5.24108C1.97932 4.44396 1.44409 3.6533 1.08968 3.0579C0.908386 2.75332 0.773058 2.49755 0.68176 2.31496C0.636078 2.22359 0.601321 2.15035 0.577254 2.09825C0.565218 2.07219 0.555847 2.0514 0.549111 2.03625L0.540978 2.01781L0.538385 2.01184L0.537455 2.00969L0.537082 2.00882C0.536921 2.00844 0.53677 2.00809 1.33336 1.66669L0.537082 2.00882C0.348534 1.56887 0.55202 1.05865 0.991966 0.870101Z" fill="#2F6164"/>
</svg>
