<svg width="242" height="103" viewBox="0 0 242 103" fill="none" xmlns="http://www.w3.org/2000/svg">
<path fill-rule="evenodd" clip-rule="evenodd" d="M156.027 92.8981H52.8097C48.4247 92.8981 44.8699 89.3434 44.8699 84.9583C44.8699 80.5733 48.4247 77.0185 52.8097 77.0185H8.5736C4.18857 77.0185 0.633789 73.4637 0.633789 69.0787C0.633789 64.6937 4.18857 61.1389 8.5736 61.1389H53.944C58.329 61.1389 61.8838 57.5841 61.8838 53.1991C61.8838 48.814 58.329 45.2593 53.944 45.2593H25.5875C21.2025 45.2593 17.6477 41.7045 17.6477 37.3194C17.6477 32.9344 21.2025 29.3796 25.5875 29.3796H70.9579C66.5728 29.3796 63.018 25.8249 63.018 21.4398C63.018 17.0548 66.5728 13.5 70.9579 13.5L135.611 13.5C139.996 13.5 143.55 17.0548 143.55 21.4398C143.55 25.8249 139.996 29.3796 135.611 29.3796H208.203C212.588 29.3796 216.143 32.9344 216.143 37.3194C216.143 41.7045 212.588 45.2593 208.203 45.2593H233.157C237.542 45.2593 241.097 48.814 241.097 53.1991C241.097 57.5841 237.542 61.1389 233.157 61.1389H211.606C207.221 61.1389 203.666 64.6937 203.666 69.0787C203.666 73.4637 207.221 77.0185 211.606 77.0185H218.412C222.797 77.0185 226.351 80.5733 226.351 84.9583C226.351 89.3434 222.797 92.8981 218.412 92.8981H159.43C158.846 92.8981 158.277 92.8351 157.729 92.7154C157.181 92.8351 156.611 92.8981 156.027 92.8981Z" fill="#E0E7E8"/>
<rect x="75.6338" y="1.5" width="100" height="100" rx="50" fill="white"/>
<rect x="75.6338" y="1.5" width="100" height="100" rx="50" stroke="#2F6164" stroke-width="2"/>
<path d="M161.634 83C115.234 75 98.6337 33.6667 96.1337 14C68.1337 43.2 80.467 71.5 90.1337 82C121.134 111 150.3 94 161.634 83Z" fill="#F3E5AB"/>
<path d="M124.473 75.3337H126.36C132.853 75.3337 136.1 75.3337 138.211 73.2188C140.322 71.1039 140.537 67.6348 140.969 60.6967L141.592 50.6994C141.826 46.9348 141.943 45.0526 140.884 43.8598C139.825 42.667 138.037 42.667 134.461 42.667H116.373C112.796 42.667 111.008 42.667 109.949 43.8598C108.89 45.0526 109.007 46.9348 109.242 50.6994L109.864 60.6967C110.296 67.6348 110.512 71.1039 112.623 73.2188C114.734 75.3337 117.98 75.3337 124.473 75.3337Z" fill="#FF5E58"/>
<path d="M104.417 38.3892C104.417 37.3154 105.223 36.4448 106.217 36.4448L112.433 36.4438C113.668 36.41 114.758 35.5616 115.178 34.3065C115.189 34.2735 115.202 34.2327 115.248 34.0851L115.516 33.2168C115.68 32.6845 115.822 32.2207 116.022 31.8062C116.812 30.1685 118.272 29.0312 119.96 28.7401C120.387 28.6664 120.84 28.6667 121.359 28.667H129.475C129.994 28.6667 130.446 28.6664 130.874 28.7401C132.562 29.0312 134.022 30.1685 134.812 31.8062C135.012 32.2207 135.154 32.6845 135.318 33.2168L135.586 34.0851C135.632 34.2327 135.644 34.2735 135.655 34.3065C136.076 35.5616 137.382 36.411 138.617 36.4448H144.617C145.611 36.4448 146.417 37.3154 146.417 38.3892C146.417 39.4631 145.611 40.3337 144.617 40.3337H106.217C105.223 40.3337 104.417 39.4631 104.417 38.3892Z" fill="#FF5E58"/>
</svg>
