<svg width="242" height="102" viewBox="0 0 242 102" fill="none" xmlns="http://www.w3.org/2000/svg">
<path fill-rule="evenodd" clip-rule="evenodd" d="M156.027 92.3981H52.8097C48.4247 92.3981 44.8699 88.8434 44.8699 84.4583C44.8699 80.0733 48.4247 76.5185 52.8097 76.5185H8.5736C4.18857 76.5185 0.633789 72.9637 0.633789 68.5787C0.633789 64.1937 4.18857 60.6389 8.5736 60.6389H53.944C58.329 60.6389 61.8838 57.0841 61.8838 52.6991C61.8838 48.314 58.329 44.7593 53.944 44.7593H25.5875C21.2025 44.7593 17.6477 41.2045 17.6477 36.8194C17.6477 32.4344 21.2025 28.8796 25.5875 28.8796H70.9579C66.5728 28.8796 63.018 25.3249 63.018 20.9398C63.018 16.5548 66.5728 13 70.9579 13L135.611 13C139.996 13 143.55 16.5548 143.55 20.9398C143.55 25.3249 139.996 28.8796 135.611 28.8796H208.203C212.588 28.8796 216.143 32.4344 216.143 36.8194C216.143 41.2045 212.588 44.7593 208.203 44.7593H233.157C237.542 44.7593 241.097 48.314 241.097 52.6991C241.097 57.0841 237.542 60.6389 233.157 60.6389H211.606C207.221 60.6389 203.666 64.1937 203.666 68.5787C203.666 72.9637 207.221 76.5185 211.606 76.5185H218.412C222.797 76.5185 226.351 80.0733 226.351 84.4583C226.351 88.8434 222.797 92.3981 218.412 92.3981H159.43C158.846 92.3981 158.277 92.3351 157.729 92.2154C157.181 92.3351 156.611 92.3981 156.027 92.3981Z" fill="#E0E7E8"/>
<rect x="75.6338" y="1" width="100" height="100" rx="50" fill="white"/>
<rect x="75.6338" y="1" width="100" height="100" rx="50" stroke="#2F6164" stroke-width="2"/>
<path d="M161.634 82.5C115.234 74.5 98.6338 33.1667 96.1338 13.5C68.1338 42.7 80.4672 71 90.1338 81.5C121.134 110.5 150.3 93.5 161.634 82.5Z" fill="#E0E7E8"/>
<path fill-rule="evenodd" clip-rule="evenodd" d="M155.634 51C155.634 67.5685 142.202 81 125.634 81C109.065 81 95.6338 67.5685 95.6338 51C95.6338 34.4315 109.065 21 125.634 21C142.202 21 155.634 34.4315 155.634 51ZM125.634 68.25C126.876 68.25 127.884 67.2426 127.884 66V48C127.884 46.7574 126.876 45.75 125.634 45.75C124.391 45.75 123.384 46.7574 123.384 48V66C123.384 67.2426 124.391 68.25 125.634 68.25ZM125.634 36C127.291 36 128.634 37.3431 128.634 39C128.634 40.6569 127.291 42 125.634 42C123.977 42 122.634 40.6569 122.634 39C122.634 37.3431 123.977 36 125.634 36Z" fill="#69B0AC"/>
</svg>
