<svg width="242" height="103" viewBox="0 0 242 103" fill="none" xmlns="http://www.w3.org/2000/svg">
<path fill-rule="evenodd" clip-rule="evenodd" d="M156.027 92.8981H52.8097C48.4247 92.8981 44.8699 89.3434 44.8699 84.9583C44.8699 80.5733 48.4247 77.0185 52.8097 77.0185H8.5736C4.18857 77.0185 0.633789 73.4637 0.633789 69.0787C0.633789 64.6937 4.18857 61.1389 8.5736 61.1389H53.944C58.329 61.1389 61.8838 57.5841 61.8838 53.1991C61.8838 48.814 58.329 45.2593 53.944 45.2593H25.5875C21.2025 45.2593 17.6477 41.7045 17.6477 37.3194C17.6477 32.9344 21.2025 29.3796 25.5875 29.3796H70.9579C66.5728 29.3796 63.018 25.8249 63.018 21.4398C63.018 17.0548 66.5728 13.5 70.9579 13.5L135.611 13.5C139.996 13.5 143.55 17.0548 143.55 21.4398C143.55 25.8249 139.996 29.3796 135.611 29.3796H208.203C212.588 29.3796 216.143 32.9344 216.143 37.3194C216.143 41.7045 212.588 45.2593 208.203 45.2593H233.157C237.542 45.2593 241.097 48.814 241.097 53.1991C241.097 57.5841 237.542 61.1389 233.157 61.1389H211.606C207.221 61.1389 203.666 64.6937 203.666 69.0787C203.666 73.4637 207.221 77.0185 211.606 77.0185H218.412C222.797 77.0185 226.351 80.5733 226.351 84.9583C226.351 89.3434 222.797 92.8981 218.412 92.8981H159.43C158.846 92.8981 158.277 92.8351 157.729 92.7154C157.181 92.8351 156.611 92.8981 156.027 92.8981Z" fill="#E0E7E8"/>
<rect x="75.6338" y="1.5" width="100" height="100" rx="50" fill="white"/>
<rect x="75.6338" y="1.5" width="100" height="100" rx="50" stroke="#2F6164" stroke-width="2"/>
<path d="M161.634 83C115.234 75 98.6337 33.6667 96.1337 14C68.1337 43.2 80.467 71.5 90.1337 82C121.134 111 150.3 94 161.634 83Z" fill="#F3E5AB"/>
<path fill-rule="evenodd" clip-rule="evenodd" d="M155.634 51.5C155.634 68.0685 142.202 81.5 125.634 81.5C109.065 81.5 95.6338 68.0685 95.6338 51.5C95.6338 34.9315 109.065 21.5 125.634 21.5C142.202 21.5 155.634 34.9315 155.634 51.5ZM125.634 68.75C126.876 68.75 127.884 67.7426 127.884 66.5V48.5C127.884 47.2574 126.876 46.25 125.634 46.25C124.391 46.25 123.384 47.2574 123.384 48.5V66.5C123.384 67.7426 124.391 68.75 125.634 68.75ZM125.634 36.5C127.291 36.5 128.634 37.8431 128.634 39.5C128.634 41.1569 127.291 42.5 125.634 42.5C123.977 42.5 122.634 41.1569 122.634 39.5C122.634 37.8431 123.977 36.5 125.634 36.5Z" fill="#69B0AC"/>
</svg>
